<svg width="206" height="206" viewBox="0 0 206 206" fill="none" xmlns="http://www.w3.org/2000/svg">
<g clip-path="url(#clip0_220_256)">
<rect width="3857" height="3857" fill="#003399"/>
<path d="M148.383 165.497L125.542 95.2009L90.3939 106.621L148.383 165.497Z" fill="#FFCC00"/>
<path d="M148.383 165.497L88.5851 122.052L110.308 92.1529L148.383 165.497Z" fill="#FFCC00"/>
<path d="M61.5 165.496L121.298 122.05L99.5749 92.1514L61.5 165.496Z" fill="#FFCC00"/>
<path d="M61.5 165.496L84.3407 95.1994L119.489 106.62L61.5 165.496Z" fill="#FFCC00"/>
<path d="M34.6328 82.8574L94.4305 126.303L116.153 96.4042L34.6328 82.8574Z" fill="#FFCC00"/>
<path d="M34.6328 82.8574H108.547V119.814L34.6328 82.8574Z" fill="#FFCC00"/>
<path d="M175.242 82.8586L115.444 126.304L93.7217 96.4054L175.242 82.8586Z" fill="#FFCC00"/>
<path d="M175.242 82.8586H101.328V119.816L175.242 82.8586Z" fill="#FFCC00"/>
<path d="M104.945 31.7852L127.786 102.082L92.6378 113.502L104.945 31.7852Z" fill="#FFCC00"/>
<path d="M104.945 31.7852L82.1046 102.082L117.253 113.502L104.945 31.7852Z" fill="#FFCC00"/>
</g>
<defs>
<clipPath id="clip0_220_256">
<rect width="206" height="206" fill="white"/>
</clipPath>
</defs>
</svg>
