<svg width="220" height="58" viewBox="0 0 220 58" fill="none" xmlns="http://www.w3.org/2000/svg">
<path d="M151.172 18.9355H95.405L70.1406 57.9999H92.9864L110.506 31.094H129.154C138.051 31.094 146.348 26.5124 151.172 18.9355Z" fill="#C41039"/>
<path d="M162.367 45.8416L191.567 0H168.733L131.789 58H197.983C206.881 58 215.177 53.4184 220.002 45.8416H162.367Z" fill="#C41039"/>
<path d="M23.5238 45.8416L44.9786 12.1584H140.823C149.733 12.1584 158.017 7.57682 162.854 0H38.9883C33.3113 0 28.0228 2.91906 24.94 7.75449L1.36725 44.7882C-2.26701 50.4867 1.76829 58 8.47289 58H64.3655L72.1102 45.8416H23.5238Z" fill="#C41039"/>
</svg>
