<svg width="100" height="70" viewBox="0 0 100 70" fill="none" xmlns="http://www.w3.org/2000/svg">
<g clip-path="url(#clip0_781_50)">
<path fill-rule="evenodd" clip-rule="evenodd" d="M10 0H90C95.5 0 100 4.5 100 10V59.9C100 65.5 95.5 70 90 70H10C4.5 70 0 65.5 0 60V10C0 4.5 4.5 0 10 0ZM90.0027 62.7996C91.6027 62.6996 92.8027 61.3996 92.7027 59.8996V9.89961C92.7027 8.39961 91.5027 7.09961 90.0027 7.09961H9.9027C8.4027 7.19961 7.2027 8.49961 7.3027 9.99961V59.9996C7.3027 61.4996 8.5027 62.7996 10.0027 62.7996H90.0027Z" fill="#F01414"/>
<path d="M30.5969 57.9H13.7969V12.1H30.5969C42.4969 12.1 48.9969 19.5 48.9969 34.8C48.9969 48 44.4969 57.8 30.5969 57.9ZM37.8969 35.7C37.8969 26.5 36.8969 19.3 26.9969 19.3H24.7969V50.5H28.6969C34.4969 50.5 37.8969 45.8 37.8969 35.7ZM77.9969 33.9C82.6969 32.5 85.8969 28.2 85.9969 23.2C85.9969 22.2 85.7969 12 72.8969 12H53.7969V57.8H69.9969C74.2969 57.8 87.6969 57.8 87.6969 44.9C87.6969 41.8 86.2969 35.7 77.9969 33.9ZM64.6969 19.2H68.1969C73.0969 19.2 75.0969 20.9 75.0969 24.7C75.0969 27.7 72.8969 30.2 69.0969 30.2H64.7969V19.2H64.6969ZM69.1969 50.5H64.6969V38.7H69.4969C75.1969 38.7 76.5969 42 76.5969 44.6C76.5969 50.5 70.9969 50.5 69.1969 50.5Z" fill="#F01414"/>
</g>
<defs>
<clipPath id="clip0_781_50">
<rect width="100" height="70" fill="white"/>
</clipPath>
</defs>
</svg>
