<svg width="306" height="107" viewBox="0 0 306 107" fill="none" xmlns="http://www.w3.org/2000/svg">
<path d="M243.827 61.0802H272.918C276.918 61.0802 285.038 61.6301 285.038 72.9501C285.038 86.7501 275.338 87.0302 268.918 87.0302H243.827V61.0802ZM243.827 20.9202H269.198C276.618 20.9202 282.467 23.6802 282.467 32.3702C282.467 40.3702 277.188 43.8302 268.068 43.8302H243.827V20.9202ZM222.438 104.28H269.348C275.908 104.28 287.457 103.28 294.587 97.3802C303.847 89.6502 305.418 81.3802 305.418 76.1302C305.458 71.2254 304.359 66.3783 302.207 61.9706C300.055 57.5629 296.91 53.715 293.017 50.7301C296.091 48.2267 298.568 45.0699 300.268 41.4893C301.968 37.9086 302.85 33.994 302.848 30.0302C302.848 25.8902 300.847 3.66016 265.357 3.66016H222.438V104.28Z" fill="#E2002A"/>
<path d="M144.999 61.0802H174.089C178.089 61.0802 186.209 61.6301 186.209 72.9501C186.209 86.7501 176.509 87.0302 170.099 87.0302H144.999V61.0802ZM144.999 20.9202H170.379C177.789 20.9202 183.639 23.6802 183.639 32.3702C183.639 40.3702 178.359 43.8302 169.239 43.8302H144.999V20.9202ZM123.609 104.28H170.519C177.079 104.28 188.629 103.28 195.759 97.3802C205.029 89.6502 206.599 81.3802 206.599 76.1302C206.638 71.2247 205.537 66.3773 203.384 61.9697C201.23 57.562 198.083 53.7145 194.189 50.7301C197.266 48.2286 199.745 45.0725 201.447 41.4915C203.15 37.9106 204.032 33.9951 204.029 30.0302C204.029 25.8902 202.029 3.66016 166.529 3.66016H123.639V104.28" fill="#ED1834"/>
<path d="M76.5685 3.73016V3.66016L39.6484 43.8602H64.3984L101.208 3.73016H76.5685Z" fill="#ED1834"/>
<path d="M94.2582 19.2701L79.9982 34.8401C84.1633 40.7182 86.2403 47.8217 85.898 55.0177C85.5558 62.2137 82.8139 69.088 78.1097 74.5442C73.4055 80.0004 67.0099 83.7245 59.9426 85.1225C52.8754 86.5204 45.5436 85.5119 39.1163 82.2576C32.6891 79.0033 27.5365 73.6906 24.4803 67.1669C21.4241 60.6431 20.6402 53.2838 22.2537 46.2627C23.8671 39.2415 27.7851 32.9627 33.3826 28.4276C38.9802 23.8925 45.935 21.3621 53.1382 21.2401L69.8982 3.00012C57.6844 -0.927583 44.4628 -0.310062 32.6683 4.73896C20.8737 9.78798 11.3006 18.9285 5.712 30.4771C0.123362 42.0257 -1.10446 55.2047 2.25466 67.5869C5.61378 79.9691 13.3336 90.7207 23.9925 97.8616C34.6513 105.002 47.5313 108.052 60.2604 106.448C72.9896 104.844 84.7106 98.695 93.2648 89.1332C101.819 79.5714 106.631 67.2408 106.813 54.4124C106.996 41.5839 102.537 29.1214 94.2582 19.3201" fill="#ED1834"/>
</svg>
