<svg width="136" height="68" viewBox="0 0 136 68" fill="none" xmlns="http://www.w3.org/2000/svg">
<path d="M34.4405 0.00585938L11.1548 33.9027L22.5037 51.1446L108.8 50.9502L96.8634 67.9961H23.4817L0 33.9027L23.6777 0.00585938H34.4405Z" fill="#1A3D70"/>
<path d="M101.759 67.9961L125.044 33.9027L113.5 16.6609L27.2031 17.0515L39.14 0.00585938H112.521L136.003 33.9027L112.326 67.9961H101.759Z" fill="#1A3D70"/>
<path d="M39.3333 32.7269C37.181 32.7269 36.007 32.7269 36.007 32.7269V24.8901C36.007 24.8901 37.7672 24.8901 39.5292 24.8901C42.3341 24.8901 43.8336 26.6525 43.8336 28.8076C43.8336 30.7681 42.3341 32.7269 39.3333 32.7269ZM40.3113 20.9707H24.6562L24.8523 24.8901H27.6571C28.7665 24.8901 28.7665 25.4769 28.7665 26.4563V41.5451C28.7665 42.9151 28.1785 43.3075 27.2004 43.3075H24.8523V46.4419H39.7252V43.3075H37.1811C36.007 43.3075 36.007 42.5244 36.007 41.7394C36.007 40.9563 36.007 36.6463 36.007 36.6463C36.007 36.6463 37.9632 36.8426 41.4855 36.8426C45.0077 36.8426 52.117 35.0782 52.117 28.2207C52.117 21.5594 43.0515 20.9707 40.3113 20.9707Z" fill="#1A3D70"/>
<path d="M103.122 32.7269C100.774 32.7269 99.6001 32.7269 99.6001 32.7269V24.8901C99.6001 24.8901 101.556 24.8901 103.122 24.8901C106.057 24.8901 107.427 26.6525 107.427 28.8076C107.427 30.7681 106.057 32.7269 103.122 32.7269ZM103.904 20.9707H88.4453V24.8901H91.3814C92.3595 24.8901 92.5555 25.4769 92.5555 26.4563V41.5451C92.5555 42.9151 91.7715 43.3075 90.9895 43.3075H88.4453V46.4419H103.512V43.3075H100.774C99.7942 43.3075 99.6 42.5244 99.6 41.7394C99.6 40.9563 99.6 36.6463 99.6 36.6463C99.6 36.6463 101.752 36.8426 105.079 36.8426C108.601 36.8426 115.71 35.0782 115.71 28.2207C115.71 21.5594 106.839 20.9707 103.904 20.9707Z" fill="#1A3D70"/>
<path d="M52.8359 21.1669H67.709V24.8901H65.9469C64.5769 24.8901 63.9908 25.2807 63.9908 26.4563V33.9025C63.9908 33.9025 72.2093 27.045 73.1875 26.4563C73.5795 26.0656 74.7535 24.8901 73.5795 24.8901H71.4272V20.9707H84.5363V24.8901H83.1682C82.1882 24.8901 80.624 25.8694 80.036 26.4563C79.4499 27.045 73.3835 31.5513 73.3835 31.5513C73.3835 31.5513 80.8199 40.1732 81.4708 40.9563C82.3841 42.3282 83.3623 43.1113 84.3422 43.3075C85.1243 43.3075 85.5163 43.3075 86.6904 43.3075V46.4419H71.4272V43.1113C71.4272 43.1113 72.0133 43.3075 72.7955 43.3075C73.5795 43.3075 74.5575 43.1113 73.7754 42.3282C72.7955 40.7601 68.0991 35.0782 68.0991 35.0782L63.9908 38.2126V41.7394C63.9908 42.5245 64.3827 43.1113 65.3608 43.1113H67.709V46.4419H52.8359V43.3075H54.99C55.9681 43.3075 56.7503 42.9151 56.7503 41.3488V26.0657C56.7503 25.0863 56.3582 24.8901 55.3801 24.8901C54.0101 24.8901 52.8359 24.8901 52.8359 24.8901L52.8359 21.1669Z" fill="#1A3D70"/>
</svg>
