<svg width="163" height="45" viewBox="0 0 163 45" fill="none" xmlns="http://www.w3.org/2000/svg">
<path d="M48.0984 22.9996C50.1158 22.9996 52.0879 22.4014 53.7653 21.2806C55.4426 20.1598 56.75 18.5668 57.522 16.703C58.294 14.8392 58.496 12.7883 58.1024 10.8097C57.7089 8.83109 56.7374 7.01362 55.3109 5.58712C53.8844 4.16063 52.067 3.18917 50.0884 2.7956C48.1097 2.40204 46.0589 2.60403 44.1951 3.37604C42.3313 4.14806 40.7382 5.45542 39.6174 7.1328C38.4967 8.81018 37.8984 10.7822 37.8984 12.7996C37.8984 14.1391 38.1623 15.4655 38.6749 16.703C39.1875 17.9405 39.9388 19.0649 40.8859 20.0121C41.8331 20.9593 42.9575 21.7106 44.1951 22.2232C45.4326 22.7358 46.759 22.9996 48.0984 22.9996Z" fill="white"/>
<path d="M3.57812 33.4102H7.74812C9.74812 33.4102 11.0281 34.4101 11.0281 36.0201C11.0177 36.6754 10.7514 37.3007 10.2861 37.7622C9.82083 38.2238 9.19348 38.485 8.53812 38.4902C8.71245 38.5892 8.87089 38.714 9.00812 38.8602C9.64812 39.5002 11.6981 42.3202 11.6981 42.3202H8.99812C8.55812 41.7302 8.38812 41.4902 7.99812 40.8602C6.88812 39.2602 6.53812 38.8602 6.14812 38.6802C6.03258 38.6364 5.91134 38.6094 5.78812 38.6002V42.3202H3.58812L3.57812 33.4102ZM5.79812 34.8602V37.2802H6.55812C7.13897 37.3595 7.73009 37.2546 8.24812 36.9802C8.38808 36.8763 8.50108 36.7403 8.57764 36.5837C8.6542 36.4271 8.69209 36.2544 8.68812 36.0802C8.69871 35.8313 8.62132 35.5867 8.46955 35.3892C8.31778 35.1917 8.10131 35.054 7.85812 35.0002C7.44233 34.9013 7.01533 34.8576 6.58812 34.8702L5.79812 34.8602Z" fill="#636363"/>
<path d="M19.3125 33.4297H25.6925L25.4025 34.8897H21.5725V36.9997H24.7725V38.4597H21.6025V40.8397H25.8325V42.3797H19.3125V33.4297Z" fill="#636363"/>
<path d="M33.9978 33.4297H36.2878V40.6097C36.3417 41.1985 36.2841 41.7922 36.1178 42.3597C35.8735 42.8858 35.5107 43.3482 35.0579 43.7108C34.6051 44.0734 34.0746 44.3262 33.5078 44.4497L32.5078 43.5197C33.0266 43.2818 33.4746 42.9131 33.8078 42.4497C34.0134 41.9255 34.0789 41.3569 33.9978 40.7997V33.4297Z" fill="#636363"/>
<path d="M52.1462 34.0591L51.0862 35.3391C50.2832 34.9069 49.3881 34.6738 48.4762 34.6591C47.5562 34.6591 46.9162 35.0791 46.9162 35.6591C46.9162 36.2391 47.2163 36.3491 48.1562 36.5491L49.5062 36.8491C51.3462 37.2491 52.3362 38.1791 52.3362 39.4991C52.3362 41.3091 50.5062 42.4991 47.7162 42.4991C46.4044 42.4912 45.1079 42.2156 43.9062 41.6891L44.7362 40.2891C45.7006 40.7439 46.7503 40.9893 47.8162 41.0091C49.1062 41.0091 49.8162 40.5791 49.8162 39.7891C49.8162 39.2091 49.3562 38.7891 48.3562 38.6291L47.1162 38.3591C46.2692 38.2625 45.4851 37.865 44.9062 37.2391C44.6043 36.8498 44.4391 36.3718 44.4362 35.8791C44.4362 34.2491 46.0862 33.1191 48.4362 33.1191C49.7321 33.1174 51.0076 33.4406 52.1462 34.0591Z" fill="#636363"/>
<path d="M60.4766 33.4297H66.8566L66.5666 34.8897H62.7266V36.9997H65.9366V38.4597H62.7566V40.8397H66.9966V42.3797H60.4766V33.4297Z" fill="#636363"/>
<path d="M75 33.3998H77.94C78.9969 33.2984 80.0627 33.4492 81.05 33.8398C81.5233 34.0126 81.9319 34.3271 82.22 34.7405C82.5081 35.1538 82.6618 35.646 82.66 36.1498C82.6568 36.7334 82.4681 37.3008 82.1212 37.77C81.7742 38.2392 81.287 38.5859 80.73 38.7598C80.0118 39.0124 79.2493 39.1145 78.49 39.0598H77.25V42.3398H75V33.3998ZM77.25 34.8498V37.5998H78.43C79.35 37.5998 79.62 37.5098 79.92 37.1298C80.127 36.8622 80.2268 36.5271 80.2 36.1898C80.2 35.3498 79.63 34.8498 78.69 34.8498H77.25Z" fill="#636363"/>
<path d="M90.7197 33.4297H92.9997V40.8497H96.9997L96.5897 42.3397H90.6797L90.7197 33.4297Z" fill="#636363"/>
<path d="M107.389 33.4004H109.819L113.349 42.3404H110.939L110.149 40.2304H106.859L106.069 42.3404H103.719L107.389 33.4004ZM107.389 38.7404H109.579L108.509 35.3604C108.509 35.3604 107.649 38.1504 107.409 38.7404H107.389Z" fill="#636363"/>
<path d="M120.68 33.4297H123.17L125.32 36.9897C125.8 37.7956 126.208 38.6422 126.54 39.5197C126.46 38.8297 126.38 37.6897 126.36 37.0697L126.31 33.4297H128.46V42.3397H126.11L124.19 38.9297C123.638 37.979 123.134 37.0011 122.68 35.9997C122.76 36.7397 122.77 37.7897 122.79 38.5297L122.85 42.3397H120.68V33.4297Z" fill="#636363"/>
<path d="M137.109 33.4297H143.479L143.189 34.8897H139.359V36.9997H142.559V38.4597H139.389V40.8397H143.629V42.3797H137.109V33.4297Z" fill="#636363"/>
<path d="M151.633 33.4297H154.133L156.273 36.9897C156.757 37.7934 157.165 38.6404 157.493 39.5197C157.413 38.8297 157.333 37.6897 157.323 37.0697V33.4297H159.463V42.3397H157.113L155.193 38.9297C154.583 37.8097 153.893 36.5597 153.683 35.9997C153.763 36.7397 153.773 37.7897 153.793 38.5297L153.863 42.3397H151.683L151.633 33.4297Z" fill="#636363"/>
<path d="M38.6 16.429C38.1369 15.2574 37.8994 14.0088 37.9 12.749C37.9009 11.5403 38.1176 10.3415 38.54 9.20898H3.61C2.65257 9.20898 1.73435 9.58932 1.05735 10.2663C0.38034 10.9433 0 11.8616 0 12.819C0 13.7764 0.38034 14.6946 1.05735 15.3716C1.73435 16.0486 2.65257 16.429 3.61 16.429H38.61H38.6Z" fill="#EBBD00"/>
<path d="M48.0981 16.9994C48.9354 16.9935 49.7522 16.7398 50.4455 16.2703C51.1388 15.8008 51.6776 15.1366 51.9939 14.3613C52.3102 13.5861 52.3899 12.7345 52.223 11.914C52.056 11.0935 51.6498 10.3408 51.0557 9.75084C50.4615 9.16087 49.706 8.76002 48.8843 8.59884C48.0627 8.43765 47.2117 8.52335 46.4387 8.84513C45.6657 9.16691 45.0052 9.71036 44.5407 10.407C44.0761 11.1036 43.8281 11.9221 43.8281 12.7594C43.8334 13.8875 44.2859 14.9674 45.0864 15.7623C45.8869 16.5572 46.97 17.0021 48.0981 16.9994Z" fill="#E30613"/>
<path d="M159.387 9.18953H59.8072C59.1458 7.02058 57.8949 5.07798 56.1941 3.57839C54.4932 2.07879 52.4092 1.08115 50.1745 0.69672C47.9398 0.312292 45.6422 0.556192 43.538 1.40122C41.4338 2.24624 39.6057 3.65918 38.2576 5.48244C36.9094 7.3057 36.0943 9.46761 35.903 11.7271C35.7117 13.9865 36.1519 16.2547 37.1743 18.2787C38.1968 20.3026 39.7613 22.0027 41.6936 23.1894C43.6258 24.3762 45.8496 25.0028 48.1172 24.9995C50.7299 24.9959 53.2732 24.1576 55.3761 22.607C57.4789 21.0564 59.0315 18.8745 59.8072 16.3795H159.387C160.345 16.3795 161.263 15.9992 161.94 15.3222C162.617 14.6452 162.997 13.727 162.997 12.7695C162.997 11.8121 162.617 10.8939 161.94 10.2169C161.263 9.53986 160.345 9.15953 159.387 9.15953V9.18953ZM53.9272 18.5995C52.5818 19.9437 50.812 20.7799 48.9193 20.9655C47.0266 21.151 45.1281 20.6746 43.5473 19.6173C41.9665 18.56 40.8012 16.9872 40.25 15.167C39.6988 13.3469 39.7958 11.3919 40.5245 9.63522C41.2531 7.87855 42.5684 6.42889 44.2461 5.53327C45.9238 4.63764 47.8602 4.35147 49.7252 4.72351C51.5903 5.09555 53.2686 6.10278 54.4743 7.57357C55.6799 9.04437 56.3383 10.8877 56.3372 12.7895C56.3404 13.8693 56.129 14.939 55.7153 15.9364C55.3015 16.9338 54.6937 17.839 53.9272 18.5995Z" fill="#0E307A"/>
</svg>
