<svg width="109" height="109" viewBox="0 0 109 109" fill="none" xmlns="http://www.w3.org/2000/svg">
<g clip-path="url(#clip0_921_115)">
<rect width="109" height="109" fill="url(#paint0_radial_921_115)"/>
<path d="M84 18L119 62L129.5 82L94.5 123L17 114L84 18Z" fill="#8A8A8A"/>
<path d="M84 18L119 62L129.5 82L94.5 123L17 114L84 18Z" fill="#8A8A8A"/>
<path d="M84 18L119 62L129.5 82L94.5 123L17 114L84 18Z" fill="#8A8A8A"/>
<path d="M83.9979 18L113.43 55L113.004 55.8683C111.737 58.4556 108.083 58.5497 106.684 56.0312L105.547 53.9846C104.064 51.3149 100 52.3679 100 55.4219C100 58.8291 95.1896 59.5382 94.2065 56.276L93.4959 53.9181C92.4614 50.4854 87.4746 50.8983 87.0187 54.4543L86.7239 56.7539C86.5818 57.8619 85.9616 58.8521 85.0266 59.4634L79.4965 63.0792C76.6543 64.9376 72.8375 63.29 72.2405 59.947C71.6486 56.632 67.8841 54.9757 65.0402 56.779L50.4979 66L83.9979 18Z" fill="white"/>
<g filter="url(#filter0_f_921_115)">
<rect x="2" y="-7" width="37" height="37" rx="18.5" fill="#FFCC00"/>
</g>
<path d="M69 2L104 46L114.5 66V111.5L79.5 107L2 98L69 2Z" fill="#494949"/>
<path d="M68.9979 2L98.4297 39L98.0042 39.8683C96.7366 42.4556 93.0832 42.5497 91.684 40.0312L90.547 37.9846C89.0638 35.3149 85 36.3679 85 39.4219C85 42.8291 80.1896 43.5382 79.2065 40.276L78.4959 37.9181C77.4614 34.4854 72.4746 34.8983 72.0187 38.4543L71.7239 40.7539C71.5818 41.8619 70.9616 42.8521 70.0266 43.4634L64.4965 47.0792C61.6543 48.9376 57.8375 47.29 57.2405 43.947C56.6486 40.632 52.8841 38.9757 50.0402 40.779L35.4979 50L68.9979 2Z" fill="white"/>
<path d="M48 16L83 60L108 101.5L58.5 121L-19 112L48 16Z" fill="url(#paint1_radial_921_115)"/>
<path d="M47.9979 16L77.4297 53L77.0042 53.8683C75.7366 56.4556 72.0832 56.5497 70.684 54.0312L69.547 51.9846C68.0638 49.3149 64 50.3679 64 53.4219C64 56.8291 59.1896 57.5382 58.2065 54.276L57.4959 51.9181C56.4614 48.4854 51.4746 48.8983 51.0187 52.4543L50.7239 54.7539C50.5818 55.8619 49.9616 56.8521 49.0266 57.4634L43.4965 61.0792C40.6543 62.9376 36.8375 61.29 36.2405 57.947C35.6486 54.632 31.8841 52.9757 29.0402 54.779L14.4979 64L47.9979 16Z" fill="white"/>
<path d="M28.5 13L-6.5 57L-17 77L18 118L95.5 109L28.5 13Z" fill="url(#paint2_linear_921_115)"/>
<path d="M28.5021 13L-0.929688 50L-0.504236 50.8683C0.76338 53.4556 4.41684 53.5497 5.81601 51.0312L6.95302 48.9846C8.43619 46.3149 12.5 47.3679 12.5 50.4219C12.5 53.8291 17.3104 54.5382 18.2935 51.276L19.0041 48.9181C20.0386 45.4854 25.0254 45.8983 25.4813 49.4543L25.7761 51.7539C25.9182 52.8619 26.5384 53.8521 27.4734 54.4634L33.0035 58.0792C35.8457 59.9376 39.6625 58.29 40.2595 54.947C40.8514 51.632 44.6159 49.9757 47.4598 51.779L62.0021 61L28.5021 13Z" fill="white"/>
<g filter="url(#filter1_d_921_115)">
<path fill-rule="evenodd" clip-rule="evenodd" d="M110 77H0V110H4.14178C4.04834 109.347 4 108.679 4 108V96C4 88.268 10.268 82 18 82C25.732 82 32 88.268 32 96V108C32 108.679 31.9517 109.347 31.8582 110H39.1418C39.0483 109.347 39 108.679 39 108V96C39 88.268 45.268 82 53 82C60.732 82 67 88.268 67 96V108C67 108.679 66.9517 109.347 66.8582 110H74.1418C74.0483 109.347 74 108.679 74 108V96C74 88.268 80.268 82 88 82C95.732 82 102 88.268 102 96V108C102 108.679 101.952 109.347 101.858 110H110V77Z" fill="url(#paint3_radial_921_115)"/>
</g>
<g filter="url(#filter2_d_921_115)">
<rect y="70" width="110" height="7" fill="url(#paint4_linear_921_115)"/>
</g>
<g clip-path="url(#clip1_921_115)">
<rect x="18" y="16" width="109" height="76" fill="url(#paint5_linear_921_115)"/>
<path d="M24 26H56.019C59.4443 26 61.8555 29.3664 60.7529 32.6095L56.333 45.6095C55.6438 47.6367 53.7403 49 51.5991 49H24V26Z" fill="black"/>
<path d="M93.0726 32.6095C94.1752 29.3664 91.7641 26 88.3387 26H71.7212C69.58 26 67.6765 27.3633 66.9873 29.3905L62.5675 42.3905C61.4649 45.6336 63.876 49 67.3013 49H83.9189C86.06 49 87.9635 47.6367 88.6527 45.6095L93.0726 32.6095Z" fill="black"/>
<path d="M126.073 32.6095C127.175 29.3664 124.764 26 121.339 26H104.721C102.58 26 100.677 27.3633 99.9873 29.3905L95.5675 42.3905C94.4649 45.6336 96.876 49 100.301 49H116.919C119.06 49 120.964 47.6367 121.653 45.6095L126.073 32.6095Z" fill="black"/>
<path d="M26 58.7816C26 57.2454 27.2454 56 28.7816 56H30.5895C31.9208 56 33 57.0792 33 58.4105V58.4105C33 59.3748 32.4253 60.2463 31.539 60.6261L29.8773 61.3383C28.0418 62.1249 26 60.7786 26 58.7816V58.7816Z" fill="black"/>
<rect x="43" y="57" width="77" height="5" fill="url(#paint6_linear_921_115)"/>
</g>
</g>
<defs>
<filter id="filter0_f_921_115" x="-30.7" y="-39.7" width="102.4" height="102.4" filterUnits="userSpaceOnUse" color-interpolation-filters="sRGB">
<feFlood flood-opacity="0" result="BackgroundImageFix"/>
<feBlend mode="normal" in="SourceGraphic" in2="BackgroundImageFix" result="shape"/>
<feGaussianBlur stdDeviation="16.35" result="effect1_foregroundBlur_921_115"/>
</filter>
<filter id="filter1_d_921_115" x="-4" y="77" width="118" height="41" filterUnits="userSpaceOnUse" color-interpolation-filters="sRGB">
<feFlood flood-opacity="0" result="BackgroundImageFix"/>
<feColorMatrix in="SourceAlpha" type="matrix" values="0 0 0 0 0 0 0 0 0 0 0 0 0 0 0 0 0 0 127 0" result="hardAlpha"/>
<feOffset dy="4"/>
<feGaussianBlur stdDeviation="2"/>
<feComposite in2="hardAlpha" operator="out"/>
<feColorMatrix type="matrix" values="0 0 0 0 0 0 0 0 0 0 0 0 0 0 0 0 0 0 0.25 0"/>
<feBlend mode="normal" in2="BackgroundImageFix" result="effect1_dropShadow_921_115"/>
<feBlend mode="normal" in="SourceGraphic" in2="effect1_dropShadow_921_115" result="shape"/>
</filter>
<filter id="filter2_d_921_115" x="-110" y="-40" width="330" height="227" filterUnits="userSpaceOnUse" color-interpolation-filters="sRGB">
<feFlood flood-opacity="0" result="BackgroundImageFix"/>
<feColorMatrix in="SourceAlpha" type="matrix" values="0 0 0 0 0 0 0 0 0 0 0 0 0 0 0 0 0 0 127 0" result="hardAlpha"/>
<feMorphology radius="10" operator="dilate" in="SourceAlpha" result="effect1_dropShadow_921_115"/>
<feOffset/>
<feGaussianBlur stdDeviation="50"/>
<feComposite in2="hardAlpha" operator="out"/>
<feColorMatrix type="matrix" values="0 0 0 0 0 0 0 0 0 0 0 0 0 0 0 0 0 0 1 0"/>
<feBlend mode="normal" in2="BackgroundImageFix" result="effect1_dropShadow_921_115"/>
<feBlend mode="normal" in="SourceGraphic" in2="effect1_dropShadow_921_115" result="shape"/>
</filter>
<radialGradient id="paint0_radial_921_115" cx="0" cy="0" r="1" gradientUnits="userSpaceOnUse" gradientTransform="translate(109 100.5) rotate(-140.288) scale(157.294)">
<stop stop-color="#0C355E"/>
<stop offset="1" stop-color="#609CF1"/>
</radialGradient>
<radialGradient id="paint1_radial_921_115" cx="0" cy="0" r="1" gradientUnits="userSpaceOnUse" gradientTransform="translate(44.5 68.5) rotate(-90) scale(52.5 63.5)">
<stop stop-color="#676767"/>
<stop offset="1" stop-color="#414141"/>
</radialGradient>
<linearGradient id="paint2_linear_921_115" x1="39.25" y1="13" x2="39.25" y2="118" gradientUnits="userSpaceOnUse">
<stop stop-color="#8A8A8A"/>
<stop offset="1" stop-color="#242424"/>
</linearGradient>
<radialGradient id="paint3_radial_921_115" cx="0" cy="0" r="1" gradientUnits="userSpaceOnUse" gradientTransform="translate(43.5 103) rotate(-16.3648) scale(68.3961 20.5188)">
<stop stop-color="#845733"/>
<stop offset="1" stop-color="#693D19"/>
</radialGradient>
<linearGradient id="paint4_linear_921_115" x1="65.5" y1="77" x2="65.5" y2="70" gradientUnits="userSpaceOnUse">
<stop stop-color="#5B3E26"/>
<stop offset="1" stop-color="#845733"/>
</linearGradient>
<linearGradient id="paint5_linear_921_115" x1="57.1553" y1="51.5" x2="126.992" y2="49.2604" gradientUnits="userSpaceOnUse">
<stop stop-color="#E33737"/>
<stop offset="1" stop-color="#7E0000"/>
</linearGradient>
<linearGradient id="paint6_linear_921_115" x1="43" y1="59.5" x2="120" y2="59.5" gradientUnits="userSpaceOnUse">
<stop stop-color="white" stop-opacity="0"/>
<stop offset="1" stop-color="#D9D9D9"/>
</linearGradient>
<clipPath id="clip0_921_115">
<rect width="109" height="109" fill="white"/>
</clipPath>
<clipPath id="clip1_921_115">
<path d="M24 63.25C24 37.1545 45.1545 16 71.25 16H109V70H30.75C27.0221 70 24 66.9779 24 63.25V63.25Z" fill="white"/>
</clipPath>
</defs>
</svg>
