<svg xmlns="http://www.w3.org/2000/svg" width="34" height="34" fill="none"><g clip-path="url(#a)"><rect width="34" height="34" fill="#414141" rx="17"/><path fill="#fff" d="M20.333 16.667a1.61 1.61 0 0 1-1.183-.484A1.61 1.61 0 0 1 18.667 15c0-.467.16-.861.483-1.183a1.61 1.61 0 0 1 1.183-.484c.467 0 .861.161 1.184.484.322.322.483.716.483 1.183 0 .467-.161.861-.483 1.183a1.61 1.61 0 0 1-1.184.484Zm-6.666 0a1.61 1.61 0 0 1-1.184-.484A1.61 1.61 0 0 1 12 15c0-.467.161-.861.483-1.183a1.61 1.61 0 0 1 1.184-.484c.466 0 .86.161 1.183.484.322.322.483.716.483 1.183 0 .467-.16.861-.483 1.183a1.61 1.61 0 0 1-1.183.484Zm3.333 7c-1.333 0-2.539-.367-3.617-1.1a6.536 6.536 0 0 1-2.383-2.9h12a6.536 6.536 0 0 1-2.383 2.9c-1.078.733-2.284 1.1-3.617 1.1ZM17 29c-1.667 0-3.228-.317-4.683-.95a12.196 12.196 0 0 1-3.8-2.567 12.196 12.196 0 0 1-2.567-3.8C5.317 20.228 5 18.667 5 17c0-1.667.317-3.228.95-4.683a12.197 12.197 0 0 1 2.567-3.8 12.197 12.197 0 0 1 3.8-2.567C13.772 5.317 15.333 5 17 5c1.667 0 3.228.317 4.683.95a12.196 12.196 0 0 1 3.8 2.567 12.196 12.196 0 0 1 2.567 3.8c.633 1.455.95 3.016.95 4.683 0 1.667-.317 3.228-.95 4.683a12.195 12.195 0 0 1-2.567 3.8 12.195 12.195 0 0 1-3.8 2.567c-1.455.633-3.016.95-4.683.95Zm0-2.667c2.578 0 4.778-.91 6.6-2.733 1.822-1.822 2.733-4.022 2.733-6.6 0-2.578-.91-4.778-2.733-6.6-1.822-1.822-4.022-2.733-6.6-2.733h-.4c-.133 0-.267.022-.4.066a1.004 1.004 0 0 0-.267.434 1.814 1.814 0 0 0-.066.5c0 .466.16.86.483 1.183a1.61 1.61 0 0 0 1.183.483c.2 0 .384-.033.55-.1.167-.066.34-.1.517-.1.267 0 .489.1.667.3.177.2.266.434.266.7 0 .511-.239.84-.716.984-.478.144-.906.216-1.284.216-1 0-1.86-.36-2.583-1.083-.722-.722-1.083-1.583-1.083-2.583v-.2c0-.067.01-.156.033-.267a9.432 9.432 0 0 0-4.5 3.367C8.244 13.144 7.667 14.956 7.667 17c0 2.578.91 4.778 2.733 6.6 1.822 1.822 4.022 2.733 6.6 2.733Z"/></g><defs><clipPath id="a"><path fill="#fff" d="M0 0h34v34H0z"/></clipPath></defs></svg>