<svg xmlns="http://www.w3.org/2000/svg" width="34" height="34" fill="none"><g clip-path="url(#a)"><rect width="34" height="34" fill="#414141" rx="17"/><path fill="#fff" d="M26.573 21.657c.335.172.63.134.886-.114s.296-.534.118-.857L25.864 17.6l-1.241 3.086 1.95.971Zm-5.91-1.086h1.419l2.836-6.8c.06-.152.044-.28-.044-.385a.94.94 0 0 0-.31-.243l-2.364-.914a.62.62 0 0 0-.517.057.605.605 0 0 0-.31.4l-.71 7.885Zm-8.745 0h1.418l-.709-7.885c-.04-.21-.143-.353-.31-.429a.694.694 0 0 0-.517-.028l-2.364.914a.657.657 0 0 0-.34.243c-.068.105-.073.233-.014.385l2.836 6.8Zm-4.49 1.086 1.95-.971L8.135 17.6l-1.713 3.086c-.178.323-.138.61.118.857.256.248.551.286.886.114Zm8.272-1.086h2.6l.886-9.657a.442.442 0 0 0-.133-.443.636.636 0 0 0-.457-.185h-3.191c-.158 0-.3.062-.429.185a.507.507 0 0 0-.162.443l.886 9.657ZM6.895 24c-.827 0-1.516-.3-2.068-.9A3.04 3.04 0 0 1 4 20.971c0-.228.034-.452.103-.671.07-.219.153-.433.252-.643l2.6-4.8a3.08 3.08 0 0 1 .03-2.257 2.721 2.721 0 0 1 1.565-1.571l2.364-.915c.275-.095.551-.162.827-.2.276-.038.551-.028.827.029a3.887 3.887 0 0 1 1.152-1.386A2.723 2.723 0 0 1 15.404 8h3.192c.63 0 1.191.186 1.683.557.493.372.877.833 1.153 1.386.276-.038.551-.043.827-.014.276.028.552.09.827.185l2.364.915c.788.304 1.34.828 1.655 1.571a2.535 2.535 0 0 1-.06 2.2l2.6 4.8A2.721 2.721 0 0 1 30 20.971c0 .858-.3 1.577-.901 2.158-.6.58-1.345.871-2.23.871a3.02 3.02 0 0 1-.65-.071 3.46 3.46 0 0 1-.65-.215l-1.833-.857H10.204l-1.654.857a2.222 2.222 0 0 1-.813.243 8.449 8.449 0 0 1-.842.043Z"/></g><defs><clipPath id="a"><path fill="#fff" d="M0 0h34v34H0z"/></clipPath></defs></svg>