<svg xmlns="http://www.w3.org/2000/svg" width="68" height="34" fill="none"><g clip-path="url(#a)"><rect width="68" height="34" fill="#414141" rx="17"/><path fill="#fff" d="M8.498 27v-2.85h5.19V9.75l-4.95.9V8.07L14.918 6h1.95v18.15h5.58V27H8.498Zm18.198 2.7 10.38-25.5h3.24l-10.41 25.5h-3.21ZM44.594 27v-2.52c2.06-1.64 3.86-3.15 5.4-4.53 1.56-1.38 2.78-2.71 3.66-3.99.88-1.28 1.32-2.58 1.32-3.9 0-1.1-.31-1.96-.93-2.58-.62-.64-1.46-.96-2.52-.96-1.22 0-2.16.39-2.82 1.17-.66.76-.99 1.67-.99 2.73h-3.09c.02-1.48.33-2.72.93-3.72.6-1 1.41-1.76 2.43-2.28 1.04-.52 2.22-.78 3.54-.78 2.14 0 3.79.58 4.95 1.74 1.16 1.14 1.74 2.67 1.74 4.59 0 1.22-.27 2.4-.81 3.54-.52 1.12-1.21 2.19-2.07 3.21a26.33 26.33 0 0 1-2.88 2.91c-1.04.92-2.09 1.8-3.15 2.64h9.48V27h-14.19Z"/></g><defs><clipPath id="a"><path fill="#fff" d="M0 0h68v34H0z"/></clipPath></defs></svg>