<svg xmlns="http://www.w3.org/2000/svg" width="34" height="34" fill="none"><g clip-path="url(#a)"><rect width="34" height="34" fill="#414141" rx="17"/><path fill="#fff" d="M24 13c.283 0 .52-.096.712-.287A.968.968 0 0 0 25 12a.968.968 0 0 0-.288-.713A.968.968 0 0 0 24 11a.968.968 0 0 0-.712.287A.968.968 0 0 0 23 12c0 .283.096.52.288.713.191.191.429.287.712.287Zm0 2c-.85 0-1.563-.287-2.137-.863C21.288 13.563 21 12.85 21 12c0-.833.288-1.542.863-2.125S23.15 9 24 9c.833 0 1.542.292 2.125.875S27 11.167 27 12c0 .85-.292 1.563-.875 2.137-.583.575-1.292.863-2.125.863Zm-7-3c.417 0 .77-.142 1.063-.425.291-.283.437-.642.437-1.075 0-.417-.146-.77-.438-1.063A1.447 1.447 0 0 0 17 9c-.433 0-.792.146-1.075.438A1.468 1.468 0 0 0 15.5 10.5c0 .433.142.792.425 1.075.283.283.642.425 1.075.425Zm0 2c-.983 0-1.813-.338-2.488-1.012-.675-.675-1.012-1.505-1.012-2.488 0-.967.338-1.792 1.012-2.475C15.188 7.342 16.017 7 17 7c.967 0 1.792.342 2.475 1.025A3.372 3.372 0 0 1 20.5 10.5c0 .983-.342 1.813-1.025 2.488A3.393 3.393 0 0 1 17 14Zm-4 4.375c0 .5.267 1.083.8 1.75S15.4 21.85 17 23.3c1.567-1.417 2.625-2.458 3.175-3.125.55-.667.825-1.267.825-1.8 0-.383-.125-.708-.375-.975s-.558-.4-.925-.4c-.233 0-.454.05-.662.15-.209.1-.38.242-.513.425L17.325 19h-.675l-1.2-1.425a1.34 1.34 0 0 0-.512-.425c-.209-.1-.421-.15-.638-.15-.383 0-.696.133-.938.4a1.4 1.4 0 0 0-.362.975Zm-2 0c0-.883.3-1.667.9-2.35.6-.683 1.4-1.025 2.4-1.025.517 0 1.012.117 1.487.35.475.233.88.55 1.213.95.333-.4.733-.717 1.2-.95.467-.233.967-.35 1.5-.35 1 0 1.8.346 2.4 1.038.6.691.9 1.47.9 2.337 0 .883-.32 1.754-.962 2.613-.642.858-1.955 2.195-3.938 4.012L17 26l-1.1-1c-2.017-1.833-3.338-3.175-3.963-4.025-.624-.85-.937-1.717-.937-2.6ZM10 13c.283 0 .52-.096.713-.287A.968.968 0 0 0 11 12a.968.968 0 0 0-.287-.713A.968.968 0 0 0 10 11a.967.967 0 0 0-.713.287A.968.968 0 0 0 9 12c0 .283.096.52.287.713.192.191.43.287.713.287Zm7.075 14v-2H25v-7h-2.95v-2H25c.55 0 1.02.196 1.413.587.391.392.587.863.587 1.413v9h-9.925ZM9 25h8.075v2H7v-9c0-.55.192-1.02.575-1.413A1.914 1.914 0 0 1 9 16h2.95v2H9v7Zm1-10c-.85 0-1.563-.287-2.138-.863C7.287 13.563 7 12.85 7 12c0-.833.287-1.542.862-2.125S9.15 9 10 9c.833 0 1.542.292 2.125.875S13 11.167 13 12c0 .85-.292 1.563-.875 2.137-.583.575-1.292.863-2.125.863Z"/></g><defs><clipPath id="a"><path fill="#fff" d="M0 0h34v34H0z"/></clipPath></defs></svg>