<svg width="73" height="34" viewBox="0 0 73 34" fill="none" xmlns="http://www.w3.org/2000/svg">
<rect x="39" width="34" height="34" rx="17" fill="#414141"/>
<rect width="34" height="34" rx="17" fill="#414141"/>
<path d="M10.1059 27V24.48C12.1659 22.84 13.9659 21.33 15.5059 19.95C17.0659 18.57 18.2859 17.24 19.1659 15.96C20.0459 14.68 20.4859 13.38 20.4859 12.06C20.4859 10.96 20.1759 10.1 19.5559 9.48C18.9359 8.84 18.0959 8.52 17.0359 8.52C15.8159 8.52 14.8759 8.91 14.2159 9.69C13.5559 10.45 13.2259 11.36 13.2259 12.42H10.1359C10.1559 10.94 10.4659 9.7 11.0659 8.7C11.6659 7.7 12.4759 6.94 13.4959 6.42C14.5359 5.9 15.7159 5.64 17.0359 5.64C19.1759 5.64 20.8259 6.22 21.9859 7.38C23.1459 8.52 23.7259 10.05 23.7259 11.97C23.7259 13.19 23.4559 14.37 22.9159 15.51C22.3959 16.63 21.7059 17.7 20.8459 18.72C19.9859 19.74 19.0259 20.71 17.9659 21.63C16.9259 22.55 15.8759 23.43 14.8159 24.27H24.2959V27H10.1059Z" fill="white"/>
<path d="M46.3773 27L45.1486 25.7706L57.4351 13.4766C57.006 12.5399 56.9085 11.569 57.1425 10.564C57.3766 9.55904 57.9324 8.61748 58.81 7.73933C59.6876 6.8807 60.7505 6.32942 61.9986 6.08549C63.2467 5.84156 64.2706 6.11964 65.0702 6.91973C65.8893 7.73933 66.1672 8.76383 65.9039 9.99324C65.6407 11.2226 65.0507 12.3057 64.1341 13.2424C63.3345 14.062 62.4423 14.5986 61.4574 14.8523C60.4725 15.106 59.5511 15.0475 58.693 14.6767L56.733 16.6379L65.8601 25.7706L64.6314 27L55.5043 17.8673L46.3773 27ZM50.0339 16.7257L46.5528 13.2424C45.5582 12.2471 45.0413 11.0665 45.0023 9.70052C44.9633 8.33452 45.4119 7.12463 46.348 6.07085L53.5151 13.2424L50.0339 16.7257Z" fill="white"/>
</svg>
