<svg xmlns="http://www.w3.org/2000/svg" width="73" height="34" fill="none"><rect width="34" height="34" x="39" fill="#414141" rx="17"/><rect width="34" height="34" fill="#414141" rx="17"/><path fill="#fff" d="M10.986 27v-2.85h5.19V9.75l-4.95.9V8.07L17.406 6h1.95v18.15h5.58V27h-13.95ZM46.377 27l-1.228-1.23 12.286-12.293a4.41 4.41 0 0 1-.293-2.913c.235-1.005.79-1.947 1.668-2.825.878-.858 1.94-1.41 3.189-1.654 1.248-.243 2.272.035 3.071.835.82.82 1.097 1.844.834 3.073-.263 1.23-.853 2.313-1.77 3.25-.8.819-1.692 1.356-2.677 1.61-.985.253-1.906.194-2.764-.176l-1.96 1.96 9.127 9.134L64.631 27l-9.127-9.133L46.377 27Zm3.657-10.274-3.481-3.484c-.995-.995-1.512-2.176-1.55-3.541-.04-1.366.409-2.576 1.345-3.63l7.167 7.171-3.481 3.484Z"/></svg>