<svg xmlns="http://www.w3.org/2000/svg" width="34" height="34" fill="none"><g clip-path="url(#a)"><rect width="34" height="34" fill="#414141" rx="17"/><path fill="#fff" d="M17.706 9.84c-.7 0-1.29-.22-1.77-.66-.46-.46-.69-1.02-.69-1.68 0-.66.23-1.21.69-1.65.48-.44 1.07-.66 1.77-.66.72 0 1.31.22 1.77.66.48.44.72.99.72 1.65 0 .66-.24 1.22-.72 1.68-.46.44-1.05.66-1.77.66ZM11.736 27v-2.76h4.68v-8.37c0-.66-.32-.99-.96-.99h-3.3v-2.76h3.87c1.24 0 2.14.29 2.7.87.58.56.87 1.46.87 2.7v8.55h4.68V27h-12.54Z"/></g><defs><clipPath id="a"><path fill="#fff" d="M0 0h34v34H0z"/></clipPath></defs></svg>