<svg width="34" height="34" viewBox="0 0 34 34" fill="none" xmlns="http://www.w3.org/2000/svg">
<g clip-path="url(#clip0_136_12)">
<rect width="34" height="34" rx="17" fill="#414141"/>
<path d="M17.7059 9.84C17.0059 9.84 16.4159 9.62 15.9359 9.18C15.4759 8.72 15.2459 8.16 15.2459 7.5C15.2459 6.84 15.4759 6.29 15.9359 5.85C16.4159 5.41 17.0059 5.19 17.7059 5.19C18.4259 5.19 19.0159 5.41 19.4759 5.85C19.9559 6.29 20.1959 6.84 20.1959 7.5C20.1959 8.16 19.9559 8.72 19.4759 9.18C19.0159 9.62 18.4259 9.84 17.7059 9.84ZM11.7359 27V24.24H16.4159V15.87C16.4159 15.21 16.0959 14.88 15.4559 14.88H12.1559V12.12H16.0259C17.2659 12.12 18.1659 12.41 18.7259 12.99C19.3059 13.55 19.5959 14.45 19.5959 15.69V24.24H24.2759V27H11.7359Z" fill="white"/>
</g>
<defs>
<clipPath id="clip0_136_12">
<rect width="34" height="34" fill="white"/>
</clipPath>
</defs>
</svg>
