<svg xmlns="http://www.w3.org/2000/svg" width="68" height="34" fill="none"><g clip-path="url(#a)"><rect width="68" height="34" fill="#414141" rx="17"/><path fill="#fff" d="M24.283 16.068a1.19 1.19 0 0 0-.917-.357l-4.143.23 2.28-2.596c.325-.37.418-.863.292-1.304a1.183 1.183 0 0 0-.53-.752l-5.45-3.167a1.188 1.188 0 0 0-1.388.14l-2.658 2.371a1.188 1.188 0 1 0 1.582 1.774l2.015-1.798 1.666.968-2.94 3.349a6.058 6.058 0 0 0-3.178 1.57l1.536 1.536a3.892 3.892 0 0 1 2.626-1.016 3.911 3.911 0 0 1 3.907 3.907c0 1.01-.386 1.931-1.017 2.626l1.536 1.535a6.053 6.053 0 0 0 1.65-4.161c0-.96-.223-1.867-.619-2.674l1.604-.09-.39 4.786a1.188 1.188 0 0 0 2.369.192l.5-6.143a1.188 1.188 0 0 0-.333-.926ZM22.083 10.978a1.989 1.989 0 1 0 0-3.978 1.989 1.989 0 0 0 0 3.978ZM15.077 24.83a3.911 3.911 0 0 1-3.907-3.906c0-.812.249-1.567.675-2.192l-1.553-1.552a6.077 6.077 0 0 0 8.529 8.529l-1.552-1.553a3.885 3.885 0 0 1-2.192.675ZM38.265 27c-1.744 0-3.224-.594-4.44-1.781C32.608 24.03 32 22.594 32 20.906c0-1.687.614-3.12 1.842-4.297 1.228-1.177 2.713-1.765 4.455-1.765 1.528 0 2.869.474 4.02 1.422 1.152.948 1.846 2.15 2.083 3.609h1.647l-2.648-7.25h-2.357V10.75h6.07v1.875h-1.679l.84 2.219h7.169l-2.293-5.969h-3.39V7h3.196c.517 0 .953.115 1.308.344.355.229.619.573.791 1.031l2.454 6.469h1.227c1.734 0 3.211.586 4.433 1.757C62.389 17.773 63 19.19 63 20.851c0 1.683-.606 3.128-1.817 4.337C59.973 26.395 58.49 27 56.735 27c-1.541 0-2.895-.5-4.062-1.5-1.167-1-1.88-2.25-2.138-3.75H44.4c-.237 1.5-.931 2.75-2.083 3.75-1.151 1-2.502 1.5-4.052 1.5Zm0-1.875c1.033 0 1.932-.323 2.696-.969a4.676 4.676 0 0 0 1.534-2.406h-3.843v-1.875h3.843a4.165 4.165 0 0 0-1.55-2.281 4.288 4.288 0 0 0-2.648-.875c-1.206 0-2.234.406-3.084 1.218-.85.813-1.276 1.803-1.276 2.97 0 1.171.42 2.167 1.26 2.988.84.82 1.862 1.23 3.068 1.23Zm9.849-5.25h2.454c.086-.48.253-1.01.5-1.594a5.273 5.273 0 0 1 1.017-1.562h-5.134l1.163 3.156Zm8.621 5.25c1.206 0 2.229-.41 3.068-1.23.84-.82 1.26-1.817 1.26-2.989 0-1.166-.42-2.156-1.26-2.968-.84-.813-1.862-1.22-3.068-1.22h-.516l1.26 3.532-1.81.594-1.388-3.5a3.374 3.374 0 0 0-1.404 1.5 4.678 4.678 0 0 0-.469 2.062c0 1.172.42 2.168 1.26 2.989.84.82 1.862 1.23 3.067 1.23Z"/></g><defs><clipPath id="a"><path fill="#fff" d="M0 0h68v34H0z"/></clipPath></defs></svg>