<svg xmlns="http://www.w3.org/2000/svg" width="34" height="34" fill="none"><g clip-path="url(#a)"><rect width="34" height="34" fill="#414141" rx="17"/><path fill="#fff" d="M24.283 16.068a1.19 1.19 0 0 0-.917-.357l-4.143.23 2.28-2.596c.325-.37.418-.863.292-1.304a1.183 1.183 0 0 0-.53-.752l-5.45-3.167a1.188 1.188 0 0 0-1.388.14l-2.658 2.371a1.188 1.188 0 1 0 1.582 1.774l2.015-1.798 1.666.968-2.94 3.349a6.058 6.058 0 0 0-3.178 1.57l1.536 1.536a3.892 3.892 0 0 1 2.626-1.016 3.911 3.911 0 0 1 3.907 3.907c0 1.01-.386 1.931-1.017 2.626l1.536 1.535a6.053 6.053 0 0 0 1.65-4.161c0-.96-.223-1.867-.619-2.674l1.604-.09-.39 4.786a1.188 1.188 0 0 0 2.369.192l.5-6.143a1.188 1.188 0 0 0-.333-.926ZM22.083 10.978a1.989 1.989 0 1 0 0-3.978 1.989 1.989 0 0 0 0 3.978ZM15.077 24.83a3.911 3.911 0 0 1-3.907-3.906c0-.812.249-1.567.675-2.192l-1.553-1.552a6.077 6.077 0 0 0 8.529 8.529l-1.552-1.553a3.885 3.885 0 0 1-2.192.675Z"/></g><defs><clipPath id="a"><path fill="#fff" d="M0 0h34v34H0z"/></clipPath></defs></svg>