<svg xmlns="http://www.w3.org/2000/svg" width="34" height="34" fill="none"><g clip-path="url(#a)"><rect width="34" height="34" fill="#414141" rx="17"/><path fill="#fff" d="M8.658 26c-1.575 0-2.911-.534-4.01-1.603C3.549 23.328 3 22.034 3 20.516c0-1.52.555-2.808 1.664-3.868 1.109-1.059 2.45-1.589 4.024-1.589 1.38 0 2.59.427 3.63 1.28 1.041.853 1.668 1.936 1.882 3.248h1.488l-2.392-6.524h-2.13v-1.688h5.484v1.688h-1.517l.759 1.996h6.475l-2.071-5.371h-3.063V8h2.888c.466 0 .86.103 1.181.31.32.206.56.515.715.928l2.216 5.821h1.109c1.565 0 2.9.528 4.003 1.582C30.448 17.695 31 18.971 31 20.467c0 1.514-.547 2.814-1.64 3.902C28.264 25.456 26.925 26 25.341 26c-1.393 0-2.616-.45-3.67-1.35-1.053-.9-1.697-2.025-1.93-3.375H14.2c-.214 1.35-.841 2.475-1.881 3.375-1.04.9-2.26 1.35-3.66 1.35Zm0-1.688c.934 0 1.745-.29 2.436-.871a4.208 4.208 0 0 0 1.385-2.166H9.01v-1.688h3.47a3.748 3.748 0 0 0-1.4-2.053 3.882 3.882 0 0 0-2.392-.787c-1.088 0-2.017.366-2.785 1.097-.768.731-1.152 1.622-1.152 2.672 0 1.054.38 1.95 1.138 2.69.758.737 1.681 1.107 2.77 1.107Zm8.896-4.725h2.217a6.79 6.79 0 0 1 .452-1.434c.224-.525.53-.994.919-1.406h-4.638l1.05 2.84Zm7.788 4.726c1.089 0 2.012-.37 2.77-1.108.759-.738 1.138-1.635 1.138-2.69 0-1.05-.38-1.94-1.137-2.671-.759-.732-1.682-1.097-2.771-1.097h-.467l1.137 3.178-1.633.534-1.254-3.15a3.041 3.041 0 0 0-1.269 1.35 4.198 4.198 0 0 0-.423 1.857c0 1.054.38 1.95 1.138 2.69.758.737 1.682 1.107 2.77 1.107Z"/></g><defs><clipPath id="a"><path fill="#fff" d="M0 0h34v34H0z"/></clipPath></defs></svg>