<svg xmlns="http://www.w3.org/2000/svg" width="34" height="34" fill="none"><g clip-path="url(#a)"><path fill="#414141" fill-rule="evenodd" d="M34 17c0 9.383-7.617 17-17 17S0 26.383 0 17 7.617 0 17 0s17 7.617 17 17Z" clip-rule="evenodd"/><path fill="#fff" d="M10.34 15.593a5.133 5.133 0 1 0 0-10.265 5.133 5.133 0 0 0 0 10.265ZM22.393 21.897a6.4 6.4 0 1 0 0-12.801 6.4 6.4 0 0 0 0 12.801ZM15.838 28.672a3.428 3.428 0 1 0 0-6.856 3.428 3.428 0 0 0 0 6.856Z"/></g><defs><clipPath id="a"><path fill="#fff" d="M0 0h34v34H0z"/></clipPath></defs></svg>