<svg xmlns="http://www.w3.org/2000/svg" width="34" height="34" fill="none"><g clip-path="url(#a)"><rect width="34" height="34" fill="#414141" rx="17"/><path fill="#fff" d="M11.17 16.44a.714.714 0 0 0-.55-.214l-2.486.138 1.368-1.558a.836.836 0 0 0 .175-.782.71.71 0 0 0-.318-.451l-3.27-1.9a.713.713 0 0 0-.833.084L3.662 13.18a.713.713 0 1 0 .949 1.064l1.209-1.079 1 .58-1.765 2.01c-.732.12-1.39.457-1.907.943l.922.92c.416-.378.97-.609 1.575-.609a2.347 2.347 0 0 1 2.344 2.344c0 .606-.23 1.16-.61 1.576l.922.921c.614-.652.99-1.53.99-2.497 0-.576-.133-1.12-.371-1.604l.962-.054-.234 2.871a.713.713 0 0 0 1.421.116l.3-3.686a.713.713 0 0 0-.2-.556ZM9.85 13.387a1.193 1.193 0 1 0 0-2.387 1.193 1.193 0 0 0 0 2.387ZM5.646 21.698a2.347 2.347 0 0 1-2.344-2.344c0-.487.15-.94.405-1.315l-.932-.932a3.646 3.646 0 0 0 5.117 5.117l-.93-.93a2.33 2.33 0 0 1-1.316.404ZM15.96 22l-1.44-10.5h1.546l.87 7.635 1.29-7.635h1.56l1.29 7.635.87-7.635h1.545L22.05 22h-1.845l-1.2-7.425-1.2 7.425H15.96Zm12.07.18c-.88 0-1.63-.225-2.25-.675-.61-.45-1.08-1.08-1.41-1.89-.32-.82-.48-1.77-.48-2.85 0-1.09.16-2.04.48-2.85.33-.82.805-1.455 1.425-1.905.62-.46 1.365-.69 2.235-.69 1.13 0 2.03.31 2.7.93.67.61 1.06 1.44 1.17 2.49h-1.755c-.09-.55-.315-1.005-.675-1.365-.35-.37-.835-.555-1.455-.555-.79 0-1.405.35-1.845 1.05-.44.7-.66 1.665-.66 2.895 0 1.22.22 2.18.66 2.88.44.69 1.055 1.035 1.845 1.035.64 0 1.13-.165 1.47-.495.34-.34.56-.785.66-1.335H31.9c-.16 1.03-.565 1.845-1.215 2.445-.65.59-1.535.885-2.655.885Z"/></g><defs><clipPath id="a"><path fill="#fff" d="M0 0h34v34H0z"/></clipPath></defs></svg>