<svg xmlns="http://www.w3.org/2000/svg" width="34" height="34" fill="none"><g clip-path="url(#a)"><rect width="34" height="34" fill="#414141" rx="17"/><path fill="#fff" d="m25.4 26.8-3.025-3.025a8.306 8.306 0 0 1-1.325.688 9.48 9.48 0 0 1-1.45.462v-2.05c.233-.083.462-.167.688-.25.224-.083.437-.183.637-.3L17.6 19v5.2l-5-5h-4v-6h3.2L7 8.4 8.4 7l18.4 18.4-1.4 1.4Zm-.2-5.8-1.45-1.45a6.796 6.796 0 0 0 .637-1.625c.142-.567.213-1.15.213-1.75 0-1.567-.458-2.967-1.375-4.2S21.1 9.908 19.6 9.475v-2.05c2.067.467 3.75 1.513 5.05 3.138 1.3 1.624 1.95 3.495 1.95 5.612 0 .883-.12 1.733-.363 2.55A8.803 8.803 0 0 1 25.2 21Zm-3.35-3.35L19.6 15.4v-3.25a4.152 4.152 0 0 1 1.837 1.65c.442.733.663 1.533.663 2.4a4.33 4.33 0 0 1-.25 1.45ZM17.6 13.4 15 10.8l2.6-2.6v5.2Zm-2 5.95V17l-1.8-1.8h-3.2v2h2.85l2.15 2.15Z"/></g><defs><clipPath id="a"><path fill="#fff" d="M0 0h34v34H0z"/></clipPath></defs></svg>