<svg width="24" height="24" viewBox="0 0 24 24" fill="none" xmlns="http://www.w3.org/2000/svg">
<rect x="0.5" y="2.5" width="21" height="21" rx="2.5" fill="url(#paint0_radial_839_156)" stroke="white"/>
<path d="M7.70588 14.674C7.50426 14.674 7.33241 14.6018 7.19035 14.4576C7.04843 14.3132 6.97747 14.1385 6.97747 13.9336C6.97747 13.7287 7.04843 13.554 7.19035 13.4096C7.33241 13.2652 7.50426 13.193 7.70588 13.193C7.90751 13.193 8.07935 13.2652 8.22141 13.4096C8.36333 13.554 8.43429 13.7287 8.43429 13.9336C8.43429 14.1385 8.36333 14.3132 8.22141 14.4576C8.07935 14.6018 7.90751 14.674 7.70588 14.674ZM11 14.674C10.7984 14.674 10.6265 14.6018 10.4845 14.4576C10.3425 14.3132 10.2716 14.1385 10.2716 13.9336C10.2716 13.7287 10.3425 13.554 10.4845 13.4096C10.6265 13.2652 10.7984 13.193 11 13.193C11.2016 13.193 11.3735 13.2652 11.5155 13.4096C11.6575 13.554 11.7284 13.7287 11.7284 13.9336C11.7284 14.1385 11.6575 14.3132 11.5155 14.4576C11.3735 14.6018 11.2016 14.674 11 14.674ZM14.2941 14.674C14.0925 14.674 13.9206 14.6018 13.7786 14.4576C13.6367 14.3132 13.5657 14.1385 13.5657 13.9336C13.5657 13.7287 13.6367 13.554 13.7786 13.4096C13.9206 13.2652 14.0925 13.193 14.2941 13.193C14.4957 13.193 14.6676 13.2652 14.8096 13.4096C14.9516 13.554 15.0225 13.7287 15.0225 13.9336C15.0225 14.1385 14.9516 14.3132 14.8096 14.4576C14.6676 14.6018 14.4957 14.674 14.2941 14.674ZM5.48874 21C5.07272 21 4.72059 20.8535 4.43235 20.5606C4.14412 20.2676 4 19.9097 4 19.4869V8.28366C4 7.86082 4.14412 7.50292 4.43235 7.20996C4.72059 6.917 5.07272 6.77052 5.48874 6.77052H6.62891V5H7.89591V6.77052H14.1358V5H15.3711V6.77052H16.5113C16.9273 6.77052 17.2794 6.917 17.5676 7.20996C17.8559 7.50292 18 7.86082 18 8.28366V19.4869C18 19.9097 17.8559 20.2676 17.5676 20.5606C17.2794 20.8535 16.9273 21 16.5113 21H5.48874ZM5.48874 19.7445H16.5113C16.5747 19.7445 16.6327 19.7176 16.6854 19.6639C16.7383 19.6103 16.7647 19.5513 16.7647 19.4869V11.6318H5.23529V19.4869C5.23529 19.5513 5.26172 19.6103 5.31456 19.6639C5.36726 19.7176 5.42532 19.7445 5.48874 19.7445ZM5.23529 10.3762H16.7647V8.28366C16.7647 8.21921 16.7383 8.1602 16.6854 8.10663C16.6327 8.05292 16.5747 8.02607 16.5113 8.02607H5.48874C5.42532 8.02607 5.36726 8.05292 5.31456 8.10663C5.26172 8.1602 5.23529 8.21921 5.23529 8.28366V10.3762Z" fill="white"/>
<defs>
<radialGradient id="paint0_radial_839_156" cx="0" cy="0" r="1" gradientUnits="userSpaceOnUse" gradientTransform="translate(11 3.5) rotate(90) scale(20.5)">
<stop stop-color="#121212"/>
<stop offset="1" stop-color="#402F04"/>
</radialGradient>
</defs>
</svg>
