<svg width="478" height="518" viewBox="0 0 478 518" fill="none" xmlns="http://www.w3.org/2000/svg">
<path fill-rule="evenodd" clip-rule="evenodd" d="M187.002 0C41.889 0 0 52.5361 0 92.6401V353.998C0 389.265 28.6573 417.888 64.0449 417.888H219.213C216.459 406.543 215 394.692 215 382.5C215 317.744 256.171 262.604 313.765 241.829H201.244V142.719H314.684V241.501C330.266 235.996 347.033 233 364.5 233C367.691 233 370.859 233.1 374 233.297V92.6401C374 52.5361 332.119 0 187.002 0ZM225.233 436.969H92.3996V437.606H81.7352L19.0816 517.112H65.247L79.1085 496.823H268.159C261.142 490.903 254.677 484.349 248.853 477.249H92.4866L106.634 456.543H234.594C231.021 450.288 227.887 443.749 225.233 436.969ZM119.222 57.5945H254.775C263.778 57.5945 271.09 64.8813 271.09 73.8641C271.09 82.8711 263.778 90.1499 254.775 90.1499H119.222C110.218 90.1499 102.915 82.8711 102.915 73.8641C102.914 64.8813 110.217 57.5945 119.222 57.5945ZM90.032 362.26C78.795 362.26 69.6873 353.173 69.6873 341.962C69.6873 330.75 78.795 321.664 90.032 321.664C101.269 321.664 110.377 330.75 110.377 341.962C110.376 353.173 101.269 362.26 90.032 362.26ZM172.76 241.829H64.1564V142.719H172.76V241.829Z" fill="white"/>
<rect x="454.96" y="292" width="32" height="219" rx="16" transform="rotate(45 454.96 292)" fill="white"/>
<rect x="345.359" y="446.856" width="32" height="117" rx="16" transform="rotate(135 345.359 446.856)" fill="white"/>
</svg>
