<svg width="24" height="24" viewBox="0 0 24 24" fill="none" xmlns="http://www.w3.org/2000/svg">
<rect x="0.5" y="2.5" width="21" height="21" rx="2.5" fill="#121212" stroke="white"/>
<rect x="18" width="6" height="6" rx="3" fill="#0CA724"/>
<path d="M5.75 19C4.6875 19 3.79688 18.6406 3.07813 17.9219C2.35938 17.2031 2 16.3125 2 15.25C2 14.1875 2.36563 13.2969 3.09688 12.5781C3.82813 11.8594 4.7125 11.5 5.75 11.5C6.7125 11.5 7.52188 11.7875 8.17813 12.3625C8.83438 12.9375 9.25 13.65 9.425 14.5H9.9125L8.5625 10.75H7.25V9.25H11V10.75H10.175L10.4375 11.5H14.0375L12.95 8.5H11V7H12.95C13.275 7 13.5656 7.0875 13.8219 7.2625C14.0781 7.4375 14.2625 7.675 14.375 7.975L15.65 11.4625H16.25C17.2875 11.4625 18.1719 11.8281 18.9031 12.5594C19.6344 13.2906 20 14.175 20 15.2125C20 16.2625 19.6375 17.1563 18.9125 17.8938C18.1875 18.6313 17.3 19 16.25 19C15.35 19 14.5594 18.7188 13.8781 18.1563C13.1969 17.5938 12.7625 16.875 12.575 16H9.425C9.25 16.8625 8.825 17.5781 8.15 18.1469C7.475 18.7156 6.675 19 5.75 19ZM5.75 17.5C6.2625 17.5 6.70313 17.3594 7.07188 17.0781C7.44063 16.7969 7.7 16.4375 7.85 16H5.75V14.5H7.85C7.7 14.05 7.44063 13.6875 7.07188 13.4125C6.70313 13.1375 6.2625 13 5.75 13C5.1125 13 4.57813 13.2156 4.14688 13.6469C3.71563 14.0781 3.5 14.6125 3.5 15.25C3.5 15.875 3.71563 16.4063 4.14688 16.8438C4.57813 17.2813 5.1125 17.5 5.75 17.5ZM11.525 14.5H12.575C12.6375 14.2125 12.7219 13.9438 12.8281 13.6938C12.9344 13.4438 13.075 13.2125 13.25 13H10.9625L11.525 14.5ZM16.25 17.5C16.8875 17.5 17.4219 17.2813 17.8531 16.8438C18.2844 16.4063 18.5 15.875 18.5 15.25C18.5 14.6125 18.2844 14.0781 17.8531 13.6469C17.4219 13.2156 16.8875 13 16.25 13H16.175L16.925 14.9875L15.5 15.5125L14.7875 13.525C14.5375 13.7375 14.3438 13.9875 14.2063 14.275C14.0688 14.5625 14 14.8875 14 15.25C14 15.875 14.2156 16.4063 14.6469 16.8438C15.0781 17.2813 15.6125 17.5 16.25 17.5Z" fill="#E8EAED"/>
</svg>
