<svg width="24" height="24" viewBox="0 0 24 24" fill="none" xmlns="http://www.w3.org/2000/svg">
<rect x="0.5" y="2.5" width="21" height="21" rx="2.5" fill="#121212" stroke="white"/>
<path d="M4.52446 10.6028V5.8824C4.52446 5.8137 4.5478 5.7573 4.5945 5.71321C4.64133 5.66911 4.70105 5.64706 4.77365 5.64706H17.5362C17.6089 5.64706 17.6687 5.66911 17.7154 5.71321C17.762 5.7573 17.7854 5.8137 17.7854 5.8824V20.1176C17.7854 20.1863 17.762 20.2427 17.7154 20.2868C17.6687 20.3309 17.6089 20.3529 17.5362 20.3529H4.77365C4.70105 20.3529 4.64133 20.3309 4.5945 20.2868C4.5478 20.2427 4.52446 20.1863 4.52446 20.1176V15.3972H3.30985V20.1176C3.30985 20.4989 3.4529 20.8247 3.73901 21.0949C4.02498 21.365 4.36986 21.5 4.77365 21.5H17.5362C17.94 21.5 18.2849 21.365 18.571 21.0949C18.857 20.8247 19 20.4989 19 20.1176V5.8824C19 5.50106 18.857 5.1753 18.571 4.9051C18.2849 4.63503 17.94 4.5 17.5362 4.5H4.77365C4.36986 4.5 4.02498 4.63503 3.73901 4.9051C3.4529 5.1753 3.30985 5.50106 3.30985 5.8824V10.6028H4.52446Z" fill="white"/>
<path d="M13.0816 12.715C12.8833 12.715 12.7153 12.6403 12.5777 12.4909C12.44 12.3416 12.3711 12.1588 12.3711 11.9426C12.3711 11.7262 12.4395 11.5429 12.5764 11.3927C12.7132 11.2425 12.8808 11.1674 13.0791 11.1674C13.2774 11.1674 13.4453 11.2421 13.583 11.3915C13.7208 11.5408 13.7896 11.7235 13.7896 11.9398C13.7896 12.1561 13.7211 12.3394 13.5842 12.4896C13.4473 12.6399 13.2798 12.715 13.0816 12.715ZM9.92085 12.715C9.72264 12.715 9.55467 12.6403 9.41696 12.4909C9.27924 12.3416 9.21038 12.1588 9.21038 11.9426C9.21038 11.7262 9.27886 11.5429 9.41582 11.3927C9.55268 11.2425 9.72021 11.1674 9.91843 11.1674C10.1168 11.1674 10.2847 11.2421 10.4223 11.3915C10.56 11.5408 10.6289 11.7235 10.6289 11.9398C10.6289 12.1561 10.5605 12.3394 10.4236 12.4896C10.2868 12.6399 10.1192 12.715 9.92085 12.715ZM11.5 16.2578C10.9152 16.2578 10.383 16.0898 9.90354 15.7536C9.42407 15.4174 9.05617 14.9701 8.79982 14.4118H14.2002C13.9438 14.9701 13.5759 15.4174 13.0965 15.7536C12.617 16.0898 12.0848 16.2578 11.5 16.2578ZM11.5003 19C10.7369 19 10.0217 18.8425 9.35484 18.5276C8.68783 18.2126 8.10628 17.7846 7.61021 17.2434C7.11413 16.7022 6.72174 16.068 6.43304 15.3407C6.14435 14.6133 6 13.8332 6 13.0004C6 12.1675 6.14435 11.3874 6.43304 10.6598C6.72174 9.93218 7.11413 9.29776 7.61021 8.75659C8.10628 8.21541 8.68767 7.78735 9.35435 7.47241C10.0211 7.15747 10.7363 7 11.4997 7C12.2631 7 12.9783 7.15747 13.6452 7.47241C14.3122 7.78735 14.8937 8.21541 15.3898 8.75659C15.8859 9.29776 16.2783 9.932 16.567 10.6593C16.8557 11.3867 17 12.1668 17 12.9996C17 13.8325 16.8557 14.6126 16.567 15.3402C16.2783 16.0678 15.8859 16.7022 15.3898 17.2434C14.8937 17.7846 14.3123 18.2126 13.6456 18.5276C12.9789 18.8425 12.2637 19 11.5003 19ZM11.5 17.9412C12.751 17.9412 13.8186 17.4588 14.7029 16.4941C15.5873 15.5294 16.0294 14.3647 16.0294 13C16.0294 11.6353 15.5873 10.4706 14.7029 9.50588C13.8186 8.54118 12.751 8.05882 11.5 8.05882C11.409 8.05882 11.318 8.06106 11.2271 8.06553C11.1361 8.07012 11.0479 8.08418 10.9625 8.10771C10.9144 8.18735 10.8837 8.26382 10.8704 8.33712C10.8571 8.41041 10.8505 8.49412 10.8505 8.58824C10.8505 8.86247 10.9391 9.09618 11.1161 9.28935C11.2932 9.48253 11.5081 9.57912 11.7608 9.57912C11.8689 9.57912 11.9604 9.56147 12.0351 9.52618C12.1097 9.49088 12.1902 9.47324 12.2765 9.47324C12.3774 9.47324 12.4615 9.51547 12.5288 9.59994C12.5962 9.68429 12.6299 9.78271 12.6299 9.89518C12.6299 10.1107 12.5305 10.2522 12.3318 10.3196C12.1331 10.3871 11.9422 10.4209 11.7588 10.4209C11.2984 10.4209 10.9034 10.241 10.5736 9.88124C10.2438 9.52147 10.0789 9.09047 10.0789 8.58824V8.46329C10.0789 8.42424 10.0864 8.37224 10.1014 8.30729C9.18558 8.63306 8.43483 9.21924 7.84913 10.0658C7.26344 10.9124 6.97059 11.8905 6.97059 13C6.97059 14.3647 7.41275 15.5294 8.29706 16.4941C9.18137 17.4588 10.249 17.9412 11.5 17.9412Z" fill="white"/>
</svg>
