<svg width="16" height="19" viewBox="0 0 16 19" fill="none" xmlns="http://www.w3.org/2000/svg">
<path d="M1.6155 19C1.15517 19 0.770833 18.8459 0.4625 18.5375C0.154167 18.2292 0 17.8449 0 17.3845V4.61554C0 4.1552 0.154167 3.77087 0.4625 3.46254C0.770833 3.1542 1.15517 3.00004 1.6155 3.00004H3.3845V1.30779C3.3845 1.15262 3.4355 1.02404 3.5375 0.922037C3.6395 0.820203 3.768 0.769287 3.923 0.769287C4.07817 0.769287 4.20675 0.820203 4.30875 0.922037C4.41058 1.02404 4.4615 1.15262 4.4615 1.30779V3.00004H11.6155V1.26929C11.6155 1.12695 11.6632 1.00804 11.7587 0.912537C11.8542 0.817037 11.9732 0.769287 12.1155 0.769287C12.2577 0.769287 12.3765 0.817037 12.472 0.912537C12.5677 1.00804 12.6155 1.12695 12.6155 1.26929V3.00004H14.3845C14.8448 3.00004 15.2292 3.1542 15.5375 3.46254C15.8458 3.77087 16 4.1552 16 4.61554V17.3845C16 17.8449 15.8458 18.2292 15.5375 18.5375C15.2292 18.8459 14.8448 19 14.3845 19H1.6155ZM1.6155 18H14.3845C14.5385 18 14.6796 17.936 14.8078 17.8078C14.9359 17.6796 15 17.5385 15 17.3845V8.61554H1V17.3845C1 17.5385 1.06408 17.6796 1.19225 17.8078C1.32042 17.936 1.4615 18 1.6155 18ZM8 12.1538C7.79367 12.1538 7.61383 12.0772 7.4605 11.924C7.30733 11.7709 7.23075 11.591 7.23075 11.3845C7.23075 11.1782 7.30733 10.9985 7.4605 10.8453C7.61383 10.6921 7.79367 10.6155 8 10.6155C8.20633 10.6155 8.38617 10.6921 8.5395 10.8453C8.69267 10.9985 8.76925 11.1782 8.76925 11.3845C8.76925 11.591 8.69267 11.7709 8.5395 11.924C8.38617 12.0772 8.20633 12.1538 8 12.1538ZM4 12.1538C3.79367 12.1538 3.61383 12.0772 3.4605 11.924C3.30733 11.7709 3.23075 11.591 3.23075 11.3845C3.23075 11.1782 3.30733 10.9985 3.4605 10.8453C3.61383 10.6921 3.79367 10.6155 4 10.6155C4.20633 10.6155 4.38617 10.6921 4.5395 10.8453C4.69267 10.9985 4.76925 11.1782 4.76925 11.3845C4.76925 11.591 4.69267 11.7709 4.5395 11.924C4.38617 12.0772 4.20633 12.1538 4 12.1538ZM12 12.1538C11.7937 12.1538 11.6138 12.0772 11.4605 11.924C11.3073 11.7709 11.2307 11.591 11.2307 11.3845C11.2307 11.1782 11.3073 10.9985 11.4605 10.8453C11.6138 10.6921 11.7937 10.6155 12 10.6155C12.2063 10.6155 12.3862 10.6921 12.5395 10.8453C12.6927 10.9985 12.7693 11.1782 12.7693 11.3845C12.7693 11.591 12.6927 11.7709 12.5395 11.924C12.3862 12.0772 12.2063 12.1538 12 12.1538ZM8 16C7.79367 16 7.61383 15.9235 7.4605 15.7703C7.30733 15.6171 7.23075 15.4373 7.23075 15.2308C7.23075 15.0245 7.30733 14.8446 7.4605 14.6913C7.61383 14.5381 7.79367 14.4615 8 14.4615C8.20633 14.4615 8.38617 14.5381 8.5395 14.6913C8.69267 14.8446 8.76925 15.0245 8.76925 15.2308C8.76925 15.4373 8.69267 15.6171 8.5395 15.7703C8.38617 15.9235 8.20633 16 8 16ZM4 16C3.79367 16 3.61383 15.9235 3.4605 15.7703C3.30733 15.6171 3.23075 15.4373 3.23075 15.2308C3.23075 15.0245 3.30733 14.8446 3.4605 14.6913C3.61383 14.5381 3.79367 14.4615 4 14.4615C4.20633 14.4615 4.38617 14.5381 4.5395 14.6913C4.69267 14.8446 4.76925 15.0245 4.76925 15.2308C4.76925 15.4373 4.69267 15.6171 4.5395 15.7703C4.38617 15.9235 4.20633 16 4 16ZM12 16C11.7937 16 11.6138 15.9235 11.4605 15.7703C11.3073 15.6171 11.2307 15.4373 11.2307 15.2308C11.2307 15.0245 11.3073 14.8446 11.4605 14.6913C11.6138 14.5381 11.7937 14.4615 12 14.4615C12.2063 14.4615 12.3862 14.5381 12.5395 14.6913C12.6927 14.8446 12.7693 15.0245 12.7693 15.2308C12.7693 15.4373 12.6927 15.6171 12.5395 15.7703C12.3862 15.9235 12.2063 16 12 16Z" fill="white"/>
</svg>
