<?xml version="1.0" encoding="UTF-8" standalone="no"?>
<svg
   height="24px"
   viewBox="0 -960 960 960"
   width="24px"
   fill="#fff"
   version="1.1"
   id="svg1"
   sodipodi:docname="chartadd.svg"
   inkscape:version="1.3 (0e150ed6c4, 2023-07-21)"
   xmlns:inkscape="http://www.inkscape.org/namespaces/inkscape"
   xmlns:sodipodi="http://sodipodi.sourceforge.net/DTD/sodipodi-0.dtd"
   xmlns="http://www.w3.org/2000/svg"
   xmlns:svg="http://www.w3.org/2000/svg">
  <defs
     id="defs1" />
  <sodipodi:namedview
     id="namedview1"
     pagecolor="#ffffff"
     bordercolor="#000000"
     borderopacity="0.25"
     inkscape:showpageshadow="2"
     inkscape:pageopacity="0.0"
     inkscape:pagecheckerboard="0"
     inkscape:deskcolor="#d1d1d1"
     inkscape:zoom="32.375"
     inkscape:cx="11.984556"
     inkscape:cy="12"
     inkscape:window-width="1920"
     inkscape:window-height="991"
     inkscape:window-x="-9"
     inkscape:window-y="-9"
     inkscape:window-maximized="1"
     inkscape:current-layer="svg1" />
  <path
     d="m 278.77048,-236.37065 q -21.96431,0 -37.18206,-15.21777 -15.21777,-15.21775 -15.21777,-37.18206 v -387.96593 q 0,-21.96431 15.21777,-37.18207 15.21775,-15.21776 37.18206,-15.21776 H 544.103 v 43.47932 H 278.77048 q -3.90589,0 -6.4132,2.50731 -2.50731,2.5073 -2.50731,6.4132 v 387.96593 q 0,3.90589 2.50731,6.4132 2.50731,2.50731 6.4132,2.50731 h 387.96593 q 3.9059,0 6.4132,-2.50731 2.50731,-2.50731 2.50731,-6.4132 V -554.103 h 43.47932 v 265.33252 q 0,21.96431 -15.21776,37.18206 -15.21776,15.21777 -37.18207,15.21777 z m 59.64637,-108.6983 h 43.47208 v -188.41037 h -43.47208 z m 112.59694,0 h 43.47932 v -275.36899 h -43.47932 z m 112.59693,0 h 43.47932 v -101.45173 h -43.47932 z m 68.56688,-239.13624 v -57.97241 h -57.97241 v -43.47932 h 57.97241 v -57.97243 h 43.47932 v 57.97243 h 57.97243 v 43.47932 h -57.97243 v 57.97241 z m -159.42415,101.45174 z"
     id="path1"
     style="stroke-width:0.724655" />
</svg>
