<svg xmlns="http://www.w3.org/2000/svg" xml:space="preserve" width="384" height="384" class="iconic-clock"><path d="M192 0C85.961 0 0 85.961 0 192s85.961 192 192 192 192-85.961 192-192S298.039 0 192 0zm123.037 315.037a175.339 175.339 0 0 1-30.864 24.609l-14.976-25.939-10.396 6 14.989 25.964c-23.156 12.363-48.947 19.312-75.792 20.216V336h-12v29.887c-26.845-.903-52.636-7.854-75.793-20.217l14.989-25.963-10.393-6-14.976 25.938c-11.055-6.931-21.41-15.154-30.864-24.608s-17.679-19.809-24.61-30.864l25.939-14.976-6-10.396-25.961 14.99C25.966 250.637 19.017 224.846 18.113 198H48v-12H18.113c.904-26.844 7.853-52.634 20.216-75.791l25.96 14.988 6.004-10.395-25.939-14.975c6.931-11.055 15.156-21.41 24.61-30.864s19.809-17.679 30.864-24.61l14.976 25.939 10.395-6-14.991-25.962C133.365 25.966 159.155 19.017 186 18.113V48h12V18.113c26.846.904 52.635 7.853 75.792 20.216l-14.991 25.965 10.395 6 14.978-25.942a175.357 175.357 0 0 1 30.865 24.611 175.28 175.28 0 0 1 24.608 30.863l-25.94 14.976 6 10.396 25.965-14.99c12.363 23.157 19.312 48.948 20.218 75.792H336v12h29.887c-.904 26.845-7.853 52.636-20.216 75.792l-25.964-14.989-6.002 10.396 25.941 14.978a175.468 175.468 0 0 1-24.609 30.86z" class="iconic-clock-frame"/><path id="foo" fill="none" stroke="#000" stroke-miterlimit="10" stroke-width="18" d="M192 192V87.5" class="iconic-clock-hour-hand"/><path id="iconic-anim-clock-minute-hand" fill="none" stroke="#000" stroke-miterlimit="10" stroke-width="12" d="M192 192V54" class="iconic-clock-minute-hand"/><circle cx="192" cy="192" r="9" class="iconic-clock-axis"/><g id="iconic-anim-clock-second-hand" class="iconic-clock-second-hand"><path fill="none" stroke="#D53A1F" stroke-miterlimit="10" stroke-width="4" d="M192 192V28.5" class="iconic-clock-second-hand-arm"/><circle cx="192" cy="192" r="4.5" fill="#D53A1F" class="iconic-clock-second-hand-axis"/></g><script type="text/javascript"><![CDATA[
      var date = new Date;
      var seconds = date.getSeconds();
      var minutes = date.getMinutes();
      var hours = date.getHours();
      hours = (hours > 12) ? hours - 12 : hours;

      minutes = (minutes * 60) + seconds;
      hours = (hours * 3600) + minutes;

      document.querySelector('.iconic-clock-second-hand').setAttribute('transform', 'rotate('+360*(seconds/60)+',192,192)');
      document.querySelector('.iconic-clock-minute-hand').setAttribute('transform', 'rotate('+360*(minutes/3600)+',192,192)');
      document.querySelector('.iconic-clock-hour-hand').setAttribute('transform', 'rotate('+360*(hours/43200)+',192,192)');
  ]]></script></svg>