<svg width="56" height="47" viewBox="0 0 56 47" fill="none" xmlns="http://www.w3.org/2000/svg">
<path d="M27.581 39.509C26.193 39.98 24.431 40.365 22.321 40.365C14.627 40.365 6.325 34.193 6.325 24.222C6.325 15.486 13.655 8.10598 22.332 8.10598C24.382 8.10598 26.116 8.49098 27.482 8.95098L29.516 2.93098C27.2017 2.14853 24.775 1.74993 22.332 1.75098C10.018 1.75098 0 11.831 0 24.221C0 36.627 10.013 46.718 22.32 46.718C25.203 46.718 27.672 46.182 29.649 45.504L27.581 39.509Z" fill="white"/>
<path d="M50.945 0.50708L27.253 24.2101L17.918 15.0021L12.98 20.0491L27.246 34.1891L55.895 5.60908L50.945 0.50708Z" fill="white"/>
</svg>
