<svg width="24" height="24" viewBox="0 0 24 24" fill="none" xmlns="http://www.w3.org/2000/svg">
<rect x="0.5" y="2.5" width="21" height="21" rx="2.5" fill="#121212" stroke="white"/>
<path fill-rule="evenodd" clip-rule="evenodd" d="M14.0526 18.5393V18.5195H7.96963V18.5393H7.62746L5.61719 20.9994H7.09843L7.54318 20.3715H14.4663L14.9109 20.9994H16.3927L14.3823 18.5393H14.0526ZM7.97243 19.7659L8.42637 19.1252H13.5834L14.0373 19.7659H7.97243Z" fill="white"/>
<path fill-rule="evenodd" clip-rule="evenodd" d="M11.0001 5C6.34403 5 5 6.6256 5 7.86652V15.9536C5 17.0449 5.91949 17.9305 7.05492 17.9305H14.9453C16.081 17.9305 17 17.0449 17 15.9536V7.86652C17 6.6256 15.6562 5 11.0001 5ZM8.82531 6.78212H13.1746C13.4635 6.78212 13.698 7.00759 13.698 7.28554C13.698 7.56424 13.4635 7.78946 13.1746 7.78946H8.82531C8.5364 7.78946 8.30209 7.56424 8.30209 7.28554C8.30206 7.00759 8.53637 6.78212 8.82531 6.78212ZM7.88873 16.2092C7.52818 16.2092 7.23596 15.9281 7.23596 15.5812C7.23596 15.2342 7.52818 14.9531 7.88873 14.9531C8.24928 14.9531 8.5415 15.2342 8.5415 15.5812C8.54147 15.9281 8.24928 16.2092 7.88873 16.2092ZM10.5431 12.4828H7.0585V9.4161H10.5431V12.4828ZM14.1117 16.2092C13.7511 16.2092 13.4589 15.9281 13.4589 15.5812C13.4589 15.2342 13.7511 14.9531 14.1117 14.9531C14.4722 14.9531 14.7644 15.2342 14.7644 15.5812C14.7644 15.9281 14.4722 16.2092 14.1117 16.2092ZM15.0968 12.4828H11.457V9.4161H15.0968V12.4828Z" fill="white"/>
<rect x="11" width="13" height="13" rx="6.5" fill="#0CA724"/>
<path d="M19.0411 8.78269L17.5588 10.265C17.0461 10.7777 16.4285 11.034 15.7058 11.034C14.9832 11.034 14.3656 10.7777 13.8529 10.265C13.3403 9.75239 13.084 9.13475 13.084 8.41211C13.084 7.68947 13.3403 7.07183 13.8529 6.55919L15.3353 5.07686L16.0764 5.81803L14.5941 7.30036C14.2853 7.60918 14.1309 7.97976 14.1309 8.41211C14.1309 8.84446 14.2853 9.21504 14.5941 9.52386C14.9029 9.83268 15.2735 9.98709 15.7058 9.98709C16.1382 9.98709 16.5088 9.83268 16.8176 9.52386L18.2999 8.04153L19.0411 8.78269ZM16.447 8.41211L15.7058 7.67094L18.6705 4.70628L19.4117 5.44744L16.447 8.41211ZM19.7823 8.04153L19.0411 7.30036L20.5234 5.81803C20.8322 5.50921 20.9866 5.13862 20.9866 4.70628C20.9866 4.27393 20.8322 3.90335 20.5234 3.59453C20.2146 3.28571 19.844 3.1313 19.4117 3.1313C18.9793 3.1313 18.6087 3.28571 18.2999 3.59453L16.8176 5.07686L16.0764 4.33569L17.5588 2.85336C18.0714 2.34072 18.689 2.0844 19.4117 2.0844C20.1343 2.0844 20.7519 2.34072 21.2646 2.85336C21.7772 3.366 22.0335 3.98364 22.0335 4.70628C22.0335 5.42891 21.7772 6.04655 21.2646 6.55919L19.7823 8.04153Z" fill="white"/>
</svg>
