<svg width="24" height="24" viewBox="0 0 24 24" fill="none" xmlns="http://www.w3.org/2000/svg">
<rect x="0.5" y="2.5" width="21" height="21" rx="2.5" fill="#121212" stroke="white"/>
<path d="M9.20739 20V9.09091H12.233V20H9.20739ZM10.7273 7.68466C10.2775 7.68466 9.89157 7.53551 9.5696 7.23722C9.25237 6.93419 9.09375 6.57197 9.09375 6.15057C9.09375 5.7339 9.25237 5.37642 9.5696 5.07812C9.89157 4.77509 10.2775 4.62358 10.7273 4.62358C11.1771 4.62358 11.5606 4.77509 11.8778 5.07812C12.1998 5.37642 12.3608 5.7339 12.3608 6.15057C12.3608 6.57197 12.1998 6.93419 11.8778 7.23722C11.5606 7.53551 11.1771 7.68466 10.7273 7.68466Z" fill="white"/>
<rect x="18" width="6" height="6" rx="3" fill="#E40404"/>
</svg>
