<svg width="11" height="15" viewBox="0 0 11 15" fill="none" xmlns="http://www.w3.org/2000/svg">
<path d="M0.181108 15.0002V12.7843L5.35866 7.99024C5.79901 7.5641 6.16832 7.18058 6.46662 6.83967C6.76965 6.49876 6.99929 6.16495 7.15554 5.83825C7.31179 5.50681 7.38991 5.14933 7.38991 4.7658C7.38991 4.33967 7.29285 3.97272 7.09872 3.66495C6.90459 3.35245 6.63944 3.11334 6.30327 2.94762C5.96709 2.77717 5.58594 2.69194 5.1598 2.69194C4.71473 2.69194 4.32647 2.7819 3.99503 2.96183C3.66359 3.14175 3.40791 3.3998 3.22798 3.73597C3.04806 4.07215 2.9581 4.47224 2.9581 4.93626H0.0390625C0.0390625 3.98455 0.254498 3.15832 0.685369 2.45756C1.11624 1.75681 1.71993 1.21467 2.49645 0.831143C3.27296 0.447621 4.16785 0.255859 5.18111 0.255859C6.22277 0.255859 7.1295 0.440519 7.90128 0.809837C8.67779 1.17442 9.28149 1.68105 9.71236 2.32972C10.1432 2.9784 10.3587 3.72177 10.3587 4.55984C10.3587 5.10908 10.2498 5.65122 10.032 6.18626C9.81889 6.7213 9.43774 7.31552 8.88849 7.96893C8.33925 8.6176 7.5651 9.39648 6.56605 10.3056L4.44247 12.3865V12.486H10.5504V15.0002H0.181108Z" fill="white"/>
</svg>
