<svg width="24" height="24" viewBox="0 0 24 24" fill="none" xmlns="http://www.w3.org/2000/svg">
<rect x="0.5" y="2.5" width="21" height="21" rx="2.5" fill="#121212" stroke="white"/>
<path d="M4.33333 21H8.33333V15.6667H9.66667V12.3333C9.66667 11.6 9.40556 10.9722 8.88333 10.45C8.36111 9.92778 7.73333 9.66667 7 9.66667H5.66667C4.93333 9.66667 4.30556 9.92778 3.78333 10.45C3.26111 10.9722 3 11.6 3 12.3333V15.6667H4.33333V21ZM6.33333 8.33333C6.8 8.33333 7.19445 8.17222 7.51667 7.85C7.83889 7.52778 8 7.13333 8 6.66667C8 6.2 7.83889 5.80556 7.51667 5.48333C7.19445 5.16111 6.8 5 6.33333 5C5.86667 5 5.47222 5.16111 5.15 5.48333C4.82778 5.80556 4.66667 6.2 4.66667 6.66667C4.66667 7.13333 4.82778 7.52778 5.15 7.85C5.47222 8.17222 5.86667 8.33333 6.33333 8.33333ZM12.3333 11.6667H19L15.6667 6.33333L12.3333 11.6667ZM15.6667 19.6667L19 14.3333H12.3333L15.6667 19.6667Z" fill="white"/>
<rect x="18" width="6" height="6" rx="3" fill="#E40404"/>
</svg>
