<svg width="24" height="24" viewBox="0 0 24 24" fill="none" xmlns="http://www.w3.org/2000/svg">
<rect x="0.5" y="2.49609" width="21" height="21" rx="2.5" fill="#121212" stroke="white"/>
<path d="M6.23077 20.9956H15.3385L21.5 9.83879L22 4.5V2.49948C21.3718 3.13143 22.8974 2.49948 22 2.49948C22 3.40226 22.6282 1.86754 22 2.49948C22 1.5967 22.1282 3.13143 21.5 2.49948H18.5L17.2769 4.74558L11.8923 14.4956H6.23077C5.33333 14.4956 4.57051 14.8115 3.94231 15.4435C3.3141 16.0754 3 16.8428 3 17.7456C3 18.6484 3.3141 19.4157 3.94231 20.0477C4.57051 20.6796 5.33333 20.9956 6.23077 20.9956Z" fill="white"/>
<path d="M9.74231 10.3456C9.42009 10.6678 9.02564 10.8289 8.55897 10.8289C8.09231 10.8289 7.69786 10.6678 7.37564 10.3456C7.05342 10.0234 6.89231 9.62891 6.89231 9.16224C6.89231 8.69558 7.05342 8.30113 7.37564 7.97891C7.69786 7.65669 8.09231 7.49558 8.55897 7.49558C9.02564 7.49558 9.42009 7.65669 9.74231 7.97891C10.0645 8.30113 10.2256 8.69558 10.2256 9.16224C10.2256 9.62891 10.0645 10.0234 9.74231 10.3456Z" fill="white"/>
<path d="M6 13.5C6 12.3954 6.89543 11.5 8 11.5H9C10.1046 11.5 11 12.3954 11 13.5V14H6V13.5Z" fill="white"/>
<rect x="18" y="-0.00390625" width="6" height="6" rx="3" fill="#E40404"/>
</svg>
