<svg width="24" height="24" viewBox="0 0 24 24" fill="none" xmlns="http://www.w3.org/2000/svg">
<rect x="0.5" y="2.5" width="21" height="21" rx="2.5" fill="#121212" stroke="white"/>
<path d="M6.23077 20.9995H15.3385L21.5 9.8427L22 4.50391V2.50339C21.3718 3.13533 22.8974 2.50339 22 2.50339C22 3.40617 22.6282 1.87144 22 2.50339C22 1.60061 22.1282 3.13533 21.5 2.50339H18.5L17.2769 4.74948L11.8923 14.4995H6.23077C5.33333 14.4995 4.57051 14.8155 3.94231 15.4474C3.3141 16.0793 3 16.8467 3 17.7495C3 18.6523 3.3141 19.4196 3.94231 20.0516C4.57051 20.6835 5.33333 20.9995 6.23077 20.9995Z" fill="white"/>
<path d="M4.576 9.135L4.09788 9.9H5H10.5H11.4021L10.924 9.135L8.174 4.735L7.75 4.0566L7.326 4.735L4.576 9.135ZM7.326 16.265L7.75 16.9434L8.174 16.265L10.924 11.865L11.4021 11.1H10.5H5H4.09788L4.576 11.865L7.326 16.265Z" fill="white" stroke="#121212"/>
<rect x="18" width="6" height="6" rx="3" fill="#0CA724"/>
</svg>
