<?xml version="1.0" encoding="UTF-8" standalone="no"?>
<svg
   aria-hidden="true"
   height="24"
   viewBox="0 0 24 24"
   version="1.1"
   width="24"
   data-view-component="true"
   class="octicon octicon-mark-github"
   id="svg1"
   sodipodi:docname="github.svg"
   inkscape:version="1.3 (0e150ed6c4, 2023-07-21)"
   xmlns:inkscape="http://www.inkscape.org/namespaces/inkscape"
   xmlns:sodipodi="http://sodipodi.sourceforge.net/DTD/sodipodi-0.dtd"
   xmlns="http://www.w3.org/2000/svg"
   xmlns:svg="http://www.w3.org/2000/svg">
  <defs
     id="defs1" />
  <sodipodi:namedview
     id="namedview1"
     pagecolor="#ffffff"
     bordercolor="#000000"
     borderopacity="0.25"
     inkscape:showpageshadow="2"
     inkscape:pageopacity="0.0"
     inkscape:pagecheckerboard="0"
     inkscape:deskcolor="#d1d1d1"
     inkscape:zoom="32.375"
     inkscape:cx="11.984556"
     inkscape:cy="12"
     inkscape:window-width="1920"
     inkscape:window-height="991"
     inkscape:window-x="-9"
     inkscape:window-y="-9"
     inkscape:window-maximized="1"
     inkscape:current-layer="svg1" />
  <path
     d="m 12.5,4.5807716 c -4.1839122,0 -7.5723938,3.3884817 -7.5723938,7.5723944 0,3.350949 2.1676801,6.181049 5.1775418,7.183897 0.37862,0.06651 0.520191,-0.160666 0.520191,-0.359524 0,-0.179762 -0.0092,-0.775677 -0.0092,-1.410441 -1.9023178,0.350306 -2.3941942,-0.463562 -2.5456421,-0.888933 -0.085601,-0.217954 -0.4543437,-0.89025 -0.7769935,-1.070012 -0.2647046,-0.14223 -0.6433242,-0.492535 -0.00922,-0.501754 0.5965729,-0.0092 1.0226024,0.549164 1.1648316,0.776336 0.6815155,1.145736 1.769965,0.823086 2.205214,0.624228 0.06585,-0.491876 0.264704,-0.823086 0.482657,-1.012725 -1.6850226,-0.188981 -3.4451103,-0.842182 -3.4451103,-3.738787 0,-0.823087 0.2930187,-1.504602 0.7756765,-2.0346697 -0.075724,-0.1896392 -0.3404285,-0.9659745 0.075724,-2.0070141 0,0 0.6341057,-0.1988576 2.0827378,0.776335 0.605792,-0.1705434 1.249116,-0.2554859 1.893099,-0.2554859 0.643324,0 1.287307,0.085601 1.893098,0.2554859 1.448632,-0.9844112 2.082079,-0.776335 2.082079,-0.776335 0.416811,1.0410396 0.151448,1.8173749 0.07572,2.0070141 0.482658,0.5300677 0.776335,1.2017057 0.776335,2.0346697 0,2.905823 -1.769965,3.549147 -3.454987,3.738787 0.274582,0.237049 0.510972,0.691392 0.510972,1.401221 0,1.012726 -0.0092,1.826594 -0.0092,2.08208 0,0.198858 0.142229,0.435907 0.52019,0.360183 2.992083,-1.003507 5.159105,-3.843484 5.159105,-7.184556 0,-4.1839127 -3.388482,-7.5723944 -7.572395,-7.5723944 z"
     fill="#f0f6fc"
     id="path1"
     style="stroke-width:0.658469;fill:#ffffff" />
</svg>
