<svg width="24" height="24" viewBox="0 0 24 24" fill="none" xmlns="http://www.w3.org/2000/svg">
<rect x="0.5" y="2.5" width="21" height="21" rx="2.5" fill="#121212" stroke="white"/>
<path d="M7.35714 9.57143C6.70238 9.57143 6.14583 9.34921 5.6875 8.90476C5.22917 8.46032 5 7.92064 5 7.28571C5 6.65079 5.22917 6.11111 5.6875 5.66667C6.14583 5.22222 6.70238 5 7.35714 5C7.85476 5 8.30655 5.14286 8.7125 5.42857C9.11845 5.71429 9.4131 6.07937 9.59643 6.52381H16V8.04762H15.2143V9.57143H13.6429V8.04762H9.59643C9.4131 8.49206 9.11845 8.85714 8.7125 9.14286C8.30655 9.42857 7.85476 9.57143 7.35714 9.57143ZM7.35714 8.04762C7.57976 8.04762 7.76637 7.9746 7.91696 7.82857C8.06756 7.68254 8.14286 7.50159 8.14286 7.28571C8.14286 7.06984 8.06756 6.88889 7.91696 6.74286C7.76637 6.59683 7.57976 6.52381 7.35714 6.52381C7.13452 6.52381 6.94792 6.59683 6.79732 6.74286C6.64673 6.88889 6.57143 7.06984 6.57143 7.28571C6.57143 7.50159 6.64673 7.68254 6.79732 7.82857C6.94792 7.9746 7.13452 8.04762 7.35714 8.04762ZM8.14286 17.5714C8.36548 17.5714 8.55208 17.4984 8.70268 17.3524C8.85327 17.2063 8.92857 17.0254 8.92857 16.8095C8.92857 16.5937 8.85327 16.4127 8.70268 16.2667C8.55208 16.1206 8.36548 16.0476 8.14286 16.0476C7.92024 16.0476 7.73363 16.1206 7.58304 16.2667C7.43244 16.4127 7.35714 16.5937 7.35714 16.8095C7.35714 17.0254 7.43244 17.2063 7.58304 17.3524C7.73363 17.4984 7.92024 17.5714 8.14286 17.5714ZM12.8571 17.5714C13.0798 17.5714 13.2664 17.4984 13.417 17.3524C13.5676 17.2063 13.6429 17.0254 13.6429 16.8095C13.6429 16.5937 13.5676 16.4127 13.417 16.2667C13.2664 16.1206 13.0798 16.0476 12.8571 16.0476C12.6345 16.0476 12.4479 16.1206 12.2973 16.2667C12.1467 16.4127 12.0714 16.5937 12.0714 16.8095C12.0714 17.0254 12.1467 17.2063 12.2973 17.3524C12.4479 17.4984 12.6345 17.5714 12.8571 17.5714ZM5 15.3619L6.29643 11.7048C6.3619 11.527 6.46994 11.381 6.62054 11.2667C6.77113 11.1524 6.9381 11.0952 7.12143 11.0952H13.8786C14.0619 11.0952 14.2289 11.1524 14.3795 11.2667C14.5301 11.381 14.6381 11.527 14.7036 11.7048L16 15.3619V20.3905C16 20.5683 15.9411 20.7143 15.8232 20.8286C15.7054 20.9429 15.5548 21 15.3714 21H15.0571C14.8738 21 14.7232 20.9429 14.6054 20.8286C14.4875 20.7143 14.4286 20.5683 14.4286 20.3905V19.4762H6.57143V20.3905C6.57143 20.5683 6.5125 20.7143 6.39464 20.8286C6.27679 20.9429 6.12619 21 5.94286 21H5.62857C5.44524 21 5.29464 20.9429 5.17679 20.8286C5.05893 20.7143 5 20.5683 5 20.3905V15.3619ZM7.08214 14.1429H13.9179L13.3679 12.619H7.63214L7.08214 14.1429ZM6.57143 17.9524H14.4286V15.6667H6.57143V17.9524Z" fill="#E8EAED"/>
<rect x="18" width="6" height="6" rx="3" fill="#0CA724"/>
</svg>
