<svg width="24" height="24" viewBox="0 0 24 24" fill="none" xmlns="http://www.w3.org/2000/svg">
<rect x="0.5" y="2.5" width="21" height="21" rx="2.5" fill="#121212" stroke="white"/>
<path d="M7.21918 9C6.79726 9 6.43607 8.85313 6.13562 8.55938C5.83516 8.26563 5.68493 7.9125 5.68493 7.5C5.68493 7.0875 5.83516 6.73438 6.13562 6.44063C6.43607 6.14687 6.79726 6 7.21918 6C7.6411 6 8.00228 6.14687 8.30274 6.44063C8.6032 6.73438 8.75342 7.0875 8.75342 7.5C8.75342 7.9125 8.6032 8.26563 8.30274 8.55938C8.00228 8.85313 7.6411 9 7.21918 9ZM11.4384 19.5H6.49041C6.06849 19.5 5.68174 19.3531 5.33014 19.0594C4.97854 18.7656 4.75799 18.4125 4.66849 18L3 9.75H4.5726L6.26027 18H11.4384V19.5ZM15.6575 21L13.4329 17.25H8.10137C7.73059 17.25 7.40776 17.1406 7.13288 16.9219C6.85799 16.7031 6.68219 16.4125 6.60548 16.05L5.76164 12.0375C5.621 11.4375 5.76484 10.9063 6.19315 10.4438C6.62146 9.98125 7.14247 9.75 7.75616 9.75C8.20365 9.75 8.60959 9.88125 8.97397 10.1438C9.33836 10.4063 9.57169 10.7625 9.67397 11.2125L10.5178 15H13.011C13.2795 15 13.5288 15.0688 13.7589 15.2063C13.989 15.3438 14.1744 15.525 14.3151 15.75L17 20.25L15.6575 21Z" fill="#E8EAED"/>
<path d="M15 5L18.4641 11H11.5359L15 5Z" fill="#D9D9D9"/>
<path d="M15 13L11.5359 7L18.4641 7L15 13Z" fill="#D9D9D9"/>
<rect x="18" width="6" height="6" rx="3" fill="#0CA724"/>
</svg>
