<svg width="24" height="24" viewBox="0 0 24 24" fill="none" xmlns="http://www.w3.org/2000/svg">
<rect x="0.5" y="2.5" width="21" height="21" rx="2.5" fill="#121212" stroke="white"/>
<path d="M6.34495 20.8853C6.20608 20.8052 6.09998 20.6883 6.02664 20.5347C5.9533 20.3811 5.93956 20.1978 5.98544 19.9847L9.25927 6.21671L11.3115 8.27432L12.8643 7.99004L13.9202 6.16111C14.2166 5.64773 14.6363 5.30823 15.1794 5.14262C15.7225 4.97701 16.237 5.0345 16.7231 5.31511C17.2091 5.59572 17.5162 6.01259 17.6443 6.56571C17.7724 7.11883 17.6882 7.65208 17.3918 8.16546L17.1251 8.6275L15.7364 7.82576L16.0032 7.36372C16.0625 7.26105 16.0778 7.15437 16.0491 7.04369C16.0204 6.93301 15.9598 6.85095 15.8672 6.7975C15.7746 6.74405 15.6733 6.73258 15.5631 6.76308C15.4529 6.79359 15.3681 6.86018 15.3089 6.96285L14.2529 8.79177L14.7831 10.2787L17.5912 11.0271L7.31578 20.7271C7.15418 20.8734 6.98669 20.9564 6.81331 20.9761C6.63993 20.9957 6.48381 20.9655 6.34495 20.8853ZM10.2404 15.7417L14.2397 11.9414L13.5148 11.7539L13.1303 10.7362L10.2404 15.7417ZM8.85175 14.9399L11.7417 9.93447L10.6569 10.1296L10.1258 9.56629L8.85175 14.9399Z" fill="#E8EAED"/>
<rect x="18" width="6" height="6" rx="3" fill="#0CA724"/>
</svg>
