<svg width="24" height="24" viewBox="0 0 24 24" fill="none" xmlns="http://www.w3.org/2000/svg">
<rect x="0.5" y="2.5" width="21" height="21" rx="2.5" fill="#121212" stroke="white"/>
<path d="M6.69565 14.5C6.26522 14.5 5.89674 14.3531 5.59022 14.0594C5.2837 13.7656 5.13043 13.4125 5.13043 13C5.13043 12.5875 5.2837 12.2344 5.59022 11.9406C5.89674 11.6469 6.26522 11.5 6.69565 11.5C7.12609 11.5 7.49457 11.6469 7.80109 11.9406C8.10761 12.2344 8.26087 12.5875 8.26087 13C8.26087 13.4125 8.10761 13.7656 7.80109 14.0594C7.49457 14.3531 7.12609 14.5 6.69565 14.5ZM6.69565 17.5C5.3913 17.5 4.28261 17.0625 3.36957 16.1875C2.45652 15.3125 2 14.25 2 13C2 11.75 2.45652 10.6875 3.36957 9.8125C4.28261 8.9375 5.3913 8.5 6.69565 8.5C7.56957 8.5 8.36196 8.70625 9.07283 9.11875C9.7837 9.53125 10.3478 10.075 10.7652 10.75H17.6522L20 13L16.4783 16.375L14.913 15.25L13.3478 16.375L11.6848 15.25H10.7652C10.3478 15.925 9.7837 16.4688 9.07283 16.8813C8.36196 17.2938 7.56957 17.5 6.69565 17.5ZM6.69565 16C7.42609 16 8.06848 15.7875 8.62283 15.3625C9.17717 14.9375 9.54565 14.4 9.72826 13.75H12.1739L13.3087 14.5188L14.913 13.375L16.3022 14.4062L17.7696 13L16.987 12.25H9.72826C9.54565 11.6 9.17717 11.0625 8.62283 10.6375C8.06848 10.2125 7.42609 10 6.69565 10C5.83478 10 5.09783 10.2938 4.48478 10.8813C3.87174 11.4688 3.56522 12.175 3.56522 13C3.56522 13.825 3.87174 14.5313 4.48478 15.1188C5.09783 15.7063 5.83478 16 6.69565 16Z" fill="#E8EAED"/>
<rect x="18" width="6" height="6" rx="3" fill="#0CA724"/>
</svg>
