<svg width="24" height="24" viewBox="0 0 24 24" fill="none" xmlns="http://www.w3.org/2000/svg">
<rect x="0.5" y="2.5" width="21" height="21" rx="2.5" fill="#121212" stroke="white"/>
<path d="M11 20C10.475 20 10.0313 19.801 9.66875 19.4029C9.30625 19.0049 9.125 18.5176 9.125 17.9412C9.125 17.3647 9.30625 16.8775 9.66875 16.4794C10.0313 16.0814 10.475 15.8824 11 15.8824C11.525 15.8824 11.9688 16.0814 12.3313 16.4794C12.6938 16.8775 12.875 17.3647 12.875 17.9412C12.875 18.5176 12.6938 19.0049 12.3313 19.4029C11.9688 19.801 11.525 20 11 20ZM6.7625 15.3471L5.1875 13.5765C5.925 12.7667 6.79063 12.125 7.78438 11.6515C8.77813 11.1779 9.85 10.9412 11 10.9412C12.15 10.9412 13.2219 11.1814 14.2156 11.6618C15.2094 12.1422 16.075 12.7941 16.8125 13.6176L15.2375 15.3471C14.6875 14.7431 14.05 14.2696 13.325 13.9265C12.6 13.5833 11.825 13.4118 11 13.4118C10.175 13.4118 9.4 13.5833 8.675 13.9265C7.95 14.2696 7.3125 14.7431 6.7625 15.3471ZM3.575 11.8471L2 10.1176C3.15 8.82745 4.49375 7.81863 6.03125 7.09118C7.56875 6.36373 9.225 6 11 6C12.775 6 14.4313 6.36373 15.9688 7.09118C17.5063 7.81863 18.85 8.82745 20 10.1176L18.425 11.8471C17.4625 10.7902 16.3469 9.96324 15.0781 9.36618C13.8094 8.76912 12.45 8.47059 11 8.47059C9.55 8.47059 8.19063 8.76912 6.92188 9.36618C5.65313 9.96324 4.5375 10.7902 3.575 11.8471Z" fill="#E8EAED"/>
<rect x="18" width="6" height="6" rx="3" fill="#E40404"/>
</svg>
