<svg width="24" height="24" viewBox="0 0 24 24" fill="none" xmlns="http://www.w3.org/2000/svg">
<rect x="0.5" y="2.5" width="21" height="21" rx="2.5" fill="#121212" stroke="white"/>
<path d="M4.2642 20V5.45455H10.0028C11.1061 5.45455 12.0459 5.66525 12.8224 6.08665C13.599 6.50331 14.1908 7.08333 14.598 7.8267C15.0099 8.56534 15.2159 9.41761 15.2159 10.3835C15.2159 11.3494 15.0076 12.2017 14.5909 12.9403C14.1742 13.679 13.5705 14.2543 12.7798 14.6662C11.9938 15.0781 11.0421 15.2841 9.92472 15.2841H6.26705V12.8196H9.42756C10.0194 12.8196 10.5071 12.7178 10.8906 12.5142C11.2789 12.3059 11.5677 12.0194 11.7571 11.6548C11.9512 11.2855 12.0483 10.8617 12.0483 10.3835C12.0483 9.90057 11.9512 9.47917 11.7571 9.11932C11.5677 8.75473 11.2789 8.47301 10.8906 8.27415C10.5024 8.07055 10.0099 7.96875 9.41335 7.96875H7.33949V20H4.2642Z" fill="white"/>
<rect x="18" width="6" height="6" rx="3" fill="#0CA724"/>
</svg>
