<svg width="24" height="24" viewBox="0 0 24 24" fill="none" xmlns="http://www.w3.org/2000/svg">
<rect x="0.5" y="2.5" width="21" height="21" rx="2.5" fill="#121212" stroke="white"/>
<path d="M5.23529 21V15H4V10.6C4 10.16 4.16127 9.78333 4.48382 9.47C4.80637 9.15667 5.19412 9 5.64706 9H8.11765C8.57059 9 8.95833 9.15667 9.28088 9.47C9.60343 9.78333 9.76471 10.16 9.76471 10.6V15H8.52941V21H5.23529ZM6.88235 8.2C6.42941 8.2 6.04167 8.04333 5.71912 7.73C5.39657 7.41667 5.23529 7.04 5.23529 6.6C5.23529 6.16 5.39657 5.78333 5.71912 5.47C6.04167 5.15667 6.42941 5 6.88235 5C7.33529 5 7.72304 5.15667 8.04559 5.47C8.36814 5.78333 8.52941 6.16 8.52941 6.6C8.52941 7.04 8.36814 7.41667 8.04559 7.73C7.72304 8.04333 7.33529 8.2 6.88235 8.2ZM13.0588 21V16.2H10.5882L12.6882 10.08C12.798 9.73333 13.0005 9.46667 13.2956 9.28C13.5907 9.09333 13.9235 9 14.2941 9C14.6647 9 14.9975 9.09333 15.2926 9.28C15.5877 9.46667 15.7902 9.73333 15.9 10.08L18 16.2H15.5294V21H13.0588ZM14.2941 8.2C13.8412 8.2 13.4534 8.04333 13.1309 7.73C12.8083 7.41667 12.6471 7.04 12.6471 6.6C12.6471 6.16 12.8083 5.78333 13.1309 5.47C13.4534 5.15667 13.8412 5 14.2941 5C14.7471 5 15.1348 5.15667 15.4574 5.47C15.7799 5.78333 15.9412 6.16 15.9412 6.6C15.9412 7.04 15.7799 7.41667 15.4574 7.73C15.1348 8.04333 14.7471 8.2 14.2941 8.2Z" fill="#E8EAED"/>
<rect x="18" width="6" height="6" rx="3" fill="#0CA724"/>
</svg>
