<svg width="24" height="24" viewBox="0 0 24 24" fill="none" xmlns="http://www.w3.org/2000/svg">
<rect x="0.5" y="2.5" width="21" height="21" rx="2.5" fill="#121212" stroke="white"/>
<path d="M2.5 23.5L0.5 21.5L18.5 3.5L20.5 5.5L2.5 23.5Z" fill="white"/>
<rect x="18" width="6" height="6" rx="3" fill="#0CA724"/>
<path fill-rule="evenodd" clip-rule="evenodd" d="M8.02818 22.8845L9.1882 13.4571L5.03906 14.8621L7.01054 10.8566L5.03906 6.85102L8.96821 8.18152L8.12511 4.75651L9.25011 3.7168L11.5001 6.00251L13.2924 4.18181L14.9473 4.46207L14.032 8.18152L17.9611 6.85102L15.9897 10.8566L17.9611 14.8621L13.812 13.4571L14.972 22.8845L11.5001 21.121L8.02818 22.8845ZM11.5001 19.9994L13.7501 21.1423L12.6251 11.9994L16.0001 13.1423L14.8751 10.8566L16.0001 8.57085L12.6251 9.71371L13.7501 5.14228L11.5001 7.42799L9.25011 5.14228L10.3751 9.71371L7.00011 8.57085L8.12511 10.8566L7.00011 13.1423L10.3751 11.9994L9.25011 21.1423L11.5001 19.9994Z" fill="#121212"/>
<path d="M11.5 19.9997L9.25 21.1426L10.375 11.9997L7 13.1426L8.125 10.8569L7 8.57115L10.375 9.71401L9.25 5.14258L11.5 7.42829L13.75 5.14258L12.625 9.71401L16 8.57115L14.875 10.8569L16 13.1426L12.625 11.9997L13.75 21.1426L11.5 19.9997Z" fill="#D9D9D9"/>
</svg>
