<svg width="24" height="24" viewBox="0 0 24 24" fill="none" xmlns="http://www.w3.org/2000/svg">
<rect x="0.5" y="2.5" width="21" height="21" rx="2.5" fill="#121212" stroke="white"/>
<path d="M5.66667 19.2222V20.1111C5.66667 20.363 5.58148 20.5741 5.41111 20.7444C5.24074 20.9148 5.02963 21 4.77778 21H3.88889C3.63704 21 3.42593 20.9148 3.25556 20.7444C3.08519 20.5741 3 20.363 3 20.1111V13L4.86667 7.66667C4.95556 7.4 5.11481 7.18519 5.34444 7.02222C5.57407 6.85926 5.82963 6.77778 6.11111 6.77778H8.33333V5H13.6667V6.77778H15.8889C16.1704 6.77778 16.4259 6.85926 16.6556 7.02222C16.8852 7.18519 17.0444 7.4 17.1333 7.66667L19 13V20.1111C19 20.363 18.9148 20.5741 18.7444 20.7444C18.5741 20.9148 18.363 21 18.1111 21H17.2222C16.9704 21 16.7593 20.9148 16.5889 20.7444C16.4185 20.5741 16.3333 20.363 16.3333 20.1111V19.2222H5.66667ZM5.48889 11.2222H16.5111L15.5778 8.55556H6.42222L5.48889 11.2222ZM7 16.5556C7.37037 16.5556 7.68519 16.4259 7.94444 16.1667C8.2037 15.9074 8.33333 15.5926 8.33333 15.2222C8.33333 14.8519 8.2037 14.537 7.94444 14.2778C7.68519 14.0185 7.37037 13.8889 7 13.8889C6.62963 13.8889 6.31481 14.0185 6.05556 14.2778C5.7963 14.537 5.66667 14.8519 5.66667 15.2222C5.66667 15.5926 5.7963 15.9074 6.05556 16.1667C6.31481 16.4259 6.62963 16.5556 7 16.5556ZM15 16.5556C15.3704 16.5556 15.6852 16.4259 15.9444 16.1667C16.2037 15.9074 16.3333 15.5926 16.3333 15.2222C16.3333 14.8519 16.2037 14.537 15.9444 14.2778C15.6852 14.0185 15.3704 13.8889 15 13.8889C14.6296 13.8889 14.3148 14.0185 14.0556 14.2778C13.7963 14.537 13.6667 14.8519 13.6667 15.2222C13.6667 15.5926 13.7963 15.9074 14.0556 16.1667C14.3148 16.4259 14.6296 16.5556 15 16.5556ZM4.77778 17.4444H17.2222V13H4.77778V17.4444Z" fill="#E8EAED"/>
<rect x="18" width="6" height="6" rx="3" fill="#0CA724"/>
</svg>
