<svg width="24" height="24" viewBox="0 0 24 24" fill="none" xmlns="http://www.w3.org/2000/svg">
<rect x="0.5" y="2.5" width="21" height="21" rx="2.5" fill="#121212" stroke="white"/>
<path d="M3 21V10.3333L10.1776 5L15 8.6C14.6262 8.64444 14.2748 8.72963 13.9458 8.85556C13.6168 8.98148 13.3028 9.14815 13.0037 9.35556L10.1776 7.22222L4.79439 11.2222V19.2222H8.38318V21H3Z" fill="#E8EAED"/>
<path d="M17.3594 21V10.3333L10.1818 5L5.35938 8.6C5.73321 8.64444 6.08461 8.72963 6.41358 8.85556C6.74255 8.98148 7.05657 9.14815 7.35564 9.35556L10.1818 7.22222L15.565 11.2222V19.2222H11.9762V21H17.3594Z" fill="#E8EAED"/>
<path d="M18.7 10.5H8.3C7.31408 10.5 6.5 11.2972 6.5 12.2857V18.7143C6.5 19.7028 7.31408 20.5 8.3 20.5H18.7C19.6892 20.5 20.5 19.6995 20.5 18.7014V12.2857C20.5 11.2972 19.6859 10.5 18.7 10.5Z" fill="white" stroke="#121212"/>
<path d="M19.0481 18.7007C19.0611 18.8935 18.9051 19.0607 18.6971 19.0735H8.29707C8.10207 19.0735 7.94607 18.9064 7.94607 18.7135V12.285C7.93307 12.0921 8.08907 11.925 8.28407 11.9121H18.6971C18.8921 11.9121 19.0481 12.0793 19.0481 12.2721V18.7007Z" fill="#121212"/>
<path d="M10.9809 18.4444H8.79688V12.5558H10.9809C12.5279 12.5558 13.3729 13.5073 13.3729 15.4744C13.3729 17.1715 12.7879 18.4315 10.9809 18.4444ZM11.9299 15.5901C11.9299 14.4073 11.7999 13.4815 10.5129 13.4815H10.2269V17.493H10.7339C11.4879 17.493 11.9299 16.8887 11.9299 15.5901ZM17.1429 15.3587C17.7539 15.1787 18.1699 14.6258 18.1829 13.983C18.1829 13.8544 18.1569 12.543 16.4799 12.543H13.9969V18.4315H16.1029C16.6619 18.4315 18.4039 18.4315 18.4039 16.773C18.4039 16.3744 18.2219 15.5901 17.1429 15.3587ZM15.4139 13.4687H15.8689C16.5059 13.4687 16.7659 13.6873 16.7659 14.1758C16.7659 14.5615 16.4799 14.883 15.9859 14.883H15.4269V13.4687H15.4139ZM15.9989 17.493H15.4139V15.9758H16.0379C16.7789 15.9758 16.9609 16.4001 16.9609 16.7344C16.9609 17.493 16.2329 17.493 15.9989 17.493Z" fill="white"/>
<rect x="18" width="6" height="6" rx="3" fill="#0CA724"/>
</svg>
