<svg width="21" height="21" viewBox="0 0 21 21" fill="none" xmlns="http://www.w3.org/2000/svg">
<path fill-rule="evenodd" clip-rule="evenodd" d="M10.5 0C4.70101 0 0 4.70101 0 10.5C0 16.299 4.70101 21 10.5 21C16.299 21 21 16.299 21 10.5C21 4.70101 16.299 0 10.5 0ZM6.90015 16.9144L4.58594 14.6002L8.18594 11.0002L4.58594 7.40015L6.90015 5.08594L10.5002 8.68594L14.1002 5.08594L16.4144 7.40015L12.8144 11.0002L16.4144 14.6002L14.1002 16.9144L10.5002 13.3144L6.90015 16.9144ZM6.90015 15.5002L10.5002 11.9002L10.5 11.9L6.9 15.5L6.90015 15.5002ZM14.1 15.5L14.1002 15.5002L15.0002 14.6002L15 14.6L14.1 15.5ZM15.0002 7.40015L11.4002 11.0002L11.4 11L15 7.4L15.0002 7.40015Z" fill="black"/>
</svg>
