<svg width="31" height="31" viewBox="0 0 31 31" fill="none" xmlns="http://www.w3.org/2000/svg">
<path d="M9.86344 23.7906L12.232 11.9999L10.2684 12.7847V15.5217H9.0293V11.9728L12.9468 10.3078C13.1396 10.2252 13.3321 10.1757 13.5244 10.1594C13.7167 10.143 13.9011 10.1613 14.0779 10.2143C14.2548 10.2672 14.4188 10.3489 14.5697 10.4596C14.7206 10.5703 14.8485 10.7141 14.9534 10.8911L15.6522 12.0061C16.0632 12.6744 16.5804 13.2116 17.2036 13.6178C17.8269 14.0239 18.5256 14.2429 19.2998 14.2747V15.5138C18.3573 15.4714 17.5166 15.2321 16.7778 14.7958C16.0391 14.3595 15.4039 13.7838 14.8722 13.0688L14.2369 16.2288L15.9955 17.9921V23.7906H14.7564V18.6831L12.7355 16.9564L11.1534 23.7906H9.86344ZM14.9629 9.41361C14.5403 9.41361 14.1805 9.26505 13.8834 8.96793C13.5863 8.67082 13.4377 8.31099 13.4377 7.88844C13.4377 7.4659 13.5863 7.10607 13.8834 6.80895C14.1805 6.51184 14.5403 6.36328 14.9629 6.36328C15.3854 6.36328 15.7452 6.51184 16.0424 6.80895C16.3395 7.10607 16.488 7.4659 16.488 7.88844C16.488 8.31099 16.3395 8.67082 16.0424 8.96793C15.7452 9.26505 15.3854 9.41361 14.9629 9.41361Z" fill="white"/>
<path d="M20.5391 13.6739C20.5391 12.4648 20.9597 11.4397 21.8007 10.5986C22.6418 9.7575 23.6669 9.33696 24.8761 9.33696C23.6669 9.33696 22.6418 8.91641 21.8007 8.07531C20.9597 7.23422 20.5391 6.20912 20.5391 5C20.5391 6.20912 20.1186 7.23422 19.2775 8.07531C18.4364 8.91641 17.4113 9.33696 16.2021 9.33696C17.4113 9.33696 18.4364 9.7575 19.2775 10.5986C20.1186 11.4397 20.5391 12.4648 20.5391 13.6739Z" fill="url(#paint0_radial_733_352)"/>
<path d="M21.984 19.0423C21.984 18.1211 22.3045 17.34 22.9453 16.6992C23.5861 16.0584 24.3672 15.7379 25.2884 15.7379C24.3672 15.7379 23.5861 15.4175 22.9453 14.7767C22.3045 14.1359 21.984 13.3548 21.984 12.4336C21.984 13.3548 21.6636 14.1359 21.0228 14.7767C20.382 15.4175 19.6009 15.7379 18.6797 15.7379C19.6009 15.7379 20.382 16.0584 21.0228 16.6992C21.6636 17.34 21.984 18.1211 21.984 19.0423Z" fill="url(#paint1_radial_733_352)"/>
<path d="M18.2672 24.0012C18.2672 22.9648 18.6277 22.0861 19.3486 21.3652C20.0695 20.6443 20.9482 20.2838 21.9846 20.2838C20.9482 20.2838 20.0695 19.9233 19.3486 19.2024C18.6277 18.4815 18.2672 17.6028 18.2672 16.5664C18.2672 17.6028 17.9067 18.4815 17.1858 19.2024C16.4649 19.9233 15.5862 20.2838 14.5498 20.2838C15.5862 20.2838 16.4649 20.6443 17.1858 21.3652C17.9067 22.0861 18.2672 22.9648 18.2672 24.0012Z" fill="url(#paint2_radial_733_352)"/>
<defs>
<radialGradient id="paint0_radial_733_352" cx="0" cy="0" r="1" gradientUnits="userSpaceOnUse" gradientTransform="translate(19.0935 7.47826) rotate(57.5288) scale(5.38543)">
<stop stop-color="#EA01DA"/>
<stop offset="1" stop-color="#940A26"/>
</radialGradient>
<radialGradient id="paint1_radial_733_352" cx="0" cy="0" r="1" gradientUnits="userSpaceOnUse" gradientTransform="translate(20.8826 14.3218) rotate(57.5288) scale(4.10318)">
<stop stop-color="#01A0EA"/>
<stop offset="1" stop-color="#1949C4"/>
</radialGradient>
<radialGradient id="paint2_radial_733_352" cx="0" cy="0" r="1" gradientUnits="userSpaceOnUse" gradientTransform="translate(17.0281 18.6906) rotate(57.5288) scale(4.61608)">
<stop stop-color="#EAE601"/>
<stop offset="1" stop-color="#C48219"/>
</radialGradient>
</defs>
</svg>
