<svg width="35" height="34" viewBox="0 0 35 34" fill="none" xmlns="http://www.w3.org/2000/svg">
<rect x="19" y="3" width="13" height="13" rx="6.5" fill="#0CA724" fill-opacity="0.5"/>
<rect x="16" width="19" height="19" rx="9.5" fill="#0CA724" fill-opacity="0.5"/>
<rect x="6.5" y="6.5" width="21" height="21" rx="2.5" fill="#121212" stroke="white"/>
<path fill-rule="evenodd" clip-rule="evenodd" d="M20.0526 22.5393V22.5195H13.9696V22.5393H13.6275L11.6172 24.9994H13.0984L13.5432 24.3715H20.4663L20.9109 24.9994H22.3927L20.3823 22.5393H20.0526ZM13.9724 23.7659L14.4264 23.1252H19.5834L20.0373 23.7659H13.9724Z" fill="white"/>
<path fill-rule="evenodd" clip-rule="evenodd" d="M17.0001 9C12.344 9 11 10.6256 11 11.8665V19.9536C11 21.0449 11.9195 21.9305 13.0549 21.9305H20.9453C22.081 21.9305 23 21.0449 23 19.9536V11.8665C23 10.6256 21.6562 9 17.0001 9ZM14.8253 10.7821H19.1746C19.4635 10.7821 19.698 11.0076 19.698 11.2855C19.698 11.5642 19.4635 11.7895 19.1746 11.7895H14.8253C14.5364 11.7895 14.3021 11.5642 14.3021 11.2855C14.3021 11.0076 14.5364 10.7821 14.8253 10.7821ZM13.8887 20.2092C13.5282 20.2092 13.236 19.9281 13.236 19.5812C13.236 19.2342 13.5282 18.9531 13.8887 18.9531C14.2493 18.9531 14.5415 19.2342 14.5415 19.5812C14.5415 19.9281 14.2493 20.2092 13.8887 20.2092ZM16.5431 16.4828H13.0585V13.4161H16.5431V16.4828ZM20.1117 20.2092C19.7511 20.2092 19.4589 19.9281 19.4589 19.5812C19.4589 19.2342 19.7511 18.9531 20.1117 18.9531C20.4722 18.9531 20.7644 19.2342 20.7644 19.5812C20.7644 19.9281 20.4722 20.2092 20.1117 20.2092ZM21.0968 16.4828H17.457V13.4161H21.0968V16.4828Z" fill="white"/>
</svg>
