<svg width="24" height="24" viewBox="0 0 24 24" fill="none" xmlns="http://www.w3.org/2000/svg">
<rect x="0.5" y="2.5" width="21" height="21" rx="2.5" fill="#121212" stroke="white"/>
<path d="M16.9966 12.7092C16.7928 12.5002 16.508 12.3898 16.2171 12.4057L12.6955 12.6017L14.6335 10.3945C14.9096 10.0801 14.9885 9.66096 14.8817 9.28644C14.8254 9.0298 14.67 8.79629 14.4312 8.6471C14.4239 8.64187 9.7987 5.955 9.7987 5.955C9.42102 5.7356 8.94512 5.78394 8.6192 6.07464L6.35986 8.09001C5.9436 8.4613 5.90714 9.09974 6.27846 9.51603C6.6498 9.93227 7.28827 9.96883 7.70451 9.59741L9.4174 8.06948L10.8334 8.89178L8.33391 11.7385C7.29744 11.9075 6.36488 12.3851 5.63281 13.0738L6.93809 14.379C7.52814 13.8425 8.31159 13.515 9.17009 13.515C11.0012 13.515 12.491 15.0048 12.491 16.836C12.491 17.6945 12.1635 18.4779 11.6271 19.0679L12.9323 20.3732C13.8017 19.4489 14.3354 18.2052 14.3354 16.836C14.3354 16.0203 14.146 15.2489 13.8093 14.5629L15.1724 14.487L14.8408 18.5544C14.7954 19.1104 15.2095 19.5978 15.7655 19.6432C15.7933 19.6454 15.8211 19.6465 15.8486 19.6465C16.3692 19.6465 16.8111 19.2465 16.8541 18.7185L17.2798 13.4962C17.3035 13.2053 17.2002 12.9183 16.9966 12.7092Z" fill="white"/>
<path d="M15.1204 8.38133C16.0541 8.38133 16.8109 7.62443 16.8109 6.69068C16.8109 5.75699 16.0541 5 15.1204 5C14.1866 5 13.4297 5.75699 13.4297 6.69068C13.4297 7.62443 14.1865 8.38133 15.1204 8.38133Z" fill="white"/>
<path d="M9.16532 20.1558C7.33415 20.1558 5.84436 18.6661 5.84436 16.8349C5.84436 16.1448 6.05611 15.5033 6.41781 14.9717L5.09844 13.6523C4.41098 14.5296 4 15.634 4 16.8349C4 19.6876 6.31256 22.0002 9.16532 22.0002C10.3663 22.0002 11.4705 21.5892 12.3478 20.9017L11.0284 19.5824C10.4968 19.944 9.85539 20.1558 9.16532 20.1558Z" fill="white"/>
<rect x="18" width="6" height="6" rx="3" fill="#E4A504"/>
</svg>
