<svg width="24" height="24" viewBox="0 0 24 24" fill="none" xmlns="http://www.w3.org/2000/svg">
<rect x="0.179688" y="0.179688" width="22.8867" height="22.8867" fill="black"/>
<path d="M10.7304 3.39575C11.1015 2.6685 12.1407 2.6685 12.5118 3.39575L14.3794 7.05522C14.5247 7.33994 14.7973 7.53804 15.113 7.58825L19.1705 8.23355C19.9768 8.36179 20.2979 9.35008 19.721 9.92779L16.8177 12.8348C16.5918 13.0609 16.4877 13.3815 16.5375 13.6972L17.1776 17.7555C17.3048 18.562 16.4641 19.1728 15.7364 18.8026L12.0745 16.9398C11.7896 16.7948 11.4526 16.7948 11.1677 16.9398L7.50582 18.8026C6.77809 19.1728 5.9374 18.562 6.06461 17.7555L6.70471 13.6972C6.75451 13.3815 6.65036 13.0609 6.42448 12.8348L3.52123 9.92779C2.94426 9.35009 3.26537 8.36179 4.07172 8.23355L8.12918 7.58825C8.44487 7.53804 8.71753 7.33994 8.86283 7.05522L10.7304 3.39575Z" fill="white"/>
</svg>
