<svg width="10" height="14" viewBox="0 0 10 14" fill="none" xmlns="http://www.w3.org/2000/svg">
<path d="M6.25 14V10.093L4.9375 8.7907L4.3125 11.6558L0 10.7442L0.25 9.44186L3.25 10.093L4.25 4.8186L3.125 5.27442V7.48837H1.875V4.42791L4.34375 3.32093C4.70833 3.15814 4.97656 3.05233 5.14844 3.00349C5.32031 2.95465 5.47917 2.93023 5.625 2.93023C5.84375 2.93023 6.04688 2.98992 6.23438 3.1093C6.42188 3.22868 6.57292 3.38605 6.6875 3.5814L7.3125 4.62326C7.58333 5.07907 7.95052 5.45349 8.41406 5.74651C8.8776 6.03953 9.40625 6.18605 10 6.18605V7.48837C9.3125 7.48837 8.66927 7.33915 8.07031 7.0407C7.47135 6.74225 6.96875 6.34884 6.5625 5.86047L6.1875 7.81395L7.5 9.11628V14H6.25ZM6.5625 2.60465C6.21875 2.60465 5.92448 2.47713 5.67969 2.22209C5.4349 1.96705 5.3125 1.66047 5.3125 1.30233C5.3125 0.944186 5.4349 0.637597 5.67969 0.382558C5.92448 0.127519 6.21875 0 6.5625 0C6.90625 0 7.20052 0.127519 7.44531 0.382558C7.6901 0.637597 7.8125 0.944186 7.8125 1.30233C7.8125 1.66047 7.6901 1.96705 7.44531 2.22209C7.20052 2.47713 6.90625 2.60465 6.5625 2.60465Z" fill="black"/>
</svg>
