<?xml version="1.0" encoding="UTF-8" standalone="no"?>
<svg
   height="24px"
   viewBox="0 -960 960 960"
   width="24px"
   fill="#fff"
   version="1.1"
   id="svg1"
   sodipodi:docname="refresh.svg"
   inkscape:version="1.3 (0e150ed6c4, 2023-07-21)"
   xmlns:inkscape="http://www.inkscape.org/namespaces/inkscape"
   xmlns:sodipodi="http://sodipodi.sourceforge.net/DTD/sodipodi-0.dtd"
   xmlns="http://www.w3.org/2000/svg"
   xmlns:svg="http://www.w3.org/2000/svg">
  <defs
     id="defs1" />
  <sodipodi:namedview
     id="namedview1"
     pagecolor="#ffffff"
     bordercolor="#000000"
     borderopacity="0.25"
     inkscape:showpageshadow="2"
     inkscape:pageopacity="0.0"
     inkscape:pagecheckerboard="0"
     inkscape:deskcolor="#d1d1d1"
     inkscape:zoom="32.375"
     inkscape:cx="11.984556"
     inkscape:cy="12"
     inkscape:window-width="1920"
     inkscape:window-height="991"
     inkscape:window-x="-9"
     inkscape:window-y="-9"
     inkscape:window-maximized="1"
     inkscape:current-layer="svg1" />
  <path
     d="m 481.09375,-266.93274 q -89.22547,0 -151.14282,-61.91024 -61.92444,-61.91025 -61.92444,-151.11441 0,-89.20416 61.92444,-151.15701 61.91735,-61.95286 151.14282,-61.95286 49.82222,0 94.29646,22.15189 44.46714,22.159 73.96985,62.52814 v -84.68003 h 42.61345 v 173.72794 H 518.24557 v -42.60635 H 630.461 q -22.45729,-41.14329 -62.28667,-64.82216 -39.82227,-23.68598 -87.08058,-23.68598 -71.02242,0 -120.73812,49.7157 -49.71569,49.71569 -49.71569,120.73811 0,71.02242 49.71569,120.73811 49.7157,49.7157 120.73812,49.7157 54.68726,0 98.72116,-31.24987 44.0339,-31.24986 61.7895,-82.386 h 44.90748 q -19.33941,69.54515 -76.18575,112.89723 -56.84634,43.35209 -129.23239,43.35209 z"
     id="path1"
     style="stroke-width:0.710224" />
</svg>
