<svg width="24" height="24" viewBox="0 0 24 24" fill="none" xmlns="http://www.w3.org/2000/svg">
<rect x="0.5" y="2.5" width="21" height="21" rx="2.5" fill="#121212" stroke="white"/>
<path d="M7.83106 8.09363C7.41691 8.09363 7.0611 7.94163 6.76364 7.63762C6.46632 7.33361 6.31765 6.96998 6.31765 6.54671C6.31765 6.12359 6.46632 5.76002 6.76364 5.45601C7.0611 5.152 7.41691 5 7.83106 5C8.24521 5 8.60101 5.152 8.89847 5.45601C9.19593 5.76002 9.34467 6.12359 9.34467 6.54671C9.34467 6.96998 9.19593 7.33361 8.89847 7.63762C8.60101 7.94163 8.24521 8.09363 7.83106 8.09363ZM12.5924 19.1632H7.50948C7.09533 19.1632 6.71882 19.0192 6.37996 18.7313C6.04096 18.4434 5.8289 18.0879 5.74377 17.6646L4 8.68978H5.25495L7.01123 17.6485C7.02708 17.713 7.0652 17.7721 7.12559 17.8257C7.18599 17.8795 7.24775 17.9064 7.31088 17.9064H12.5924V19.1632ZM16.9281 21L14.6924 17.0685H8.88433C8.53536 17.0685 8.23503 16.9611 7.98334 16.7463C7.73152 16.5314 7.56728 16.251 7.49062 15.9051L6.55725 11.3098C6.42266 10.6878 6.56326 10.1467 6.97905 9.68643C7.3947 9.22616 7.89104 8.99602 8.46806 8.99602C8.89902 8.99602 9.29213 9.12785 9.64739 9.3915C10.0026 9.65529 10.2297 10.0143 10.3285 10.4686L11.2774 14.9738H14.1312C14.3813 14.9738 14.6136 15.0399 14.8281 15.172C15.0425 15.3041 15.2169 15.4851 15.3513 15.7151L18 20.3716L16.9281 21Z" fill="white"/>
<rect x="11" width="13" height="13" rx="6.5" fill="#0CA724"/>
<path d="M19.6203 4.83222L19.0949 5.97719H12L12.4298 4.83222H19.6203ZM18.6067 7.02281L18.0283 8.19392H12L12.4298 7.02281H18.6067ZM21 1.97243L20.1509 3.76046C20.0094 3.66286 19.8379 3.55656 19.6362 3.44154C19.4381 3.32304 19.2099 3.2237 18.9517 3.14354C18.6969 3.05989 18.4139 3.01806 18.1026 3.01806C17.6108 3.01806 17.1828 3.14005 16.8184 3.38403C16.454 3.62801 16.171 4.00792 15.9693 4.52376C15.7712 5.03961 15.6722 5.70184 15.6722 6.51046C15.6722 7.32605 15.7712 7.99002 15.9693 8.50238C16.171 9.01125 16.454 9.38593 16.8184 9.62643C17.1828 9.86343 17.6108 9.98194 18.1026 9.98194C18.4139 9.98194 18.6969 9.94186 18.9517 9.86169C19.2064 9.78153 19.4292 9.68568 19.6203 9.57414C19.8149 9.46261 19.9776 9.35979 20.1085 9.26568L20.9682 11.0537C20.5825 11.3674 20.1456 11.6044 19.6574 11.7647C19.1692 11.9216 18.6509 12 18.1026 12C17.1757 12 16.355 11.7839 15.6403 11.3517C14.9292 10.916 14.3721 10.2904 13.9688 9.47481C13.5654 8.65573 13.3638 7.66762 13.3638 6.51046C13.3638 5.35678 13.5654 4.36866 13.9688 3.5461C14.3721 2.72354 14.9292 2.09442 15.6403 1.65875C16.355 1.21958 17.1757 1 18.1026 1C18.6722 1 19.1993 1.08365 19.684 1.25095C20.1686 1.41825 20.6073 1.65875 21 1.97243Z" fill="white"/>
</svg>
