<svg width="24" height="24" viewBox="0 0 24 24" fill="none" xmlns="http://www.w3.org/2000/svg">
<rect x="0.5" y="2.5" width="21" height="21" rx="2.5" fill="#121212" stroke="white"/>
<path d="M13.6567 12.62C13.3863 12.62 13.1572 12.5204 12.9696 12.3212C12.7818 12.1221 12.6879 11.8784 12.6879 11.5901C12.6879 11.3016 12.7812 11.0573 12.9678 10.8569C13.1544 10.6566 13.3829 10.5565 13.6534 10.5565C13.9237 10.5565 14.1527 10.6561 14.3405 10.8553C14.5283 11.0544 14.6222 11.298 14.6222 11.5864C14.6222 11.8748 14.5288 12.1192 14.3421 12.3195C14.1554 12.5198 13.927 12.62 13.6567 12.62ZM9.34662 12.62C9.07632 12.62 8.84728 12.5204 8.65949 12.3212C8.47169 12.1221 8.37779 11.8784 8.37779 11.5901C8.37779 11.3016 8.47118 11.0573 8.65794 10.8569C8.84456 10.6566 9.07302 10.5565 9.34331 10.5565C9.61375 10.5565 9.84279 10.6561 10.0304 10.8553C10.2182 11.0544 10.3121 11.298 10.3121 11.5864C10.3121 11.8748 10.2188 12.1192 10.0322 12.3195C9.84559 12.5198 9.61706 12.62 9.34662 12.62ZM11.5 17.3438C10.7025 17.3438 9.97684 17.1197 9.32301 16.6715C8.66919 16.2232 8.1675 15.6268 7.81794 14.8824H15.1821C14.8325 15.6268 14.3308 16.2232 13.677 16.6715C13.0232 17.1197 12.2975 17.3438 11.5 17.3438ZM11.5004 21C10.4594 21 9.48419 20.79 8.57478 20.3701C7.66522 19.9502 6.87221 19.3795 6.19574 18.6579C5.51926 17.9363 4.98419 17.0907 4.59051 16.1209C4.19684 15.1511 4 14.1109 4 13.0005C4 11.89 4.19684 10.8498 4.59051 9.87977C4.98419 8.90957 5.51926 8.06369 6.19574 7.34212C6.87221 6.62055 7.665 6.0498 8.57412 5.62988C9.48338 5.20996 10.4585 5 11.4996 5C12.5406 5 13.5158 5.20996 14.4252 5.62988C15.3348 6.0498 16.1278 6.62055 16.8043 7.34212C17.4807 8.06369 18.0158 8.90933 18.4095 9.87906C18.8032 10.8489 19 11.8891 19 12.9995C19 14.11 18.8032 15.1502 18.4095 16.1202C18.0158 17.0904 17.4807 17.9363 16.8043 18.6579C16.1278 19.3795 15.335 19.9502 14.4259 20.3701C13.5166 20.79 12.5415 21 11.5004 21ZM11.5 19.5882C13.2059 19.5882 14.6618 18.9451 15.8676 17.6588C17.0735 16.3725 17.6765 14.8196 17.6765 13C17.6765 11.1804 17.0735 9.62745 15.8676 8.34118C14.6618 7.0549 13.2059 6.41176 11.5 6.41176C11.3759 6.41176 11.2518 6.41475 11.1279 6.42071C11.0038 6.42682 10.8835 6.44557 10.767 6.47694C10.7014 6.58314 10.6596 6.6851 10.6415 6.78282C10.6234 6.88055 10.6143 6.99216 10.6143 7.11765C10.6143 7.48329 10.7351 7.7949 10.9765 8.05247C11.218 8.31004 11.511 8.43882 11.8556 8.43882C12.0031 8.43882 12.1278 8.41529 12.2297 8.36824C12.3315 8.32118 12.4412 8.29765 12.5588 8.29765C12.6965 8.29765 12.8112 8.35396 12.9029 8.46659C12.9949 8.57906 13.0408 8.71027 13.0408 8.86024C13.0408 9.14761 12.9053 9.33624 12.6343 9.42612C12.3634 9.51616 12.1029 9.56118 11.8529 9.56118C11.2251 9.56118 10.6864 9.32133 10.2367 8.84165C9.78699 8.36196 9.56213 7.78729 9.56213 7.11765V6.95106C9.56213 6.89898 9.57235 6.82965 9.59279 6.74306C8.34397 7.17741 7.32022 7.95898 6.52154 9.08776C5.72287 10.2165 5.32353 11.5206 5.32353 13C5.32353 14.8196 5.92647 16.3725 7.13235 17.6588C8.33824 18.9451 9.79412 19.5882 11.5 19.5882Z" fill="white"/>
<rect x="18" width="6" height="6" rx="3" fill="#0CA724"/>
</svg>
