<svg width="24" height="24" viewBox="0 0 24 24" fill="none" xmlns="http://www.w3.org/2000/svg">
<rect x="0.5" y="2.5" width="21" height="21" rx="2.5" fill="#121212" stroke="white"/>
<path d="M4.92468 20L4.082 19.1524L12.2326 10.9537C11.9774 10.3493 11.9313 9.71378 12.0943 9.04707C12.2573 8.38035 12.6192 7.77316 13.1801 7.2255C13.7941 6.60785 14.5138 6.21805 15.339 6.0561C16.1645 5.89415 16.8453 6.08285 17.3814 6.6222C17.9176 7.16155 18.1052 7.84636 17.9442 8.67664C17.7832 9.50678 17.3957 10.2307 16.7817 10.8485C16.2372 11.4125 15.6336 11.7765 14.9708 11.9405C14.308 12.1045 13.6762 12.0581 13.0753 11.8013L11.845 13.0389L17.9226 19.1524L17.08 20L11.0023 13.9268L4.92468 20ZM7.32994 13.1688L5.02324 10.8485C4.36496 10.1864 4.02429 9.39899 4.00124 8.4864C3.97818 7.57367 4.2778 6.77081 4.90009 6.07782L9.62745 10.8578L7.32994 13.1688Z" fill="#E8EAED"/>
<rect x="18" width="6" height="6" rx="3" fill="#0CA724"/>
</svg>
