<svg width="24" height="24" viewBox="0 0 24 24" fill="none" xmlns="http://www.w3.org/2000/svg">
<rect x="0.5" y="2.5" width="21" height="21" rx="2.5" fill="#121212" stroke="white"/>
<path d="M8.668 17.2719H13.332V16.4461L12.5547 16.0154C12.9822 16.0154 13.3482 15.8467 13.6526 15.5093C13.9571 15.1719 14.1093 14.7662 14.1093 14.2922V10.4154C14.1093 9.79439 13.8698 9.35199 13.3907 9.08817C12.9117 8.82434 12.1155 8.69243 11.0021 8.69243C9.92758 8.69243 9.14035 8.82971 8.64042 9.10427C8.14063 9.37882 7.89074 9.81718 7.89074 10.4193V14.2899C7.89074 14.7629 8.04295 15.1688 8.34737 15.5074C8.65179 15.846 9.01775 16.0154 9.44526 16.0154L8.668 16.4461V17.2719ZM9.63979 15.1539C9.47137 15.1539 9.33207 15.0928 9.2219 14.9707C9.11172 14.8486 9.05663 14.6942 9.05663 14.5076C9.05663 14.3211 9.11172 14.1667 9.2219 14.0446C9.33207 13.9225 9.47137 13.8615 9.63979 13.8615C9.80807 13.8615 9.9473 13.9225 10.0575 14.0446C10.1676 14.1667 10.2227 14.3211 10.2227 14.5076C10.2227 14.6942 10.1676 14.8486 10.0575 14.9707C9.9473 15.0928 9.80807 15.1539 9.63979 15.1539ZM12.3602 15.1539C12.1919 15.1539 12.0527 15.0928 11.9425 14.9707C11.8324 14.8486 11.7773 14.6942 11.7773 14.5076C11.7773 14.3211 11.8324 14.1667 11.9425 14.0446C12.0527 13.9225 12.1919 13.8615 12.3602 13.8615C12.5286 13.8615 12.6679 13.9225 12.7781 14.0446C12.8883 14.1667 12.9434 14.3211 12.9434 14.5076C12.9434 14.6942 12.8883 14.8486 12.7781 14.9707C12.6679 15.0928 12.5286 15.1539 12.3602 15.1539ZM8.89474 13.0359V10.4154H13.1053V13.0359H8.89474ZM4.52232 20C4.10365 20 3.74526 19.8348 3.44716 19.5044C3.14905 19.174 3 18.7768 3 18.3128V15.7552C3 15.602 3.03972 15.4662 3.11916 15.3478C3.19846 15.2293 3.30449 15.1485 3.43726 15.1054C3.80653 14.9151 4.10667 14.6326 4.33768 14.2579C4.5687 13.883 4.68421 13.4636 4.68421 12.9995C4.68421 12.5355 4.5687 12.1163 4.33768 11.7419C4.10667 11.3673 3.80653 11.0849 3.43726 10.8946C3.30449 10.8515 3.19846 10.7707 3.11916 10.6522C3.03972 10.5338 3 10.398 3 10.2448V7.68723C3 7.22321 3.14905 6.826 3.44716 6.4956C3.74526 6.1652 4.10365 6 4.52232 6H17.4777C17.8964 6 18.2547 6.1652 18.5528 6.4956C18.8509 6.826 19 7.22321 19 7.68723V10.2448C19 10.398 18.9603 10.5338 18.8808 10.6522C18.8015 10.7707 18.6955 10.8515 18.5627 10.8946C18.1935 11.0849 17.8933 11.3674 17.6623 11.7421C17.4313 12.117 17.3158 12.5364 17.3158 13.0005C17.3158 13.4645 17.4313 13.8837 17.6623 14.2581C17.8933 14.6327 18.1935 14.9151 18.5627 15.1054C18.6955 15.1485 18.8015 15.2293 18.8808 15.3478C18.9603 15.4662 19 15.602 19 15.7552V18.3128C19 18.7768 18.8509 19.174 18.5528 19.5044C18.2547 19.8348 17.8964 20 17.4777 20H4.52232ZM4.52232 18.6H17.4777C17.5533 18.6 17.6154 18.5731 17.664 18.5193C17.7126 18.4654 17.7368 18.3966 17.7368 18.3128V16.22C17.2175 15.8778 16.807 15.4228 16.5053 14.855C16.2035 14.2872 16.0526 13.6689 16.0526 13C16.0526 12.3311 16.2035 11.7128 16.5053 11.145C16.807 10.5772 17.2175 10.1222 17.7368 9.78V7.68723C17.7368 7.60339 17.7126 7.53456 17.664 7.48073C17.6154 7.42691 17.5533 7.4 17.4777 7.4H4.52232C4.44667 7.4 4.38456 7.42691 4.336 7.48073C4.28744 7.53456 4.26316 7.60339 4.26316 7.68723V9.78C4.78246 10.1222 5.19298 10.5772 5.49474 11.145C5.79649 11.7128 5.94737 12.3311 5.94737 13C5.94737 13.6689 5.79649 14.2872 5.49474 14.855C5.19298 15.4228 4.78246 15.8778 4.26316 16.22V18.3128C4.26316 18.3966 4.28744 18.4654 4.336 18.5193C4.38456 18.5731 4.44667 18.6 4.52232 18.6Z" fill="#E8EAED"/>
<rect x="18" width="6" height="6" rx="3" fill="#E40404"/>
</svg>
