<svg width="24" height="24" viewBox="0 0 24 24" fill="none" xmlns="http://www.w3.org/2000/svg">
<rect x="0.5" y="2.5" width="21" height="21" rx="2.5" fill="#121212" stroke="white"/>
<path d="M15.6169 9.83594H7.1597C6.85142 9.83594 6.60156 9.58608 6.60156 9.2778C6.60156 8.96953 6.85142 8.71967 7.1597 8.71967H15.6169C15.9252 8.71967 16.1751 8.96953 16.1751 9.2778C16.1751 9.58608 15.9252 9.83594 15.6169 9.83594Z" fill="white"/>
<path d="M15.1659 7.97461H7.39407C7.08561 7.97461 6.83594 7.72475 6.83594 7.41647C6.83594 7.1082 7.08561 6.85834 7.39407 6.85834H15.1659C15.4742 6.85834 15.7241 7.1082 15.7241 7.41647C15.7241 7.72475 15.4742 7.97461 15.1659 7.97461Z" fill="white"/>
<path d="M10.8233 6.11719H9.25345C8.94499 6.11719 8.69531 5.86733 8.69531 5.55905C8.69531 5.25078 8.94499 5.00092 9.25345 5.00092H10.8233C11.1316 5.00092 11.3814 5.25078 11.3814 5.55905C11.3814 5.86733 11.1316 6.11719 10.8233 6.11719Z" fill="white"/>
<path d="M13.7451 20.998H7.58157C7.2733 20.998 7.02344 20.7482 7.02344 20.4399C7.02344 20.1316 7.2733 19.8818 7.58157 19.8818H13.7451C14.0533 19.8818 14.3032 20.1316 14.3032 20.4399C14.3032 20.7482 14.0533 20.998 13.7451 20.998Z" fill="white"/>
<path d="M15.8848 19.1387H8.32376C8.01548 19.1387 7.76562 18.8888 7.76562 18.5805C7.76562 18.2723 8.01548 18.0224 8.32376 18.0224H15.8848C16.1931 18.0224 16.443 18.2723 16.443 18.5805C16.443 18.8888 16.1931 19.1387 15.8848 19.1387Z" fill="white"/>
<path d="M13.9771 17.2773H6.31595C6.00767 17.2773 5.75781 17.0275 5.75781 16.7192C5.75781 16.4109 6.00767 16.1611 6.31595 16.1611H13.9771C14.2854 16.1611 14.5352 16.4109 14.5352 16.7192C14.5352 17.0275 14.2854 17.2773 13.9771 17.2773Z" fill="white"/>
<path d="M12.779 15.418H5.88626C5.57798 15.418 5.32812 15.1681 5.32812 14.8598C5.32812 14.5516 5.57798 14.3017 5.88626 14.3017H12.779C13.0873 14.3017 13.3372 14.5516 13.3372 14.8598C13.3372 15.1681 13.0873 15.418 12.779 15.418Z" fill="white"/>
<path d="M16.9651 13.5586H5.55814C5.24986 13.5586 5 13.3087 5 13.0005C5 12.6922 5.24986 12.4423 5.55814 12.4423H16.9651C17.2734 12.4423 17.5233 12.6922 17.5233 13.0005C17.5233 13.3087 17.2734 13.5586 16.9651 13.5586Z" fill="white"/>
<path d="M16.4665 11.6992H6.55032C6.24205 11.6992 5.99219 11.4494 5.99219 11.1411C5.99219 10.8328 6.24205 10.5829 6.55032 10.5829H16.4665C16.7748 10.5829 17.0247 10.8328 17.0247 11.1411C17.0247 11.4494 16.7748 11.6992 16.4665 11.6992Z" fill="white"/>
<rect x="18" width="6" height="6" rx="3" fill="#E40404"/>
</svg>
