<svg width="24" height="24" viewBox="0 0 24 24" fill="none" xmlns="http://www.w3.org/2000/svg">
<rect x="0.5" y="2.5" width="21" height="21" rx="2.5" fill="#121212" stroke="white"/>
<path d="M4.52232 20C4.09691 20 3.73684 19.85 3.44211 19.55C3.14737 19.25 3 18.8835 3 18.4505V9.5495C3 9.1165 3.14737 8.75 3.44211 8.45C3.73684 8.15 4.09691 8 4.52232 8H8.05263V6.5495C8.05263 6.1165 8.2 5.75 8.49474 5.45C8.78947 5.15 9.14954 5 9.57495 5H12.4251C12.8505 5 13.2105 5.15 13.5053 5.45C13.8 5.75 13.9474 6.1165 13.9474 6.5495V8H17.4777C17.9031 8 18.2632 8.15 18.5579 8.45C18.8526 8.75 19 9.1165 19 9.5495V18.4505C19 18.8835 18.8526 19.25 18.5579 19.55C18.2632 19.85 17.9031 20 17.4777 20H4.52232ZM4.52232 18.7143H17.4777C17.5425 18.7143 17.6019 18.6868 17.6558 18.6318C17.7098 18.5769 17.7368 18.5165 17.7368 18.4505V9.5495C17.7368 9.4835 17.7098 9.42307 17.6558 9.36821C17.6019 9.31321 17.5425 9.28571 17.4777 9.28571H4.52232C4.45747 9.28571 4.39811 9.31321 4.34421 9.36821C4.29018 9.42307 4.26316 9.4835 4.26316 9.5495V18.4505C4.26316 18.5165 4.29018 18.5769 4.34421 18.6318C4.39811 18.6868 4.45747 18.7143 4.52232 18.7143ZM9.31579 8H12.6842V6.5495C12.6842 6.4835 12.6572 6.42307 12.6032 6.36821C12.5493 6.31321 12.4899 6.28571 12.4251 6.28571H9.57495C9.51011 6.28571 9.45074 6.31321 9.39684 6.36821C9.34281 6.42307 9.31579 6.4835 9.31579 6.5495V8Z" fill="white"/>
<rect x="18" width="6" height="6" rx="3" fill="#0CA724"/>
</svg>
