<svg width="24" height="24" viewBox="0 0 24 24" fill="none" xmlns="http://www.w3.org/2000/svg">
<rect x="0.5" y="2.5" width="21" height="21" rx="2.5" fill="#121212" stroke="white"/>
<path d="M1 19V16.888H14.045V19H1ZM14.947 19V16.888H16.0225V19H14.947ZM16.9245 19V16.888H18V19H16.9245ZM14.947 15.8321V14.6807C14.947 14.1278 14.7741 13.6915 14.4283 13.3717C14.0826 13.0522 13.6691 12.8924 13.188 12.8924H11.7898C11.0288 12.8924 10.3812 12.6277 9.84706 12.0984C9.31275 11.569 9.04559 10.9241 9.04559 10.164C9.04559 9.42282 9.31275 8.79416 9.84706 8.27798C10.3812 7.7618 11.0288 7.50371 11.7898 7.50371V8.55961C11.3388 8.55961 10.9479 8.71121 10.6172 9.01439C10.2864 9.31758 10.1211 9.70025 10.1211 10.1624C10.1211 10.6244 10.2864 11.019 10.6172 11.3461C10.9479 11.673 11.3388 11.8365 11.7898 11.8365H13.188C13.9605 11.8365 14.626 12.0922 15.1847 12.6037C15.7432 13.1153 16.0225 13.7441 16.0225 14.4901V15.8321H14.947ZM16.9245 15.8321V13.8394C16.9245 12.8652 16.5787 12.0465 15.8872 11.3835C15.1956 10.7203 14.3387 10.3887 13.3163 10.3887V9.33278C13.7674 9.33278 14.1554 9.17329 14.4804 8.85431C14.8053 8.53518 14.9678 8.15421 14.9678 7.71139C14.9678 7.2572 14.8053 6.86774 14.4804 6.54301C14.1554 6.21827 13.7674 6.05591 13.3163 6.05591V5C14.0772 5 14.722 5.2651 15.2506 5.79531C15.779 6.32566 16.0432 6.96435 16.0432 7.71139C16.0432 8.13945 15.9577 8.51703 15.7866 8.84413C15.6154 9.17108 15.3944 9.45625 15.1238 9.69966C15.9369 10.016 16.6195 10.5387 17.1717 11.2677C17.7239 11.9966 18 12.8538 18 13.8394V15.8321H16.9245Z" fill="white"/>
<rect x="18" width="6" height="6" rx="3" fill="#E40404"/>
</svg>
