<svg width="24" height="24" viewBox="0 0 24 24" fill="none" xmlns="http://www.w3.org/2000/svg">
<rect x="0.5" y="2.5" width="21" height="21" rx="2.5" fill="#121212" stroke="white"/>
<path d="M13.0811 14V12.6474L16.0365 9.7211C16.2878 9.46098 16.4986 9.22688 16.6689 9.01879C16.8419 8.81069 16.973 8.60694 17.0622 8.40751C17.1514 8.2052 17.1959 7.98699 17.1959 7.75289C17.1959 7.49277 17.1405 7.26879 17.0297 7.08093C16.9189 6.89017 16.7676 6.74422 16.5757 6.64306C16.3838 6.53902 16.1662 6.48699 15.923 6.48699C15.6689 6.48699 15.4473 6.54191 15.2581 6.65173C15.0689 6.76156 14.923 6.91908 14.8203 7.12428C14.7176 7.32948 14.6662 7.5737 14.6662 7.85694H13C13 7.27601 13.123 6.77168 13.3689 6.34393C13.6149 5.91619 13.9595 5.58526 14.4027 5.35116C14.8459 5.11705 15.3568 5 15.9351 5C16.5297 5 17.0473 5.11272 17.4878 5.33815C17.9311 5.56069 18.2757 5.86994 18.5216 6.2659C18.7676 6.66185 18.8905 7.11561 18.8905 7.62717C18.8905 7.96243 18.8284 8.29335 18.7041 8.61994C18.5824 8.94653 18.3649 9.30925 18.0514 9.70809C17.7378 10.104 17.2959 10.5795 16.7257 11.1344L15.5135 12.4046V12.4653H19V14H13.0811Z" fill="white"/>
<path d="M7.83106 8.09363C7.41691 8.09363 7.0611 7.94163 6.76364 7.63762C6.46632 7.33361 6.31765 6.96998 6.31765 6.54671C6.31765 6.12359 6.46632 5.76002 6.76364 5.45601C7.0611 5.152 7.41691 5 7.83106 5C8.24521 5 8.60101 5.152 8.89847 5.45601C9.19593 5.76002 9.34466 6.12359 9.34466 6.54671C9.34466 6.96998 9.19593 7.33361 8.89847 7.63762C8.60101 7.94163 8.24521 8.09363 7.83106 8.09363ZM12.5924 19.1632H7.50948C7.09533 19.1632 6.71882 19.0192 6.37996 18.7313C6.04096 18.4434 5.8289 18.0879 5.74377 17.6646L4 8.68978H5.25495L7.01123 17.6485C7.02708 17.713 7.0652 17.7721 7.12559 17.8257C7.18599 17.8795 7.24775 17.9064 7.31088 17.9064H12.5924V19.1632ZM16.9281 21L14.6924 17.0685H8.88433C8.53536 17.0685 8.23503 16.9611 7.98334 16.7463C7.73152 16.5314 7.56728 16.251 7.49062 15.9051L6.55725 11.3098C6.42266 10.6878 6.56326 10.1467 6.97905 9.68643C7.3947 9.22616 7.89104 8.99602 8.46806 8.99602C8.89902 8.99602 9.29213 9.12785 9.64739 9.3915C10.0026 9.65529 10.2297 10.0143 10.3285 10.4686L11.2774 14.9738H14.1312C14.3813 14.9738 14.6136 15.0399 14.8281 15.172C15.0425 15.3041 15.2169 15.4851 15.3513 15.7151L18 20.3716L16.9281 21Z" fill="white"/>
</svg>
