<svg width="24" height="24" viewBox="0 0 24 24" fill="none" xmlns="http://www.w3.org/2000/svg">
<rect x="0.5" y="2.5" width="21" height="21" rx="2.5" fill="#121212" stroke="white"/>
<path d="M10.442 17.556C10.0675 17.6877 9.59206 17.7953 9.02273 17.7953C6.94671 17.7953 4.70663 16.0698 4.70663 13.2822C4.70663 10.8399 6.68444 8.77667 9.0257 8.77667C9.57884 8.77667 10.0467 8.8843 10.4153 9.01291L10.9641 7.32989C10.3397 7.11114 9.68488 6.99971 9.0257 7C5.70309 7 3 9.81807 3 13.2819C3 16.7503 5.70174 19.5714 9.02246 19.5714C9.80036 19.5714 10.4666 19.4216 11 19.232L10.442 17.556Z" fill="white"/>
<path d="M17.5511 7L10.6108 13.4341L7.87621 10.9346L6.42969 12.3046L10.6087 16.1429L19.0011 8.38492L17.5511 7Z" fill="white"/>
<rect x="18" width="6" height="6" rx="3" fill="#0CA724"/>
</svg>
