<svg width="24" height="24" viewBox="0 0 24 24" fill="none" xmlns="http://www.w3.org/2000/svg">
<rect x="0.5" y="2.5" width="21" height="21" rx="2.5" fill="#121212" stroke="white"/>
<path d="M19.6454 16.5339C19.5255 16.4109 19.358 16.346 19.1869 16.3553L17.1154 16.4706L18.2554 15.1723C18.4178 14.9873 18.4642 14.7408 18.4014 14.5205C18.3683 14.3695 18.2769 14.2322 18.1364 14.1444C18.1321 14.1413 15.4114 12.5608 15.4114 12.5608C15.1893 12.4318 14.9093 12.4602 14.7176 12.6312L13.3886 13.8167C13.1437 14.0351 13.1223 14.4107 13.3407 14.6555C13.5592 14.9004 13.9347 14.9219 14.1796 14.7034L15.1871 13.8046L16.0201 14.2883L14.5498 15.9629C13.9401 16.0623 13.3916 16.3432 12.9609 16.7483L13.7287 17.5161C14.0758 17.2005 14.5367 17.0079 15.0417 17.0079C16.1188 17.0079 16.9951 17.8842 16.9951 18.9614C16.9951 19.4663 16.8025 19.9272 16.4869 20.2742L17.2547 21.042C17.7661 20.4983 18.08 19.7668 18.08 18.9614C18.08 18.4815 17.9686 18.0278 17.7705 17.6242L18.5724 17.5796L18.3773 19.9722C18.3506 20.2992 18.5942 20.5859 18.9212 20.6126C18.9376 20.6139 18.954 20.6146 18.9701 20.6146C19.2764 20.6146 19.5363 20.3793 19.5616 20.0687L19.812 16.9968C19.826 16.8256 19.7652 16.6568 19.6454 16.5339Z" fill="white"/>
<path d="M18.5414 13.989C19.0906 13.989 19.5358 13.5438 19.5358 12.9945C19.5358 12.4453 19.0906 12 18.5414 12C17.9921 12 17.5469 12.4453 17.5469 12.9945C17.5469 13.5438 17.9921 13.989 18.5414 13.989Z" fill="white"/>
<path d="M15.0384 20.9154C13.9612 20.9154 13.0849 20.0391 13.0849 18.9619C13.0849 18.556 13.2095 18.1786 13.4222 17.8659L12.6461 17.0898C12.2417 17.6059 12 18.2555 12 18.9619C12 20.64 13.3603 22.0003 15.0384 22.0003C15.7448 22.0003 16.3944 21.7585 16.9104 21.3541L16.1343 20.5781C15.8216 20.7908 15.4443 20.9154 15.0384 20.9154Z" fill="white"/>
<path d="M7.81534 11L6.15057 5.18182H7.49432L8.45739 9.22443H8.50568L9.56818 5.18182H10.7188L11.7784 9.23295H11.8295L12.7926 5.18182H14.1364L12.4716 11H11.2727L10.1648 7.19602H10.1193L9.0142 11H7.81534ZM19.6001 7.21875H18.3558C18.3331 7.05777 18.2867 6.91477 18.2166 6.78977C18.1465 6.66288 18.0566 6.55492 17.9467 6.46591C17.8369 6.37689 17.71 6.30871 17.5661 6.26136C17.424 6.21402 17.2696 6.19034 17.103 6.19034C16.8018 6.19034 16.5395 6.26515 16.3161 6.41477C16.0926 6.5625 15.9193 6.77841 15.7962 7.0625C15.6731 7.3447 15.6115 7.6875 15.6115 8.09091C15.6115 8.50568 15.6731 8.85417 15.7962 9.13636C15.9212 9.41856 16.0954 9.63163 16.3189 9.77557C16.5424 9.91951 16.8009 9.99148 17.0945 9.99148C17.2592 9.99148 17.4117 9.9697 17.5518 9.92614C17.6939 9.88258 17.8198 9.81913 17.9297 9.7358C18.0395 9.65057 18.1304 9.54735 18.2024 9.42614C18.2763 9.30492 18.3274 9.16667 18.3558 9.01136L19.6001 9.01705C19.5679 9.28409 19.4875 9.54167 19.3587 9.78977C19.2318 10.036 19.0604 10.2566 18.8445 10.4517C18.6304 10.6449 18.3748 10.7983 18.0774 10.9119C17.782 11.0237 17.4477 11.0795 17.0746 11.0795C16.5556 11.0795 16.0916 10.9621 15.6825 10.7273C15.2753 10.4924 14.9534 10.1525 14.7166 9.70739C14.4818 9.26231 14.3643 8.72348 14.3643 8.09091C14.3643 7.45644 14.4837 6.91667 14.7223 6.47159C14.9609 6.02652 15.2848 5.6875 15.6939 5.45455C16.103 5.2197 16.5632 5.10227 17.0746 5.10227C17.4117 5.10227 17.7242 5.14962 18.0121 5.24432C18.3018 5.33902 18.5585 5.47727 18.782 5.65909C19.0054 5.83901 19.1873 6.05966 19.3274 6.32102C19.4695 6.58239 19.5604 6.88163 19.6001 7.21875Z" fill="white"/>
<rect x="18" width="6" height="6" rx="3" fill="#E4A504"/>
</svg>
