<svg width="24" height="24" viewBox="0 0 24 24" fill="none" xmlns="http://www.w3.org/2000/svg">
<rect x="0.5" y="2.5" width="21" height="21" rx="2.5" fill="#121212" stroke="white"/>
<path d="M10.3125 13.3146C10.3125 12.9938 10.5769 12.7399 10.8872 12.7399C11.1974 12.7399 11.4618 12.9938 11.4618 13.3146C11.4609 13.4667 11.4 13.6123 11.2924 13.7199C11.1849 13.8274 11.0393 13.8883 10.8872 13.8893C10.7351 13.8883 10.5895 13.8274 10.4819 13.7199C10.3743 13.6123 10.3135 13.4667 10.3125 13.3146ZM14.876 13.3146C14.876 12.9938 15.139 12.7399 15.4507 12.7399C15.761 12.7399 16.0254 12.9938 16.0254 13.3146C16.0259 13.3902 16.0113 13.4651 15.9826 13.5351C15.9539 13.605 15.9116 13.6686 15.8582 13.722C15.8047 13.7755 15.7411 13.8178 15.6712 13.8465C15.6013 13.8752 15.5263 13.8897 15.4507 13.8893C15.3751 13.8897 15.3002 13.8752 15.2302 13.8465C15.1602 13.8178 15.0967 13.7755 15.0433 13.722C14.9898 13.6686 14.9475 13.605 14.9188 13.5351C14.8901 13.4651 14.8755 13.3902 14.876 13.3146ZM10.4289 7.95703H15.9007V11.7912C14.8603 11.9467 13.9513 12.0203 13.1648 12.0203C12.3783 12.0203 11.4611 11.9549 10.4289 11.7912V7.95703Z" fill="white"/>
<path d="M18.0308 16.6698C18.0462 16.6538 18.0646 16.6411 18.0852 16.6324C18.1056 16.6236 18.1276 16.6191 18.1498 16.6191C18.1721 16.6191 18.1941 16.6236 18.2145 16.6324C18.235 16.6411 18.2535 16.6538 18.2689 16.6698L19.9516 18.3931C19.9673 18.4088 19.9797 18.4275 19.988 18.4482C19.9964 18.4687 20.0004 18.4908 20 18.5131C19.9996 18.5353 19.9947 18.5572 19.9856 18.5775C19.9765 18.5978 19.9634 18.6161 19.9471 18.6312L19.6233 18.9347C19.5917 18.9648 19.5494 18.9811 19.5058 18.9801C19.4622 18.979 19.4207 18.9609 19.3904 18.9295L18.5408 18.0596V19.1233C18.5408 20.3177 17.5898 21.2927 16.3916 21.3611L16.2572 21.3649H9.35966C9.31639 21.3649 9.275 21.3476 9.24443 21.3171C9.21386 21.2865 9.19665 21.245 9.19665 21.2018V20.7564C9.19665 20.6662 9.26952 20.5934 9.35966 20.5934H16.2572C17.0873 20.5934 17.7596 19.9346 17.7596 19.1233L17.7588 18.0596L16.91 18.9295C16.886 18.9545 16.8548 18.9715 16.8207 18.9778C16.7866 18.9841 16.7513 18.9796 16.7199 18.9648L16.6764 18.9347L16.3533 18.6312C16.337 18.6161 16.3238 18.598 16.3147 18.5777C16.3055 18.5574 16.3005 18.5355 16.3 18.5132C16.2996 18.491 16.3035 18.4689 16.3118 18.4482C16.3201 18.4276 16.3324 18.4088 16.3481 18.3931L18.0308 16.6698ZM8.13746 20.5934C8.2276 20.5934 8.30047 20.667 8.30047 20.7564V21.2018C8.30047 21.292 8.2276 21.3649 8.13746 21.3649H3.16301C3.11978 21.3649 3.07831 21.3476 3.04775 21.3171C3.01717 21.2865 3 21.245 3 21.2018V20.7564C3 20.6662 3.07287 20.5934 3.16301 20.5934H8.13746Z" fill="white"/>
<path fill-rule="evenodd" clip-rule="evenodd" d="M8.04563 18.6872V15.5487C7.49192 14.9334 7.04714 14.2281 6.73028 13.4633C6.5826 13.4253 6.43063 13.4061 6.27806 13.4063H4.95823C4.01547 13.4295 3.25 14.1973 3.25 15.1423V18.745C3.28531 19.4887 3.87425 20.0919 4.62845 20.1272C4.65174 19.9267 4.80499 19.82 4.97025 19.844C5.42008 19.9025 5.87558 19.9025 6.32538 19.844C6.36693 19.8371 6.40952 19.8391 6.45023 19.85C6.49095 19.8609 6.52873 19.8805 6.56119 19.9074C6.59364 19.9342 6.61993 19.9678 6.63818 20.0058C6.65651 20.0437 6.66643 20.0852 6.66718 20.1272C7.03767 20.109 7.38706 19.9495 7.64344 19.6815C7.8999 19.4135 8.04383 19.0581 8.04563 18.6872ZM4.18074 18.9336C4.18074 18.7533 4.28666 18.588 4.45117 18.588H4.93494C5.10021 18.588 5.20537 18.7533 5.20537 18.9336C5.20537 19.1139 5.10021 19.2791 4.93494 19.2791H4.45192C4.28666 19.2791 4.18074 19.1139 4.18074 18.9336ZM6.08951 18.9336C6.08951 18.7383 6.20745 18.588 6.35994 18.588H6.84371C7.00898 18.588 7.11415 18.7533 7.11415 18.9336C7.11415 19.1289 6.99696 19.2791 6.84371 19.2791H6.36069C6.19543 19.2791 6.08951 19.1139 6.08951 18.9336ZM4.84029 14.2776H6.44332C6.79639 14.2776 7.09086 14.5616 7.09086 14.9011L6.93761 17.4214C6.93761 17.7159 6.68972 17.966 6.38398 17.966H4.89964C4.82739 17.9672 4.75564 17.9539 4.68856 17.9271C4.62149 17.9002 4.56042 17.8602 4.50891 17.8096C4.4574 17.7589 4.41647 17.6985 4.3885 17.6318C4.36054 17.5652 4.34609 17.4937 4.346 17.4214L4.20402 14.9019C4.2058 14.7348 4.2738 14.5753 4.39308 14.4582C4.51236 14.3412 4.67319 14.2763 4.84029 14.2776Z" fill="white"/>
<path d="M7.39326 20.8592H3.89266V20.4333C3.89266 20.4055 3.9152 20.383 3.94299 20.383H4.30056C4.32836 20.383 4.35165 20.4055 4.35165 20.4333V20.8592H6.93278V20.4333C6.93278 20.4055 6.95531 20.383 6.98311 20.383H7.34293C7.37073 20.383 7.39326 20.4055 7.39326 20.4333V20.8592ZM6.23341 12.2324L6.34233 12.3166C6.36089 12.3852 6.38237 12.4603 6.40694 12.5419L6.47755 12.7695L6.52412 12.916H4.54621C4.49455 12.9175 4.44464 12.9351 4.40348 12.9664L4.26375 13.0678C4.19615 13.1354 4.10525 13.1166 4.03689 13.0467L3.92421 12.8942L3.8228 12.7545C3.75594 12.6869 3.77472 12.596 3.84383 12.5277L3.99483 12.4165C4.15325 12.2959 4.34713 12.2312 4.54621 12.2324H6.23341Z" fill="white"/>
<path fill-rule="evenodd" clip-rule="evenodd" d="M13.2084 4C12.3304 3.99951 11.461 4.17206 10.6498 4.50778C9.83856 4.84351 9.10141 5.33584 8.48062 5.95661C7.85975 6.57738 7.36734 7.31445 7.03155 8.12559C6.69569 8.93681 6.52306 9.80625 6.52344 10.6842C6.52299 11.5622 6.69554 12.4317 7.03132 13.243C7.36711 14.0543 7.85945 14.7914 8.48032 15.4122C9.10118 16.0331 9.83834 16.5255 10.6496 16.8612C11.4609 17.197 12.3304 17.3696 13.2084 17.3691C14.0863 17.3695 14.9557 17.1969 15.767 16.8611C16.5781 16.5252 17.3152 16.0328 17.936 15.412C18.5567 14.7911 19.049 14.0541 19.3848 13.2428C19.7205 12.4315 19.8931 11.5621 19.8926 10.6842C19.8929 9.80633 19.7203 8.93697 19.3846 8.12582C19.0488 7.31467 18.5565 6.57763 17.9357 5.95687C17.315 5.33611 16.5779 4.84377 15.7668 4.508C14.9557 4.17223 14.0863 3.99961 13.2084 4ZM16.0103 6.41661C15.7887 6.29342 15.5671 6.25285 15.1495 6.25285C15.1495 6.25285 11.1028 6.25285 11.1193 6.26036C10.7587 6.26938 10.5544 6.30994 10.3493 6.42488C10.136 6.54732 9.96394 6.70282 9.85802 6.91616C9.73482 7.13777 9.69426 7.35862 9.69426 7.77629V8.09555C9.63596 8.05708 9.5673 8.03718 9.49744 8.03845C9.39776 8.03943 9.30235 8.07947 9.23189 8.15001C9.16135 8.22047 9.12131 8.31587 9.12034 8.41556V9.74218C9.12034 9.94725 9.29311 10.1193 9.49744 10.1193C9.56678 10.1168 9.63438 10.0971 9.69426 10.0622V13.1496C9.70177 13.5102 9.74308 13.7153 9.85802 13.9204C9.92337 14.0676 10.03 14.1825 10.1525 14.2884V14.649C10.1525 14.8954 10.3493 15.0922 10.5957 15.0922H10.8571C11.1028 15.0922 11.2996 14.9119 11.2996 14.5837H15.0511C15.0511 14.9277 15.2479 15.0915 15.4943 15.0915H15.7557C15.814 15.0918 15.8717 15.0807 15.9256 15.0586C15.9795 15.0366 16.0285 15.004 16.0697 14.9628C16.1109 14.9216 16.1436 14.8727 16.1658 14.8189C16.1879 14.765 16.1992 14.7072 16.1989 14.649V14.2884C16.3216 14.1908 16.4198 14.0681 16.4934 13.9204C16.6158 13.6987 16.6571 13.4779 16.6571 13.0602V10.0622C16.7145 10.0977 16.7803 10.1174 16.8477 10.1191C16.9152 10.1209 16.9819 10.1048 17.0411 10.0723C17.1002 10.0398 17.1496 9.99218 17.1843 9.93433C17.2191 9.87649 17.2378 9.81039 17.2386 9.74293V8.40654C17.2551 8.18494 17.0583 8.02944 16.8615 8.02944C16.7897 8.03214 16.7197 8.05198 16.6571 8.08728V7.66886C16.6489 7.30829 16.6076 7.10396 16.4934 6.89888C16.3873 6.69076 16.2179 6.52165 16.0096 6.41586L16.0103 6.41661Z" fill="white"/>
<rect x="18" width="6" height="6" rx="3" fill="#E4A504"/>
</svg>
