<svg width="24" height="24" viewBox="0 0 24 24" fill="none" xmlns="http://www.w3.org/2000/svg">
<rect x="0.5" y="2.5" width="21" height="21" rx="2.5" fill="#121212" stroke="white"/>
<path d="M9.52446 10.6028V7.8824C9.52446 7.8137 9.5478 7.7573 9.5945 7.71321C9.64133 7.66911 9.70105 7.64706 9.77365 7.64706H17.5362C17.6089 7.64706 17.6687 7.66911 17.7154 7.71321C17.762 7.7573 17.7854 7.8137 17.7854 7.8824V18.1176C17.7854 18.1863 17.762 18.2427 17.7154 18.2868C17.6687 18.3309 17.6089 18.3529 17.5362 18.3529H9.77365C9.70105 18.3529 9.64133 18.3309 9.5945 18.2868C9.5478 18.2427 9.52446 18.1863 9.52446 18.1176V15.3972H8.30985V18.1176C8.30985 18.4989 8.4529 18.8247 8.73901 19.0949C9.02498 19.365 9.36986 19.5 9.77365 19.5H17.5362C17.94 19.5 18.2849 19.365 18.571 19.0949C18.857 18.8247 19 18.4989 19 18.1176V7.8824C19 7.50106 18.857 7.1753 18.571 6.9051C18.2849 6.63503 17.94 6.5 17.5362 6.5H9.77365C9.36986 6.5 9.02498 6.63503 8.73901 6.9051C8.4529 7.1753 8.30985 7.50106 8.30985 7.8824V10.6028H9.52446Z" fill="white"/>
<path d="M3.02344 12.4275V13.5746H12.5737L11.1006 14.9658L11.9538 15.7951L14.9124 13.0011L11.9538 10.207L11.1006 11.0364L12.5737 12.4275H3.02344Z" fill="white"/>
</svg>
