<svg width="24" height="24" viewBox="0 0 24 24" fill="none" xmlns="http://www.w3.org/2000/svg">
<rect x="0.5" y="2.5" width="21" height="21" rx="2.5" fill="#121212" stroke="white"/>
<path d="M15.7023 11.3488C15.5345 11.1766 15.3 11.0857 15.0603 11.0988L12.1602 11.2602L13.7562 9.44248C13.9836 9.18355 14.0485 8.83838 13.9606 8.52994C13.9142 8.31859 13.7863 8.12628 13.5896 8.00342C13.5836 7.99911 9.77454 5.78635 9.77454 5.78635C9.46351 5.60567 9.07158 5.64548 8.80317 5.88489L6.94251 7.54463C6.59969 7.8504 6.56967 8.37619 6.87547 8.71902C7.18128 9.06181 7.70709 9.09192 8.04988 8.78604L9.46052 7.52772L10.6267 8.20493L8.56822 10.5493C7.71465 10.6885 6.94664 11.0819 6.34375 11.649L7.4187 12.7239C7.90464 12.2821 8.54984 12.0124 9.25685 12.0124C10.7649 12.0124 11.9918 13.2393 11.9918 14.7473C11.9918 15.4543 11.7221 16.0995 11.2803 16.5854L12.3552 17.6604C13.0712 16.8992 13.5107 15.8749 13.5107 14.7473C13.5107 14.0755 13.3547 13.4403 13.0774 12.8753L14.2 12.8128L13.9269 16.1625C13.8896 16.6204 14.2305 17.0218 14.6884 17.0592C14.7113 17.061 14.7342 17.0619 14.7569 17.0619C15.1856 17.0619 15.5496 16.7325 15.585 16.2977L15.9355 11.9969C15.9551 11.7573 15.87 11.5209 15.7023 11.3488Z" fill="white"/>
<path d="M14.158 7.78467C14.9269 7.78467 15.5502 7.16133 15.5502 6.39235C15.5502 5.62341 14.9269 5 14.158 5C13.3889 5 12.7656 5.62341 12.7656 6.39235C12.7656 7.16133 13.3889 7.78467 14.158 7.78467Z" fill="white"/>
<path d="M9.25387 17.4809C7.74582 17.4809 6.51891 16.254 6.51891 14.746C6.51891 14.1776 6.69329 13.6494 6.99117 13.2115L5.90462 12.125C5.33846 12.8475 5 13.757 5 14.746C5 17.0953 6.9045 18.9998 9.25387 18.9998C10.2429 18.9998 11.1523 18.6613 11.8748 18.0952L10.7882 17.0087C10.3504 17.3065 9.82216 17.4809 9.25387 17.4809Z" fill="white"/>
<path d="M3 14V21H10.5M18 14V21H10.5M10.5 21V23.5" stroke="white"/>
<rect x="18" width="6" height="6" rx="3" fill="#0CA724"/>
</svg>
