<svg width="24" height="24" viewBox="0 0 24 24" fill="none" xmlns="http://www.w3.org/2000/svg">
<rect x="0.5" y="2.5" width="21" height="21" rx="2.5" fill="#121212" stroke="white"/>
<path d="M16.9295 16.825C17.2403 16.9881 17.5024 16.9504 17.7159 16.712C17.9295 16.4735 17.959 16.2068 17.8046 15.9119L16.5549 13.5874L15.5454 16.111L16.9295 16.825ZM13.0976 16.1365H14.3186L16.1174 11.7069C16.1927 11.5182 16.1977 11.3638 16.1324 11.2439C16.0671 11.1239 15.964 11.0336 15.8229 10.973L14.3359 10.3812C14.1671 10.3158 14.0039 10.3163 13.8461 10.3827C13.6884 10.449 13.5971 10.5708 13.5723 10.7481L13.0976 16.1365ZM7.66708 16.1365H8.88812L8.41339 10.7198C8.3886 10.5557 8.29975 10.4419 8.14683 10.3783C7.99379 10.3148 7.82811 10.3158 7.64979 10.3812L6.16275 10.973C6.00165 11.0384 5.90066 11.1382 5.85977 11.2724C5.81875 11.4066 5.83114 11.561 5.89694 11.7354L7.66708 16.1365ZM5.05621 16.825L6.44027 16.111L5.44507 13.5874L4.18108 15.9402C4.01714 16.2399 4.04787 16.5007 4.27328 16.7226C4.49869 16.9445 4.75966 16.9786 5.05621 16.825ZM10.0034 16.1365H11.9823L12.5542 9.71552C12.579 9.54761 12.5368 9.40466 12.4277 9.28668C12.3186 9.16858 12.1749 9.10953 11.9966 9.10953H9.98909C9.84708 9.10953 9.71436 9.16501 9.59094 9.27596C9.46739 9.38691 9.41423 9.52394 9.43145 9.68704L10.0034 16.1365ZM4.6653 18C4.18945 18 3.79296 17.8295 3.47585 17.4885C3.15862 17.1476 3 16.7406 3 16.2675C3 16.1243 3.01933 15.9842 3.05799 15.8471C3.09653 15.7101 3.14678 15.5761 3.20874 15.4453L4.88743 12.2532C4.71865 11.7932 4.71171 11.3383 4.86661 10.8883C5.02151 10.4383 5.31538 10.1242 5.74824 9.94593L7.23528 9.35418C7.42785 9.27836 7.62278 9.23404 7.82006 9.22122C8.01734 9.2084 8.20272 9.24421 8.37621 9.32866C8.48303 8.95684 8.6818 8.64248 8.97251 8.38556C9.26323 8.12852 9.60574 8 10.0001 8H11.9966C12.3884 8 12.7309 8.12495 13.024 8.37484C13.317 8.62473 13.5217 8.93318 13.6381 9.30018C13.7972 9.21857 13.9755 9.18942 14.1729 9.21272C14.3702 9.23589 14.5627 9.28305 14.7504 9.35418L16.2375 9.94593C16.6855 10.1242 16.9944 10.4371 17.1641 10.8848C17.3337 11.3324 17.3165 11.7762 17.1126 12.2162L18.7913 15.4083C18.8561 15.5296 18.9071 15.6543 18.9442 15.7822C18.9814 15.9102 19 16.0435 19 16.182C19 16.6893 18.8253 17.1192 18.476 17.4715C18.1265 17.8238 17.6979 18 17.1901 18C17.0659 18 16.9445 17.9858 16.8258 17.9573C16.7069 17.9288 16.5881 17.8861 16.4692 17.8293L15.2882 17.2461H6.67466L5.5908 17.8151C5.44878 17.8919 5.29866 17.9419 5.14041 17.965C4.98216 17.9883 4.82379 18 4.6653 18Z" fill="white"/>
<rect x="18" width="6" height="6" rx="3" fill="#0CA724"/>
</svg>
