<svg width="24" height="24" viewBox="0 0 24 24" fill="none" xmlns="http://www.w3.org/2000/svg">
<rect x="0.5" y="2.5" width="21" height="21" rx="2.5" fill="#121212" stroke="white"/>
<path d="M3 19V17.3267C3 16.9389 3.1043 16.5927 3.31289 16.2883C3.52148 15.9839 3.80006 15.747 4.14863 15.5778C4.89386 15.228 5.64321 14.9582 6.39667 14.7686C7.15027 14.579 7.97843 14.4842 8.88115 14.4842C9.784 14.4842 10.6122 14.579 11.3656 14.7686C12.1192 14.9582 12.8686 15.228 13.6139 15.5778C13.9624 15.747 14.241 15.9839 14.4496 16.2883C14.6582 16.5927 14.7625 16.9389 14.7625 17.3267V19H3ZM16.3309 19V17.2342C16.3309 16.7402 16.2049 16.2693 15.9529 15.8217C15.7008 15.3741 15.3432 14.9901 14.8801 14.6696C15.4059 14.7448 15.9051 14.8613 16.3777 15.019C16.8502 15.1768 17.3011 15.3632 17.7304 15.5784C18.1356 15.7858 18.4485 16.0304 18.6691 16.312C18.8897 16.5935 19 16.9009 19 17.2342V19H16.3309ZM8.88115 13.2684C8.12638 13.2684 7.48028 13.0105 6.94285 12.4947C6.40543 11.9788 6.13672 11.3586 6.13672 10.6342C6.13672 9.90979 6.40543 9.28969 6.94285 8.77389C7.48028 8.25796 8.12638 8 8.88115 8C9.63592 8 10.2821 8.25796 10.8196 8.77389C11.3571 9.28969 11.6258 9.90979 11.6258 10.6342C11.6258 11.3586 11.3571 11.9788 10.8196 12.4947C10.2821 13.0105 9.63592 13.2684 8.88115 13.2684ZM15.6521 10.6342C15.6521 11.3586 15.3834 11.9788 14.846 12.4947C14.3086 13.0105 13.6625 13.2684 12.9077 13.2684C12.8192 13.2684 12.7066 13.2587 12.5699 13.2394C12.4331 13.2201 12.3205 13.1989 12.2321 13.1758C12.5414 12.8189 12.779 12.4231 12.9452 11.9882C13.1111 11.5533 13.1941 11.1017 13.1941 10.6334C13.1941 10.1651 13.1094 9.71517 12.9401 9.28379C12.7707 8.85254 12.5347 8.45553 12.2321 8.09276C12.3447 8.05413 12.4573 8.02904 12.5699 8.0175C12.6825 8.00583 12.7951 8 12.9077 8C13.6625 8 14.3086 8.25796 14.846 8.77389C15.3834 9.28969 15.6521 9.90979 15.6521 10.6342ZM4.17607 17.8711H13.5862V17.3267C13.5862 17.1696 13.5453 17.0297 13.4633 16.9071C13.3815 16.7846 13.2516 16.6775 13.0736 16.5858C12.4282 16.2664 11.7637 16.0244 11.08 15.8599C10.3963 15.6954 9.66337 15.6132 8.88115 15.6132C8.09906 15.6132 7.36618 15.6954 6.68251 15.8599C5.99883 16.0244 5.33431 16.2664 4.68893 16.5858C4.51092 16.6775 4.38094 16.7846 4.29899 16.9071C4.21705 17.0297 4.17607 17.1696 4.17607 17.3267V17.8711ZM8.88115 12.1394C9.31245 12.1394 9.68166 11.9921 9.9888 11.6973C10.2959 11.4025 10.4495 11.0481 10.4495 10.6342C10.4495 10.2202 10.2959 9.86588 9.9888 9.57111C9.68166 9.27633 9.31245 9.12894 8.88115 9.12894C8.44985 9.12894 8.08063 9.27633 7.7735 9.57111C7.46636 9.86588 7.31279 10.2202 7.31279 10.6342C7.31279 11.0481 7.46636 11.4025 7.7735 11.6973C8.08063 11.9921 8.44985 12.1394 8.88115 12.1394Z" fill="white"/>
<rect x="18" width="6" height="6" rx="3" fill="#E4A504"/>
</svg>
