<svg width="24" height="24" viewBox="0 0 24 24" fill="none" xmlns="http://www.w3.org/2000/svg">
<rect x="0.5" y="2.5" width="21" height="21" rx="2.5" fill="#121212" stroke="white"/>
<path d="M8.63335 14.4027V9H15.9667C16.8008 9 17.5149 9.30863 18.1088 9.92588C18.7029 10.543 19 11.2849 19 12.1516V14.4027H8.63335ZM3 17V15.6493H19V17H3ZM5.21672 14.4027C4.59445 14.4027 4.06947 14.1804 3.64177 13.7359C3.21392 13.2915 3 12.7461 3 12.0996C3 11.4532 3.21392 10.9077 3.64177 10.4632C4.06947 10.0189 4.59445 9.79667 5.21672 9.79667C5.83885 9.79667 6.36383 10.0189 6.79167 10.4632C7.21938 10.9077 7.43323 11.4532 7.43323 12.0996C7.43323 12.7461 7.21938 13.2915 6.79167 13.7359C6.36383 14.1804 5.83885 14.4027 5.21672 14.4027ZM5.21672 13.052C5.47643 13.052 5.69411 12.9608 5.86976 12.7783C6.04555 12.5956 6.13344 12.3694 6.13344 12.0996C6.13344 11.8297 6.04555 11.6036 5.86976 11.4211C5.69411 11.2384 5.47643 11.1471 5.21672 11.1471C4.95701 11.1471 4.73926 11.2384 4.56347 11.4211C4.38783 11.6036 4.3 11.8297 4.3 12.0996C4.3 12.3694 4.38783 12.5956 4.56347 12.7783C4.73926 12.9608 4.95701 13.052 5.21672 13.052ZM9.93335 13.052H17.7V12.1516C17.7 11.6563 17.5303 11.2324 17.1908 10.8797C16.8514 10.527 16.4433 10.3507 15.9667 10.3507H9.93335V13.052Z" fill="white"/>
<rect x="18" width="6" height="6" rx="3" fill="#0CA724"/>
</svg>
