<svg width="24" height="24" viewBox="0 0 24 24" fill="none" xmlns="http://www.w3.org/2000/svg">
<rect x="0.5" y="2.5" width="21" height="21" rx="2.5" fill="#121212" stroke="white"/>
<path d="M11 19C10.6054 19 10.2718 18.8531 9.99926 18.5593C9.72681 18.2655 9.59059 17.9057 9.59059 17.4801C9.59059 17.0545 9.72681 16.6949 9.99926 16.4011C10.2718 16.1072 10.6054 15.9603 11 15.9603C11.3946 15.9603 11.7282 16.1072 12.0007 16.4011C12.2732 16.6949 12.4094 17.0545 12.4094 17.4801C12.4094 17.9057 12.2732 18.2655 12.0007 18.5593C11.7282 18.8531 11.3946 19 11 19ZM7.05636 14.9643L5.96645 13.7658C6.61256 13.069 7.36481 12.5199 8.22322 12.1185C9.08175 11.717 10.0077 11.5163 11.001 11.5163C11.9945 11.5163 12.9201 11.719 13.7778 12.1243C14.6355 12.5296 15.3874 13.0845 16.0335 13.7889L14.9436 14.9643C14.4318 14.4123 13.8385 13.9795 13.1638 13.6659C12.489 13.3522 11.7678 13.1954 11 13.1954C10.2322 13.1954 9.51096 13.3522 8.83623 13.6659C8.16151 13.9795 7.56822 14.4123 7.05636 14.9643ZM4.08991 11.7653L3 10.5899C4.02104 9.47336 5.21344 8.59595 6.57719 7.95764C7.94095 7.31921 9.41522 7 11 7C12.5848 7 14.0591 7.31921 15.4228 7.95764C16.7866 8.59595 17.979 9.47336 19 10.5899L17.9101 11.7653C17.0143 10.7993 15.9761 10.0434 14.7953 9.4977C13.6145 8.95198 12.3494 8.67912 11 8.67912C9.65055 8.67912 8.38545 8.95198 7.20468 9.4977C6.02392 10.0434 4.98566 10.7993 4.08991 11.7653Z" fill="white"/>
<rect x="18" width="6" height="6" rx="3" fill="#0CA724"/>
</svg>
