<svg width="22" height="22" viewBox="0 0 22 22" fill="none" xmlns="http://www.w3.org/2000/svg">
<rect x="0.5" y="0.5" width="21" height="21" rx="2.5" fill="#121212" stroke="white"/>
<path d="M10.3125 11.3146C10.3125 10.9938 10.5769 10.7399 10.8872 10.7399C11.1974 10.7399 11.4618 10.9938 11.4618 11.3146C11.4609 11.4667 11.4 11.6123 11.2924 11.7199C11.1849 11.8274 11.0393 11.8883 10.8872 11.8893C10.7351 11.8883 10.5895 11.8274 10.4819 11.7199C10.3743 11.6123 10.3135 11.4667 10.3125 11.3146ZM14.876 11.3146C14.876 10.9938 15.139 10.7399 15.4507 10.7399C15.761 10.7399 16.0254 10.9938 16.0254 11.3146C16.0259 11.3902 16.0113 11.4651 15.9826 11.5351C15.9539 11.605 15.9116 11.6686 15.8582 11.722C15.8047 11.7755 15.7411 11.8178 15.6712 11.8465C15.6013 11.8752 15.5263 11.8897 15.4507 11.8893C15.3751 11.8897 15.3002 11.8752 15.2302 11.8465C15.1602 11.8178 15.0967 11.7755 15.0433 11.722C14.9898 11.6686 14.9475 11.605 14.9188 11.5351C14.8901 11.4651 14.8755 11.3902 14.876 11.3146ZM10.4289 5.95703H15.9007V9.79116C14.8603 9.94666 13.9513 10.0203 13.1648 10.0203C12.3783 10.0203 11.4611 9.95492 10.4289 9.79116V5.95703Z" fill="white"/>
<path d="M18.0308 14.6698C18.0462 14.6538 18.0646 14.6411 18.0852 14.6324C18.1056 14.6236 18.1276 14.6191 18.1498 14.6191C18.1721 14.6191 18.1941 14.6236 18.2145 14.6324C18.235 14.6411 18.2535 14.6538 18.2689 14.6698L19.9516 16.3931C19.9673 16.4088 19.9797 16.4275 19.988 16.4482C19.9964 16.4687 20.0004 16.4908 20 16.5131C19.9996 16.5353 19.9947 16.5572 19.9856 16.5775C19.9765 16.5978 19.9634 16.6161 19.9471 16.6312L19.6233 16.9347C19.5917 16.9648 19.5494 16.9811 19.5058 16.9801C19.4622 16.979 19.4207 16.9609 19.3904 16.9295L18.5408 16.0596V17.1233C18.5408 18.3177 17.5898 19.2927 16.3916 19.3611L16.2572 19.3649H9.35966C9.31639 19.3649 9.275 19.3476 9.24443 19.3171C9.21386 19.2865 9.19665 19.245 9.19665 19.2018V18.7564C9.19665 18.6662 9.26952 18.5934 9.35966 18.5934H16.2572C17.0873 18.5934 17.7596 17.9346 17.7596 17.1233L17.7588 16.0596L16.91 16.9295C16.886 16.9545 16.8548 16.9715 16.8207 16.9778C16.7866 16.9841 16.7513 16.9796 16.7199 16.9648L16.6764 16.9347L16.3533 16.6312C16.337 16.6161 16.3238 16.598 16.3147 16.5777C16.3055 16.5574 16.3005 16.5355 16.3 16.5132C16.2996 16.491 16.3035 16.4689 16.3118 16.4482C16.3201 16.4276 16.3324 16.4088 16.3481 16.3931L18.0308 14.6698ZM8.13746 18.5934C8.2276 18.5934 8.30047 18.667 8.30047 18.7564V19.2018C8.30047 19.292 8.2276 19.3649 8.13746 19.3649H3.16301C3.11978 19.3649 3.07831 19.3476 3.04775 19.3171C3.01717 19.2865 3 19.245 3 19.2018V18.7564C3 18.6662 3.07287 18.5934 3.16301 18.5934H8.13746Z" fill="white"/>
<path fill-rule="evenodd" clip-rule="evenodd" d="M8.04563 16.6872V13.5487C7.49192 12.9334 7.04714 12.2281 6.73028 11.4633C6.5826 11.4253 6.43063 11.4061 6.27806 11.4063H4.95823C4.01547 11.4295 3.25 12.1973 3.25 13.1423V16.745C3.28531 17.4887 3.87425 18.0919 4.62845 18.1272C4.65174 17.9267 4.80499 17.82 4.97025 17.844C5.42008 17.9025 5.87558 17.9025 6.32538 17.844C6.36693 17.8371 6.40952 17.8391 6.45023 17.85C6.49095 17.8609 6.52873 17.8805 6.56119 17.9074C6.59364 17.9342 6.61993 17.9678 6.63818 18.0058C6.65651 18.0437 6.66643 18.0852 6.66718 18.1272C7.03767 18.109 7.38706 17.9495 7.64344 17.6815C7.8999 17.4135 8.04383 17.0581 8.04563 16.6872ZM4.18074 16.9336C4.18074 16.7533 4.28666 16.588 4.45117 16.588H4.93494C5.10021 16.588 5.20537 16.7533 5.20537 16.9336C5.20537 17.1139 5.10021 17.2791 4.93494 17.2791H4.45192C4.28666 17.2791 4.18074 17.1139 4.18074 16.9336ZM6.08951 16.9336C6.08951 16.7383 6.20745 16.588 6.35994 16.588H6.84371C7.00898 16.588 7.11415 16.7533 7.11415 16.9336C7.11415 17.1289 6.99696 17.2791 6.84371 17.2791H6.36069C6.19543 17.2791 6.08951 17.1139 6.08951 16.9336ZM4.84029 12.2776H6.44332C6.79639 12.2776 7.09086 12.5616 7.09086 12.9011L6.93761 15.4214C6.93761 15.7159 6.68972 15.966 6.38398 15.966H4.89964C4.82739 15.9672 4.75564 15.9539 4.68856 15.9271C4.62149 15.9002 4.56042 15.8602 4.50891 15.8096C4.4574 15.7589 4.41647 15.6985 4.3885 15.6318C4.36054 15.5652 4.34609 15.4937 4.346 15.4214L4.20402 12.9019C4.2058 12.7348 4.2738 12.5753 4.39308 12.4582C4.51236 12.3412 4.67319 12.2763 4.84029 12.2776Z" fill="white"/>
<path d="M7.39326 18.8592H3.89266V18.4333C3.89266 18.4055 3.9152 18.383 3.94299 18.383H4.30056C4.32836 18.383 4.35165 18.4055 4.35165 18.4333V18.8592H6.93278V18.4333C6.93278 18.4055 6.95531 18.383 6.98311 18.383H7.34293C7.37073 18.383 7.39326 18.4055 7.39326 18.4333V18.8592ZM6.23341 10.2324L6.34233 10.3166C6.36089 10.3852 6.38237 10.4603 6.40694 10.5419L6.47755 10.7695L6.52412 10.916H4.54621C4.49455 10.9175 4.44464 10.9351 4.40348 10.9664L4.26375 11.0678C4.19615 11.1354 4.10525 11.1166 4.03689 11.0467L3.92421 10.8942L3.8228 10.7545C3.75594 10.6869 3.77472 10.596 3.84383 10.5277L3.99483 10.4165C4.15325 10.2959 4.34713 10.2312 4.54621 10.2324H6.23341Z" fill="white"/>
<path fill-rule="evenodd" clip-rule="evenodd" d="M13.2084 2C12.3304 1.99951 11.461 2.17206 10.6498 2.50778C9.83856 2.84351 9.10141 3.33584 8.48062 3.95661C7.85975 4.57738 7.36734 5.31445 7.03155 6.12559C6.69569 6.93681 6.52306 7.80625 6.52344 8.68418C6.52299 9.56218 6.69554 10.4317 7.03132 11.243C7.36711 12.0543 7.85945 12.7914 8.48032 13.4122C9.10118 14.0331 9.83834 14.5255 10.6496 14.8612C11.4609 15.197 12.3304 15.3696 13.2084 15.3691C14.0863 15.3695 14.9557 15.1969 15.767 14.8611C16.5781 14.5252 17.3152 14.0328 17.936 13.412C18.5567 12.7911 19.049 12.0541 19.3848 11.2428C19.7205 10.4315 19.8931 9.56211 19.8926 8.68418C19.8929 7.80633 19.7203 6.93697 19.3846 6.12582C19.0488 5.31467 18.5565 4.57763 17.9357 3.95687C17.315 3.33611 16.5779 2.84377 15.7668 2.508C14.9557 2.17223 14.0863 1.99961 13.2084 2ZM16.0103 4.41661C15.7887 4.29342 15.5671 4.25285 15.1495 4.25285C15.1495 4.25285 11.1028 4.25285 11.1193 4.26036C10.7587 4.26938 10.5544 4.30994 10.3493 4.42488C10.136 4.54732 9.96394 4.70282 9.85802 4.91616C9.73482 5.13777 9.69426 5.35862 9.69426 5.77629V6.09555C9.63596 6.05708 9.5673 6.03718 9.49744 6.03845C9.39776 6.03943 9.30235 6.07947 9.23189 6.15001C9.16135 6.22047 9.12131 6.31587 9.12034 6.41556V7.74218C9.12034 7.94725 9.29311 8.11928 9.49744 8.11928C9.56678 8.1168 9.63438 8.09712 9.69426 8.06219V11.1496C9.70177 11.5102 9.74308 11.7153 9.85802 11.9204C9.92337 12.0676 10.03 12.1825 10.1525 12.2884V12.649C10.1525 12.8954 10.3493 13.0922 10.5957 13.0922H10.8571C11.1028 13.0922 11.2996 12.9119 11.2996 12.5837H15.0511C15.0511 12.9277 15.2479 13.0915 15.4943 13.0915H15.7557C15.814 13.0918 15.8717 13.0807 15.9256 13.0586C15.9795 13.0366 16.0285 13.004 16.0697 12.9628C16.1109 12.9216 16.1436 12.8727 16.1658 12.8189C16.1879 12.765 16.1992 12.7072 16.1989 12.649V12.2884C16.3216 12.1908 16.4198 12.0681 16.4934 11.9204C16.6158 11.6987 16.6571 11.4779 16.6571 11.0602V8.06219C16.7145 8.09772 16.7803 8.1174 16.8477 8.11913C16.9152 8.12093 16.9819 8.10478 17.0411 8.07225C17.1002 8.0398 17.1496 7.99218 17.1843 7.93433C17.2191 7.87649 17.2378 7.81039 17.2386 7.74293V6.40654C17.2551 6.18494 17.0583 6.02944 16.8615 6.02944C16.7897 6.03214 16.7197 6.05198 16.6571 6.08728V5.66886C16.6489 5.30829 16.6076 5.10396 16.4934 4.89888C16.3873 4.69076 16.2179 4.52165 16.0096 4.41586L16.0103 4.41661Z" fill="white"/>
</svg>
