<svg width="24" height="24" viewBox="0 0 24 24" fill="none" xmlns="http://www.w3.org/2000/svg">
<rect x="0.5" y="2.5" width="21" height="21" rx="2.5" fill="#121212" stroke="white"/>
<path d="M14.5604 10.6054C14.3696 10.459 14.1245 10.4027 13.8892 10.4501L11.0422 11.026L12.3609 8.99806C12.5488 8.70918 12.5635 8.35826 12.4323 8.06563C12.356 7.86312 12.2018 7.69117 11.9895 7.5978C11.9829 7.5944 7.89581 5.9511 7.89581 5.9511C7.56207 5.81692 7.17991 5.91256 6.94863 6.188L5.34538 8.09756C5.04999 8.44936 5.09572 8.97401 5.44755 9.26942C5.79939 9.56478 6.32408 9.51913 6.61943 9.16722L7.83491 7.71951L9.08618 8.22237L7.38542 10.8379C6.56065 11.0981 5.85703 11.5976 5.34176 12.2453L6.55983 13.1549C6.97733 12.6479 7.57717 12.2884 8.27686 12.187C9.76928 11.9706 11.1595 13.0088 11.3759 14.5012C11.4774 15.2009 11.303 15.8781 10.9355 16.4224L12.1535 17.332C12.753 16.4759 13.0409 15.3992 12.8791 14.2832C12.7827 13.6184 12.5372 13.0121 12.1817 12.4928L13.2837 12.2698L13.4941 15.6241C13.5228 16.0826 13.9179 16.4309 14.3764 16.4022C14.3993 16.4007 14.4221 16.3983 14.4445 16.3951C14.8688 16.3335 15.1818 15.9553 15.1544 15.5199L14.8842 11.2133C14.8692 10.9734 14.7511 10.7517 14.5604 10.6054Z" fill="white"/>
<path d="M12.5197 7.29825C13.2807 7.18792 13.8081 6.48159 13.6977 5.72057C13.5874 4.95959 12.8811 4.43206 12.1201 4.5424C11.3591 4.65275 10.8316 5.35915 10.942 6.12013C11.0523 6.88115 11.7586 7.40861 12.5197 7.29825Z" fill="white"/>
<path d="M9.0565 17.6003C7.56406 17.8166 6.1738 16.7785 5.95741 15.286C5.87585 14.7236 5.97263 14.1758 6.2046 13.6997L4.97338 12.7804C4.51675 13.5766 4.3123 14.5252 4.45421 15.504C4.79133 17.8291 6.94939 19.4405 9.27445 19.1034C10.2532 18.9615 11.1047 18.4961 11.7384 17.8321L10.5072 16.9127C10.1167 17.2703 9.61892 17.5187 9.0565 17.6003Z" fill="white"/>
<path d="M21.4922 16.5L0.992188 22.5L2.49219 23.5H18.9922L20.4922 23L21.4922 21.5V16.5Z" fill="white"/>
<rect x="18" width="6" height="6" rx="3" fill="#0CA724"/>
</svg>
