<svg width="22" height="22" viewBox="0 0 22 22" fill="none" xmlns="http://www.w3.org/2000/svg">
<rect x="0.5" y="0.5" width="21" height="21" rx="2.5" fill="#121212" stroke="white"/>
<path d="M11.0015 19C9.89495 19 8.85488 18.79 7.88126 18.3701C6.90765 17.9502 6.06077 17.3803 5.34063 16.6604C4.62049 15.9406 4.05032 15.094 3.63011 14.1208C3.21003 13.1476 3 12.1079 3 11.0015C3 9.89495 3.20996 8.85488 3.62989 7.88126C4.04982 6.90765 4.61972 6.06077 5.33958 5.34063C6.05944 4.62049 6.90597 4.05032 7.87916 3.63011C8.85235 3.21003 9.89214 3 10.9985 3C12.1051 3 13.1451 3.20996 14.1187 3.62989C15.0924 4.04982 15.9392 4.61972 16.6594 5.33958C17.3795 6.05944 17.9497 6.90597 18.3699 7.87916C18.79 8.85235 19 9.89214 19 10.9985C19 12.1051 18.79 13.1451 18.3701 14.1187C17.9502 15.0924 17.3803 15.9392 16.6604 16.6594C15.9406 17.3795 15.094 17.9497 14.1208 18.3699C13.1476 18.79 12.1079 19 11.0015 19ZM10.1579 17.6947V16.0526C9.69474 16.0526 9.29825 15.8877 8.96842 15.5579C8.6386 15.2281 8.47368 14.8316 8.47368 14.3684V13.5263L4.43158 9.48421C4.38947 9.73684 4.35088 9.98947 4.31579 10.2421C4.2807 10.4947 4.26316 10.7474 4.26316 11C4.26316 12.6982 4.82105 14.186 5.93684 15.4632C7.05263 16.7404 8.45965 17.4842 10.1579 17.6947ZM15.9684 15.5474C16.2491 15.2386 16.5018 14.9053 16.7263 14.5474C16.9509 14.1895 17.1368 13.8175 17.2842 13.4316C17.4316 13.0456 17.5439 12.6491 17.6211 12.2421C17.6982 11.8351 17.7368 11.4211 17.7368 11C17.7368 9.62049 17.3557 8.36063 16.5935 7.22042C15.8312 6.08021 14.8088 5.25747 13.5263 4.75221V5.10526C13.5263 5.56842 13.3614 5.96491 13.0316 6.29474C12.7018 6.62456 12.3053 6.78947 11.8421 6.78947H10.1579V8.47368C10.1579 8.71228 10.0772 8.91228 9.91579 9.07368C9.75439 9.23509 9.55439 9.31579 9.31579 9.31579H7.63158V11H12.6842C12.9228 11 13.1228 11.0807 13.2842 11.2421C13.4456 11.4035 13.5263 11.6035 13.5263 11.8421V14.3684H14.3684C14.7333 14.3684 15.0632 14.4772 15.3579 14.6947C15.6526 14.9123 15.8561 15.1965 15.9684 15.5474Z" fill="white"/>
</svg>
