<svg width="24" height="24" viewBox="0 0 24 24" fill="none" xmlns="http://www.w3.org/2000/svg">
<rect x="0.5" y="2.5" width="21" height="21" rx="2.5" fill="#121212" stroke="white"/>
<path d="M3 18V8H4.14286V14.7857H10.4286V9.42857H16.3333C17.0667 9.42857 17.6944 9.67339 18.2166 10.163C18.7389 10.6526 19 11.2411 19 11.9286V18H17.8571V15.8571H4.14286V18H3ZM7.18952 13.7555C6.64806 13.7555 6.18806 13.5778 5.80952 13.2223C5.43098 12.867 5.24171 12.4354 5.24171 11.9277C5.24171 11.4201 5.4313 10.9888 5.81048 10.6339C6.18952 10.279 6.64984 10.1016 7.19143 10.1016C7.73289 10.1016 8.19289 10.2793 8.57143 10.6348C8.94997 10.9902 9.13924 11.4217 9.13924 11.9295C9.13924 12.4371 8.94965 12.8683 8.57048 13.2232C8.19143 13.5781 7.73111 13.7555 7.18952 13.7555ZM11.5714 14.7857H17.8571V11.9286C17.8571 11.5357 17.7079 11.1994 17.4095 10.9196C17.1111 10.6399 16.7524 10.5 16.3333 10.5H11.5714V14.7857ZM7.19048 12.6841C7.41613 12.6841 7.60686 12.6111 7.76267 12.465C7.91848 12.3189 7.99638 12.1401 7.99638 11.9286C7.99638 11.717 7.91848 11.5382 7.76267 11.3921C7.60686 11.2461 7.41613 11.173 7.19048 11.173C6.96483 11.173 6.7741 11.2461 6.61829 11.3921C6.46248 11.5382 6.38457 11.717 6.38457 11.9286C6.38457 12.1401 6.46248 12.3189 6.61829 12.465C6.7741 12.6111 6.96483 12.6841 7.19048 12.6841Z" fill="white"/>
<rect x="18" width="6" height="6" rx="3" fill="#0CA724"/>
</svg>
