<svg width="24" height="24" viewBox="0 0 24 24" fill="none" xmlns="http://www.w3.org/2000/svg">
<rect x="0.5" y="2.5" width="21" height="21" rx="2.5" fill="#121212" stroke="white"/>
<path d="M18.0901 22L15.4867 19.3963C15.1878 19.5879 14.8728 19.7539 14.5418 19.8945C14.2108 20.0351 13.8682 20.153 13.5139 20.2481V18.9098C13.6988 18.8434 13.8787 18.7757 14.0536 18.7064C14.2286 18.6372 14.394 18.5551 14.55 18.4599L11.455 15.3648V19.1073L7.75216 15.4047H4.5475V11.0875H7.17776L3 6.90984L3.90985 6L19 21.0899L18.0901 22ZM17.6684 17.3325L16.7402 16.4043C17.0402 15.9361 17.2694 15.4338 17.4277 14.8974C17.586 14.3611 17.6651 13.8035 17.6651 13.2245C17.6651 11.9161 17.2846 10.7406 16.5236 9.69785C15.7625 8.65497 14.7593 7.93545 13.5139 7.53928V6.20096C15.1268 6.63153 16.4377 7.49438 17.4467 8.78953C18.4557 10.0847 18.9603 11.563 18.9603 13.2245C18.9603 13.9818 18.8477 14.7088 18.6225 15.4056C18.3971 16.1023 18.0791 16.7447 17.6684 17.3325ZM15.0249 14.6891L13.5139 13.1781V10.0482C14.0962 10.3648 14.5462 10.8106 14.8639 11.3856C15.1816 11.9607 15.3405 12.5808 15.3405 13.2461C15.3405 13.5007 15.3142 13.7489 15.2615 13.9908C15.209 14.2327 15.1301 14.4655 15.0249 14.6891ZM11.455 11.1191L9.59194 9.24779L11.455 7.38494V11.1191ZM10.1599 15.9659V14.0696L8.47292 12.3827H5.84266V14.1095H8.30347L10.1599 15.9659Z" fill="white"/>
<rect x="18" width="6" height="6" rx="3" fill="#0CA724"/>
</svg>
