<svg width="24" height="24" viewBox="0 0 24 24" fill="none" xmlns="http://www.w3.org/2000/svg">
<rect x="0.5" y="2.5" width="21" height="21" rx="2.5" fill="#121212" stroke="white"/>
<path d="M10.3846 21V17.3108L7.51282 20.1415L6.64821 19.2769L10.3846 15.5405V13.6154H8.45949L4.72308 17.3518L3.85846 16.4872L6.68923 13.6154H3V12.3846H6.68923L3.85846 9.51282L4.72308 8.6482L8.45949 12.3846H10.3846V10.4595L6.64821 6.72308L7.51282 5.85846L10.3846 8.68923V5H11.6154V8.68923L14.4872 5.85846L15.3518 6.72308L11.6154 10.4595V12.3846H13.5405L17.2769 8.6482L18.1415 9.51282L15.3108 12.3846H19V13.6154H15.3108L18.1415 16.4872L17.2769 17.3518L13.5405 13.6154H11.6154V15.5405L15.3518 19.2769L14.4872 20.1415L11.6154 17.3108V21H10.3846Z" fill="white"/>
<rect x="18" width="6" height="6" rx="3" fill="#0CA724"/>
</svg>
