<svg width="24" height="24" viewBox="0 0 24 24" fill="none" xmlns="http://www.w3.org/2000/svg">
<rect x="0.5" y="2.5" width="21" height="21" rx="2.5" fill="#121212" stroke="white"/>
<path fill-rule="evenodd" clip-rule="evenodd" d="M14.0526 18.5393V18.5195H7.96963V18.5393H7.62746L5.61719 20.9994H7.09843L7.54318 20.3715H14.4663L14.9109 20.9994H16.3927L14.3823 18.5393H14.0526ZM7.97243 19.7659L8.42637 19.1252H13.5834L14.0373 19.7659H7.97243Z" fill="white"/>
<path fill-rule="evenodd" clip-rule="evenodd" d="M11.0001 5C6.34403 5 5 6.6256 5 7.86652V15.9536C5 17.0449 5.91949 17.9305 7.05492 17.9305H14.9453C16.081 17.9305 17 17.0449 17 15.9536V7.86652C17 6.6256 15.6562 5 11.0001 5ZM8.82531 6.78212H13.1746C13.4635 6.78212 13.698 7.00759 13.698 7.28554C13.698 7.56424 13.4635 7.78946 13.1746 7.78946H8.82531C8.5364 7.78946 8.30209 7.56424 8.30209 7.28554C8.30206 7.00759 8.53637 6.78212 8.82531 6.78212ZM7.88873 16.2092C7.52818 16.2092 7.23595 15.9281 7.23595 15.5812C7.23595 15.2342 7.52818 14.9531 7.88873 14.9531C8.24928 14.9531 8.5415 15.2342 8.5415 15.5812C8.54147 15.9281 8.24928 16.2092 7.88873 16.2092ZM10.5431 12.4828H7.0585V9.4161H10.5431V12.4828ZM14.1117 16.2092C13.7511 16.2092 13.4589 15.9281 13.4589 15.5812C13.4589 15.2342 13.7511 14.9531 14.1117 14.9531C14.4722 14.9531 14.7644 15.2342 14.7644 15.5812C14.7644 15.9281 14.4722 16.2092 14.1117 16.2092ZM15.0968 12.4828H11.457V9.4161H15.0968V12.4828Z" fill="white"/>
</svg>
