<svg width="24" height="24" viewBox="0 0 24 24" fill="none" xmlns="http://www.w3.org/2000/svg">
<rect x="0.5" y="2.5" width="21" height="21" rx="2.5" fill="#121212" stroke="white"/>
<path d="M5.75 19C4.6875 19 3.79688 18.6406 3.07812 17.9219C2.35938 17.2031 2 16.3125 2 15.25C2 14.1875 2.36563 13.2969 3.09688 12.5781C3.82813 11.8594 4.7125 11.5 5.75 11.5C6.7125 11.5 7.52188 11.7875 8.17813 12.3625C8.83438 12.9375 9.25 13.65 9.425 14.5H9.9125L8.5625 10.75H7.25V9.25H11V10.75H10.175L10.4375 11.5H14.0375L12.95 8.5H11V7H12.95C13.275 7 13.5656 7.0875 13.8219 7.2625C14.0781 7.4375 14.2625 7.675 14.375 7.975L15.65 11.4625H16.25C17.2875 11.4625 18.1719 11.8281 18.9031 12.5594C19.6344 13.2906 20 14.175 20 15.2125C20 16.2625 19.6375 17.1562 18.9125 17.8938C18.1875 18.6313 17.3 19 16.25 19C15.35 19 14.5594 18.7188 13.8781 18.1562C13.1969 17.5938 12.7625 16.875 12.575 16H9.425C9.25 16.8625 8.825 17.5781 8.15 18.1469C7.475 18.7156 6.675 19 5.75 19ZM5.75 17.5C6.2625 17.5 6.70312 17.3594 7.07188 17.0781C7.44063 16.7969 7.7 16.4375 7.85 16H5.75V14.5H7.85C7.7 14.05 7.44063 13.6875 7.07188 13.4125C6.70312 13.1375 6.2625 13 5.75 13C5.1125 13 4.57812 13.2156 4.14688 13.6469C3.71563 14.0781 3.5 14.6125 3.5 15.25C3.5 15.875 3.71563 16.4062 4.14688 16.8438C4.57812 17.2812 5.1125 17.5 5.75 17.5ZM11.525 14.5H12.575C12.6375 14.2125 12.7219 13.9438 12.8281 13.6938C12.9344 13.4438 13.075 13.2125 13.25 13H10.9625L11.525 14.5ZM16.25 17.5C16.8875 17.5 17.4219 17.2812 17.8531 16.8438C18.2844 16.4062 18.5 15.875 18.5 15.25C18.5 14.6125 18.2844 14.0781 17.8531 13.6469C17.4219 13.2156 16.8875 13 16.25 13H16.175L16.925 14.9875L15.5 15.5125L14.7875 13.525C14.5375 13.7375 14.3438 13.9875 14.2063 14.275C14.0688 14.5625 14 14.8875 14 15.25C14 15.875 14.2156 16.4062 14.6469 16.8438C15.0781 17.2812 15.6125 17.5 16.25 17.5Z" fill="#E8EAED"/>
<rect x="11" width="13" height="13" rx="6.5" fill="#E4A504"/>
<path d="M19.6203 4.83222L19.0949 5.97719H12L12.4298 4.83222H19.6203ZM18.6067 7.02281L18.0283 8.19392H12L12.4298 7.02281H18.6067ZM21 1.97243L20.1509 3.76046C20.0094 3.66286 19.8379 3.55656 19.6362 3.44154C19.4381 3.32304 19.2099 3.2237 18.9517 3.14354C18.6969 3.05989 18.4139 3.01806 18.1026 3.01806C17.6108 3.01806 17.1828 3.14005 16.8184 3.38403C16.454 3.62801 16.171 4.00792 15.9693 4.52376C15.7712 5.03961 15.6722 5.70184 15.6722 6.51046C15.6722 7.32605 15.7712 7.99002 15.9693 8.50238C16.171 9.01125 16.454 9.38593 16.8184 9.62643C17.1828 9.86343 17.6108 9.98194 18.1026 9.98194C18.4139 9.98194 18.6969 9.94186 18.9517 9.86169C19.2064 9.78153 19.4292 9.68568 19.6203 9.57414C19.8149 9.46261 19.9776 9.35979 20.1085 9.26568L20.9682 11.0537C20.5825 11.3674 20.1456 11.6044 19.6574 11.7647C19.1692 11.9216 18.6509 12 18.1026 12C17.1757 12 16.355 11.7839 15.6403 11.3517C14.9292 10.916 14.3721 10.2904 13.9688 9.47481C13.5654 8.65573 13.3638 7.66762 13.3638 6.51046C13.3638 5.35678 13.5654 4.36866 13.9688 3.5461C14.3721 2.72354 14.9292 2.09442 15.6403 1.65875C16.355 1.21958 17.1757 1 18.1026 1C18.6722 1 19.1993 1.08365 19.684 1.25095C20.1686 1.41825 20.6073 1.65875 21 1.97243Z" fill="#121212"/>
</svg>
