<svg width="14" height="14" viewBox="0 0 14 14" fill="none" xmlns="http://www.w3.org/2000/svg">
<path d="M0.924678 14L0.0820045 13.1524L8.23264 4.9537C7.97741 4.34933 7.93129 3.71378 8.0943 3.04707C8.2573 2.38035 8.61923 1.77316 9.18008 1.2255C9.79411 0.607852 10.5138 0.218053 11.339 0.0561C12.1645 -0.105853 12.8453 0.0828456 13.3814 0.622197C13.9176 1.16155 14.1052 1.84636 13.9442 2.67664C13.7832 3.50678 13.3957 4.23074 12.7817 4.84852C12.2372 5.41254 11.6336 5.77653 10.9708 5.9405C10.308 6.10446 9.67615 6.05808 9.07532 5.80134L7.84499 7.03891L13.9226 13.1524L13.08 14L7.00232 7.92677L0.924678 14ZM3.32994 7.16882L1.02324 4.84852C0.364961 4.18637 0.0242935 3.39899 0.00123575 2.4864C-0.021822 1.57367 0.277795 0.77081 0.900087 0.077818L5.62745 4.85777L3.32994 7.16882Z" fill="#E8EAED"/>
</svg>
