<svg width="24" height="24" viewBox="0 0 24 24" fill="none" xmlns="http://www.w3.org/2000/svg">
<rect x="0.5" y="2.5" width="21" height="21" rx="2.5" fill="#121212" stroke="white"/>
<path d="M7.83106 8.09363C7.41691 8.09363 7.0611 7.94163 6.76364 7.63762C6.46632 7.33361 6.31765 6.96998 6.31765 6.54671C6.31765 6.12359 6.46632 5.76002 6.76364 5.45601C7.0611 5.152 7.41691 5 7.83106 5C8.24521 5 8.60101 5.152 8.89847 5.45601C9.19593 5.76002 9.34466 6.12359 9.34466 6.54671C9.34466 6.96998 9.19593 7.33361 8.89847 7.63762C8.60101 7.94163 8.24521 8.09363 7.83106 8.09363ZM12.5924 19.1632H7.50948C7.09533 19.1632 6.71882 19.0192 6.37996 18.7313C6.04096 18.4434 5.8289 18.0879 5.74377 17.6646L4 8.68978H5.25495L7.01123 17.6485C7.02708 17.713 7.0652 17.7721 7.12559 17.8257C7.18599 17.8795 7.24775 17.9064 7.31088 17.9064H12.5924V19.1632ZM16.9281 21L14.6924 17.0685H8.88433C8.53536 17.0685 8.23503 16.9611 7.98334 16.7463C7.73152 16.5314 7.56728 16.251 7.49062 15.9051L6.55725 11.3098C6.42266 10.6878 6.56326 10.1467 6.97905 9.68643C7.3947 9.22616 7.89104 8.99602 8.46806 8.99602C8.89902 8.99602 9.29213 9.12785 9.64739 9.3915C10.0026 9.65529 10.2297 10.0143 10.3285 10.4686L11.2774 14.9738H14.1312C14.3813 14.9738 14.6136 15.0399 14.8281 15.172C15.0425 15.3041 15.2169 15.4851 15.3513 15.7151L18 20.3716L16.9281 21Z" fill="white"/>
<rect x="11" width="13" height="13" rx="6.5" fill="#0CA724"/>
<path d="M17.5 11.5V6.75M17.5 2V6.75M17.5 6.75H13M17.5 6.75H22" stroke="white" stroke-width="3"/>
</svg>
