<svg width="33" height="35" viewBox="0 0 33 35" fill="none" xmlns="http://www.w3.org/2000/svg">
<path d="M15.7422 18.3996C15.7422 17.9726 16.0942 17.6346 16.5072 17.6346C16.9202 17.6346 17.2722 17.9726 17.2722 18.3996C17.2709 18.6021 17.1899 18.7959 17.0467 18.9391C16.9035 19.0822 16.7097 19.1633 16.5072 19.1646C16.3047 19.1633 16.1109 19.0822 15.9677 18.9391C15.8245 18.7959 15.7435 18.6021 15.7422 18.3996ZM21.8172 18.3996C21.8172 17.9726 22.1672 17.6346 22.5822 17.6346C22.9952 17.6346 23.3472 17.9726 23.3472 18.3996C23.3479 18.5002 23.3285 18.6 23.2903 18.6931C23.2521 18.7862 23.1958 18.8708 23.1246 18.942C23.0534 19.0132 22.9688 19.0695 22.8757 19.1077C22.7826 19.1459 22.6828 19.1652 22.5822 19.1646C22.4815 19.1652 22.3818 19.1459 22.2887 19.1077C22.1955 19.0695 22.1109 19.0132 22.0398 18.942C21.9686 18.8708 21.9123 18.7862 21.8741 18.6931C21.8359 18.6 21.8165 18.5002 21.8172 18.3996ZM15.8972 11.2676H23.1812V16.3716C21.7962 16.5786 20.5862 16.6766 19.5392 16.6766C18.4922 16.6766 17.2712 16.5896 15.8972 16.3716V11.2676Z" fill="#FBBA00"/>
<path d="M26.009 22.8663C26.0295 22.8449 26.0541 22.828 26.0814 22.8164C26.1086 22.8048 26.1379 22.7988 26.1675 22.7988C26.1971 22.7988 26.2264 22.8048 26.2536 22.8164C26.2809 22.828 26.3055 22.8449 26.326 22.8663L28.566 25.1603C28.5869 25.1812 28.6034 25.2061 28.6145 25.2336C28.6256 25.261 28.631 25.2904 28.6304 25.32C28.6299 25.3496 28.6234 25.3788 28.6113 25.4058C28.5991 25.4328 28.5817 25.4571 28.56 25.4773L28.129 25.8813C28.0869 25.9213 28.0306 25.943 27.9726 25.9417C27.9145 25.9403 27.8593 25.9161 27.819 25.8743L26.688 24.7163V26.1323C26.688 27.7223 25.422 29.0203 23.827 29.1113L23.648 29.1163H14.466C14.4084 29.1163 14.3533 29.0934 14.3126 29.0527C14.2719 29.012 14.249 28.9568 14.249 28.8993V28.3063C14.249 28.1863 14.346 28.0893 14.466 28.0893H23.648C24.753 28.0893 25.648 27.2123 25.648 26.1323L25.647 24.7163L24.517 25.8743C24.4851 25.9077 24.4435 25.9302 24.3981 25.9386C24.3527 25.947 24.3058 25.941 24.264 25.9213L24.206 25.8813L23.776 25.4773C23.7542 25.4572 23.7367 25.433 23.7245 25.406C23.7123 25.379 23.7057 25.3498 23.705 25.3202C23.7044 25.2906 23.7097 25.2612 23.7207 25.2337C23.7317 25.2062 23.7481 25.1812 23.769 25.1603L26.009 22.8663ZM12.839 28.0893C12.959 28.0893 13.056 28.1873 13.056 28.3063V28.8993C13.056 29.0193 12.959 29.1163 12.839 29.1163H6.217C6.15945 29.1163 6.10425 29.0934 6.06356 29.0527C6.02286 29.012 6 28.9568 6 28.8993V28.3063C6 28.1863 6.097 28.0893 6.217 28.0893H12.839Z" fill="white"/>
<path fill-rule="evenodd" clip-rule="evenodd" d="M12.7199 25.5534V21.3754C11.9828 20.5563 11.3907 19.6175 10.9689 18.5994C10.7723 18.5487 10.57 18.5232 10.3669 18.5234H8.60994C7.35494 18.5544 6.33594 19.5764 6.33594 20.8344V25.6304C6.38294 26.6204 7.16694 27.4234 8.17094 27.4704C8.20194 27.2034 8.40594 27.0614 8.62594 27.0934C9.22475 27.1712 9.83112 27.1712 10.4299 27.0934C10.4852 27.0841 10.5419 27.0868 10.5961 27.1013C10.6503 27.1158 10.7006 27.1419 10.7438 27.1777C10.787 27.2134 10.822 27.2581 10.8463 27.3087C10.8707 27.3592 10.8839 27.4144 10.8849 27.4704C11.3781 27.4461 11.8432 27.2338 12.1845 26.877C12.5259 26.5202 12.7175 26.0462 12.7199 25.5524V25.5534ZM7.57494 25.8814C7.57494 25.6414 7.71594 25.4214 7.93494 25.4214H8.57894C8.79894 25.4214 8.93894 25.6414 8.93894 25.8814C8.93894 26.1214 8.79894 26.3414 8.57894 26.3414H7.93594C7.71594 26.3414 7.57494 26.1214 7.57494 25.8814ZM10.1159 25.8814C10.1159 25.6214 10.2729 25.4214 10.4759 25.4214H11.1199C11.3399 25.4214 11.4799 25.6414 11.4799 25.8814C11.4799 26.1414 11.3239 26.3414 11.1199 26.3414H10.4769C10.2569 26.3414 10.1159 26.1214 10.1159 25.8814ZM8.45294 19.6834H10.5869C11.0569 19.6834 11.4489 20.0614 11.4489 20.5134L11.2449 23.8684C11.2449 24.2604 10.9149 24.5934 10.5079 24.5934H8.53194C8.43576 24.5949 8.34025 24.5772 8.25096 24.5415C8.16167 24.5057 8.08038 24.4525 8.01181 24.3851C7.94324 24.3176 7.88875 24.2372 7.85152 24.1485C7.81429 24.0598 7.79506 23.9646 7.79494 23.8684L7.60594 20.5144C7.60831 20.292 7.69882 20.0796 7.85761 19.9238C8.0164 19.768 8.2305 19.6816 8.45294 19.6834Z" fill="white"/>
<path d="M11.8552 28.4411H7.19519V27.8741C7.19519 27.8371 7.22519 27.8071 7.26219 27.8071H7.73819C7.77519 27.8071 7.80619 27.8371 7.80619 27.8741V28.4411H11.2422V27.8741C11.2422 27.8371 11.2722 27.8071 11.3092 27.8071H11.7882C11.8252 27.8071 11.8552 27.8371 11.8552 27.8741V28.4411ZM10.3112 16.9571L10.4562 17.0691C10.4809 17.1604 10.5095 17.2604 10.5422 17.3691L10.6362 17.6721L10.6982 17.8671H8.06519C7.99642 17.869 7.92999 17.8925 7.87519 17.9341L7.68919 18.0691C7.59919 18.1591 7.47819 18.1341 7.38719 18.0411L7.23719 17.8381L7.10219 17.6521C7.01319 17.5621 7.03819 17.4411 7.13019 17.3501L7.33119 17.2021C7.54209 17.0416 7.80018 16.9554 8.06519 16.9571H10.3112Z" fill="white"/>
<path fill-rule="evenodd" clip-rule="evenodd" d="M19.5943 6C18.4256 5.99934 17.2682 6.22904 16.1883 6.67596C15.1084 7.12288 14.1271 7.77827 13.3007 8.60464C12.4742 9.43101 11.8187 10.4122 11.3717 11.492C10.9246 12.5719 10.6948 13.7293 10.6953 14.898C10.6947 16.0668 10.9244 17.2243 11.3714 18.3043C11.8184 19.3843 12.4738 20.3655 13.3003 21.192C14.1268 22.0185 15.1081 22.674 16.188 23.1209C17.268 23.5679 18.4255 23.7977 19.5943 23.797C20.763 23.7975 21.9204 23.5677 23.0003 23.1207C24.0801 22.6736 25.0613 22.0181 25.8877 21.1917C26.714 20.3652 27.3694 19.384 27.8164 18.304C28.2633 17.2241 28.493 16.0667 28.4923 14.898C28.4928 13.7294 28.263 12.5721 27.8161 11.4923C27.3691 10.4125 26.7137 9.43135 25.8873 8.60499C25.061 7.77863 24.0798 7.12323 23.0001 6.67625C21.9203 6.22927 20.763 5.99948 19.5943 6ZM23.3243 9.217C23.0293 9.053 22.7343 8.999 22.1783 8.999C22.1783 8.999 16.7913 8.999 16.8133 9.009C16.3333 9.021 16.0613 9.075 15.7883 9.228C15.5043 9.391 15.2753 9.598 15.1343 9.882C14.9703 10.177 14.9163 10.471 14.9163 11.027V11.452C14.8387 11.4008 14.7473 11.3743 14.6543 11.376C14.5216 11.3773 14.3946 11.4306 14.3008 11.5245C14.2069 11.6183 14.1536 11.7453 14.1523 11.878V13.644C14.1523 13.917 14.3823 14.146 14.6543 14.146C14.7466 14.1427 14.8366 14.1165 14.9163 14.07V18.18C14.9263 18.66 14.9813 18.933 15.1343 19.206C15.2213 19.402 15.3633 19.555 15.5263 19.696V20.176C15.5263 20.504 15.7883 20.766 16.1163 20.766H16.4643C16.7913 20.766 17.0533 20.526 17.0533 20.089H22.0473C22.0473 20.547 22.3093 20.765 22.6373 20.765H22.9853C23.0629 20.7655 23.1397 20.7507 23.2115 20.7213C23.2832 20.6919 23.3485 20.6485 23.4033 20.5937C23.4582 20.5389 23.5017 20.4738 23.5312 20.4021C23.5607 20.3304 23.5757 20.2535 23.5753 20.176V19.696C23.7386 19.566 23.8693 19.4027 23.9673 19.206C24.1303 18.911 24.1853 18.617 24.1853 18.061V14.07C24.2617 14.1173 24.3492 14.1435 24.439 14.1458C24.5288 14.1482 24.6176 14.1267 24.6964 14.0834C24.7751 14.0402 24.8409 13.9768 24.8871 13.8998C24.9334 13.8228 24.9583 13.7348 24.9593 13.645V11.866C24.9813 11.571 24.7193 11.364 24.4573 11.364C24.3618 11.3676 24.2686 11.394 24.1853 11.441V10.884C24.1743 10.404 24.1193 10.132 23.9673 9.859C23.8261 9.58194 23.6006 9.35682 23.3233 9.216L23.3243 9.217Z" fill="#FBBB02"/>
</svg>
