<svg width="33" height="197" viewBox="0 0 33 197" fill="none" xmlns="http://www.w3.org/2000/svg">
<path d="M5 98C5 91.3726 10.3726 86 17 86C23.6274 86 29 91.3726 29 98C29 104.627 23.6274 110 17 110C10.3726 110 5 104.627 5 98Z" fill="black"/>
<path fill-rule="evenodd" clip-rule="evenodd" d="M15.5 115.938C15.9946 115.979 16.4949 116 17 116C17.5051 116 18.0054 115.979 18.5 115.938V197H15.5V115.938ZM15.5 109.907C15.9914 109.968 16.492 110 17 110C17.508 110 18.0086 109.968 18.5 109.907V105H15.5V109.907Z" fill="black"/>
</svg>
