<svg width="196" height="271" viewBox="0 0 196 271" fill="none" xmlns="http://www.w3.org/2000/svg">
<path fill-rule="evenodd" clip-rule="evenodd" d="M147.779 229.334V229H48.4233V229.334H42.8345L10 271H34.1936L41.4579 260.367H154.536L161.798 271H186L153.163 229.334H147.779ZM48.4689 250.109L55.8833 239.258H140.115L147.529 250.109H48.4689Z" fill="white"/>
<path fill-rule="evenodd" clip-rule="evenodd" d="M98.0011 0C21.9525 0 0 27.5323 0 48.5494V185.518C0 204 15.0183 219 33.5637 219H162.44C180.99 219 196 204 196 185.518V48.5494C196 27.5323 174.052 0 98.0011 0ZM62.4801 30.1832H133.518C138.237 30.1832 142.068 34.002 142.068 38.7095C142.068 43.4298 138.237 47.2443 133.518 47.2443H62.4801C57.7612 47.2443 53.9342 43.4298 53.9342 38.7095C53.9336 34.002 57.7607 30.1832 62.4801 30.1832ZM47.1826 189.847C41.2936 189.847 36.5206 185.085 36.5206 179.21C36.5206 173.334 41.2936 168.572 47.1826 168.572C53.0715 168.572 57.8445 173.334 57.8445 179.21C57.844 185.085 53.0715 189.847 47.1826 189.847ZM90.5376 126.734H33.6221V74.7941H90.5376V126.734ZM148.824 189.847C142.934 189.847 138.162 185.085 138.162 179.21C138.162 173.334 142.934 168.572 148.824 168.572C154.712 168.572 159.486 173.334 159.486 179.21C159.486 185.085 154.712 189.847 148.824 189.847ZM164.914 126.734H105.465V74.7941H164.914V126.734Z" fill="white"/>
</svg>
