<svg width="21" height="31" viewBox="0 0 21 31" fill="none" xmlns="http://www.w3.org/2000/svg">
<path d="M0 4C0 1.79086 1.79086 0 4 0H17C19.2091 0 21 1.79086 21 4V17.0567C21 20.8018 19.2515 24.3322 16.2725 26.6019L12.9242 29.153C11.4922 30.244 9.50781 30.244 8.07583 29.153L4.72748 26.6019C1.7485 24.3322 0 20.8018 0 17.0567V4Z" fill="#D9D9D9"/>
<rect x="5" y="23" width="3" height="3" rx="1.5" fill="#C2C2C2"/>
<rect x="13" y="23" width="3" height="3" rx="1.5" fill="#C2C2C2"/>
<path d="M9 17C9 16.1716 9.67157 15.5 10.5 15.5V15.5C11.3284 15.5 12 16.1716 12 17V17C12 17.8284 11.3284 18.5 10.5 18.5V18.5C9.67157 18.5 9 17.8284 9 17V17Z" fill="#C2C2C2"/>
<path d="M2 3.5C2 2.67157 2.67157 2 3.5 2V2C4.32843 2 5 2.67157 5 3.5V3.5C5 4.32843 4.32843 5 3.5 5V5C2.67157 5 2 4.32843 2 3.5V3.5Z" fill="#BB4343"/>
<path d="M16 3.5C16 2.67157 16.6716 2 17.5 2V2C18.3284 2 19 2.67157 19 3.5V3.5C19 4.32843 18.3284 5 17.5 5V5C16.6716 5 16 4.32843 16 3.5V3.5Z" fill="#BB4343"/>
<path d="M4.18247 19.9854C3.81034 19.6753 4.05249 19.0702 4.53582 19.1024L10.5 19.5L16.4642 19.1024C16.9475 19.0702 17.1897 19.6753 16.8175 19.9854L13.1125 23.0729C12.3937 23.6719 11.4875 24 10.5518 24H10.4482C9.51245 24 8.60632 23.6719 7.88746 23.0729L4.18247 19.9854Z" fill="#444444"/>
<rect x="4" y="6" width="3" height="3" rx="1" fill="#444444"/>
<rect x="14" y="6" width="3" height="3" rx="1" fill="#444444"/>
<rect x="4" y="10" width="3" height="3" rx="1" fill="#444444"/>
<rect x="14" y="10" width="3" height="3" rx="1" fill="#444444"/>
<rect x="4" y="14" width="3" height="3" rx="1" fill="#444444"/>
<rect x="14" y="14" width="3" height="3" rx="1" fill="#444444"/>
</svg>
