<svg width="476" height="472" viewBox="0 0 476 472" fill="none" xmlns="http://www.w3.org/2000/svg">
<rect x="229" y="456" width="16" height="16" rx="8" fill="white"/>
<path d="M345 332.5C345 326.149 350.149 321 356.5 321C362.851 321 368 326.149 368 332.5C368 338.851 362.851 344 356.5 344C350.149 344 345 338.851 345 332.5Z" fill="white"/>
<path fill-rule="evenodd" clip-rule="evenodd" d="M319.5 192C278.631 192 245.5 225.131 245.5 266C245.5 306.869 278.631 340 319.5 340H335.28C334.451 337.654 334 335.13 334 332.5C334 329.492 334.59 326.623 335.661 324H319.5C287.467 324 261.5 298.033 261.5 266C261.5 233.967 287.467 208 319.5 208H332.5C336.918 208 340.5 204.418 340.5 200C340.5 195.582 336.918 192 332.5 192H319.5ZM343.319 324H369.681C371.263 326.449 372.182 329.367 372.182 332.5C372.182 335.217 371.491 337.772 370.275 340H342.725C341.509 337.772 340.818 335.217 340.818 332.5C340.818 329.367 341.737 326.449 343.319 324ZM377.72 340C378.549 337.654 379 335.13 379 332.5C379 329.492 378.41 326.623 377.339 324H402C442.869 324 476 357.131 476 398C476 438.869 442.869 472 402 472H268.5C264.082 472 260.5 468.418 260.5 464C260.5 459.582 264.082 456 268.5 456H402C434.033 456 460 430.033 460 398C460 365.967 434.033 340 402 340H377.72Z" fill="white"/>
<rect x="341" y="317" width="31" height="31" rx="15.5" fill="white"/>
<path fill-rule="evenodd" clip-rule="evenodd" d="M380 0C333.056 0 295 38.0558 295 85C295 131.944 333.056 170 380 170C426.944 170 465 131.944 465 85C465 38.0558 426.944 0 380 0ZM380 37C353.49 37 332 58.4903 332 85C332 111.51 353.49 133 380 133C406.51 133 428 111.51 428 85C428 58.4903 406.51 37 380 37Z" fill="white"/>
<path d="M393.137 191.5C387.364 201.5 372.93 201.5 367.156 191.5L352.032 165.5C346.258 155.5 353.475 143 365.022 143L395.271 143C406.818 143 414.035 155.5 408.261 165.5L393.137 191.5Z" fill="white"/>
<path fill-rule="evenodd" clip-rule="evenodd" d="M147.779 430.334V430H48.4233V430.334H42.8345L10 472H34.1936L41.4579 461.367H154.536L161.798 472H186L153.163 430.334H147.779ZM48.4689 451.109L55.8833 440.258H140.115L147.529 451.109H48.4689Z" fill="white"/>
<path fill-rule="evenodd" clip-rule="evenodd" d="M98.0011 201C21.9525 201 0 228.532 0 249.549V386.518C0 405 15.0183 420 33.5637 420H162.44C180.99 420 196 405 196 386.518V249.549C196 228.532 174.052 201 98.0011 201ZM62.4801 231.183H133.518C138.237 231.183 142.068 235.002 142.068 239.71C142.068 244.43 138.237 248.244 133.518 248.244H62.4801C57.7612 248.244 53.9342 244.43 53.9342 239.71C53.9336 235.002 57.7607 231.183 62.4801 231.183ZM47.1826 390.847C41.2936 390.847 36.5206 386.085 36.5206 380.21C36.5206 374.334 41.2936 369.572 47.1826 369.572C53.0715 369.572 57.8445 374.334 57.8445 380.21C57.844 386.085 53.0715 390.847 47.1826 390.847ZM90.5376 327.734H33.6221V275.794H90.5376V327.734ZM148.824 390.847C142.934 390.847 138.162 386.085 138.162 380.21C138.162 374.334 142.934 369.572 148.824 369.572C154.712 369.572 159.486 374.334 159.486 380.21C159.486 386.085 154.712 390.847 148.824 390.847ZM164.914 327.734H105.465V275.794H164.914V327.734Z" fill="white"/>
</svg>
