<svg width="22" height="32" viewBox="0 0 22 32" fill="none" xmlns="http://www.w3.org/2000/svg">
<rect x="5" y="17" width="12" height="12" rx="6" fill="#0CA724" fill-opacity="0.5"/>
<rect x="2" y="14" width="18" height="18" rx="9" fill="#0CA724" fill-opacity="0.5"/>
<rect x="0.5" y="0.5" width="21" height="21" rx="2.5" fill="#121212" stroke="white"/>
<path fill-rule="evenodd" clip-rule="evenodd" d="M14.0526 16.5393V16.5195H7.96963V16.5393H7.62746L5.61719 18.9994H7.09843L7.54318 18.3715H14.4663L14.9109 18.9994H16.3927L14.3823 16.5393H14.0526ZM7.97243 17.7659L8.42637 17.1252H13.5834L14.0373 17.7659H7.97243Z" fill="white"/>
<path fill-rule="evenodd" clip-rule="evenodd" d="M11.0001 3C6.34403 3 5 4.6256 5 5.86652V13.9536C5 15.0449 5.91949 15.9305 7.05492 15.9305H14.9453C16.081 15.9305 17 15.0449 17 13.9536V5.86652C17 4.6256 15.6562 3 11.0001 3ZM8.82531 4.78212H13.1746C13.4635 4.78212 13.698 5.00759 13.698 5.28554C13.698 5.56424 13.4635 5.78946 13.1746 5.78946H8.82531C8.5364 5.78946 8.30209 5.56424 8.30209 5.28554C8.30206 5.00759 8.53637 4.78212 8.82531 4.78212ZM7.88873 14.2092C7.52818 14.2092 7.23596 13.9281 7.23596 13.5812C7.23596 13.2342 7.52818 12.9531 7.88873 12.9531C8.24928 12.9531 8.5415 13.2342 8.5415 13.5812C8.54147 13.9281 8.24928 14.2092 7.88873 14.2092ZM10.5431 10.4828H7.0585V7.4161H10.5431V10.4828ZM14.1117 14.2092C13.7511 14.2092 13.4589 13.9281 13.4589 13.5812C13.4589 13.2342 13.7511 12.9531 14.1117 12.9531C14.4722 12.9531 14.7644 13.2342 14.7644 13.5812C14.7644 13.9281 14.4722 14.2092 14.1117 14.2092ZM15.0968 10.4828H11.457V7.4161H15.0968V10.4828Z" fill="white"/>
<path d="M6 23L11 31L16 23H6Z" fill="#121212" stroke="white"/>
</svg>
