<svg width="29" height="29" viewBox="0 0 29 29" fill="none" xmlns="http://www.w3.org/2000/svg">
<path d="M0.5 3V26C0.5 27.3807 1.61929 28.5 3 28.5H26C27.3807 28.5 28.5 27.3807 28.5 26V3C28.5 1.61929 27.3807 0.5 26 0.5H3C1.61929 0.5 0.5 1.61929 0.5 3Z" stroke="white"/>
<path d="M2 9.95903V10.3278C2 10.699 2.30097 11 2.67223 11H13C13.5523 11 14 10.5523 14 10V5C14 4.44772 13.5523 4 13 4H7.95903C6.61424 4 5.30899 4.45487 4.25546 5.29067C2.83061 6.42105 2 8.14025 2 9.95903Z" fill="white"/>
<path d="M15 9.95903V10.3278C15 10.699 15.301 11 15.6722 11H26C26.5523 11 27 10.5523 27 10V5C27 4.44772 26.5523 4 26 4H20.959C19.6142 4 18.309 4.45487 17.2555 5.29067C15.8306 6.42105 15 8.14025 15 9.95903Z" fill="white"/>
<path fill-rule="evenodd" clip-rule="evenodd" d="M1 26V16C1 14.8954 1.89543 14 3 14H26C27.1046 14 28 14.8954 28 16V26C28 27.1046 27.1046 28 26 28H3C1.89543 28 1 27.1046 1 26ZM2 16V26C2 26.5523 2.44772 27 3 27H13C13.5523 27 14 26.5523 14 26V16C14 15.4477 13.5523 15 13 15H3C2.44772 15 2 15.4477 2 16ZM15 16V26C15 26.5523 15.4477 27 16 27H26C26.5523 27 27 26.5523 27 26V16C27 15.4477 26.5523 15 26 15H16C15.4477 15 15 15.4477 15 16Z" fill="white"/>
<path d="M5.26278 25H3.28551L6.2983 16.2727H8.67614L11.6847 25H9.70739L7.52131 18.267H7.45312L5.26278 25ZM5.1392 21.5696H9.80966V23.0099H5.1392V21.5696Z" fill="white"/>
<path d="M17.7585 25V16.2727H21.2528C21.8949 16.2727 22.4304 16.3679 22.8594 16.5582C23.2884 16.7486 23.6108 17.0128 23.8267 17.3509C24.0426 17.6861 24.1506 18.0724 24.1506 18.5099C24.1506 18.8509 24.0824 19.1506 23.946 19.4091C23.8097 19.6648 23.6222 19.875 23.3835 20.0398C23.1477 20.2017 22.8778 20.3168 22.5739 20.3849V20.4702C22.9063 20.4844 23.2173 20.5781 23.5071 20.7514C23.7997 20.9247 24.0369 21.1676 24.2188 21.4801C24.4006 21.7898 24.4915 22.1591 24.4915 22.5881C24.4915 23.0511 24.3764 23.4645 24.1463 23.8281C23.919 24.1889 23.5824 24.4744 23.1364 24.6847C22.6903 24.8949 22.1406 25 21.4872 25H17.7585ZM19.6037 23.4915H21.108C21.6222 23.4915 21.9972 23.3935 22.233 23.1974C22.4688 22.9986 22.5866 22.7344 22.5866 22.4048C22.5866 22.1634 22.5284 21.9503 22.4119 21.7656C22.2955 21.581 22.1293 21.4361 21.9134 21.331C21.7003 21.2259 21.446 21.1733 21.1506 21.1733H19.6037V23.4915ZM19.6037 19.9247H20.9716C21.2244 19.9247 21.4489 19.8807 21.6449 19.7926C21.8438 19.7017 22 19.5739 22.1136 19.4091C22.2301 19.2443 22.2884 19.0469 22.2884 18.8168C22.2884 18.5014 22.1761 18.2472 21.9517 18.054C21.7301 17.8608 21.4148 17.7642 21.0057 17.7642H19.6037V19.9247Z" fill="white"/>
</svg>
