<svg width="22" height="22" viewBox="0 0 22 22" fill="none" xmlns="http://www.w3.org/2000/svg">
<rect x="0.5" y="0.5" width="21" height="21" rx="2.5" fill="#CEB214" stroke="white"/>
<path d="M12.9376 3.4043L12.6606 13.589H10.0612L9.77709 3.4043H12.9376ZM11.3609 18.1344C10.8921 18.1344 10.4897 17.9687 10.1535 17.6373C9.81733 17.3011 9.65161 16.8986 9.65635 16.4299C9.65161 15.9659 9.81733 15.5681 10.1535 15.2367C10.4897 14.9052 10.8921 14.7395 11.3609 14.7395C11.8107 14.7395 12.2061 14.9052 12.547 15.2367C12.8879 15.5681 13.0607 15.9659 13.0654 16.4299C13.0607 16.7424 12.9778 17.0288 12.8169 17.2892C12.6606 17.5449 12.4546 17.7509 12.199 17.9071C11.9433 18.0587 11.6639 18.1344 11.3609 18.1344Z" fill="#262626"/>
</svg>
