<svg width="5" height="4" viewBox="0 0 5 4" fill="none" xmlns="http://www.w3.org/2000/svg">
<path fill-rule="evenodd" clip-rule="evenodd" d="M2.33333 0.1H4.85L4.74744 0.346154C4.60769 0.681536 4.28 0.9 3.91667 0.9H1.4L1.50256 0.653846C1.64231 0.318464 1.97 0.1 2.33333 0.1ZM1.70833 1.6H4.225L4.12244 1.84615C3.98269 2.18154 3.655 2.4 3.29167 2.4H0.775L0.877564 2.15385C1.01731 1.81846 1.345 1.6 1.70833 1.6ZM1.08333 3.1H1.93333L1.83077 3.34615C1.69103 3.68154 1.36333 3.9 1 3.9H0.15L0.252564 3.65385C0.392307 3.31846 0.720002 3.1 1.08333 3.1Z" fill="white"/>
</svg>
