<svg width="24" height="24" viewBox="0 0 24 24" fill="none" xmlns="http://www.w3.org/2000/svg">
<rect x="0.5" y="2.5" width="21" height="21" rx="2.5" fill="#121212" stroke="white"/>
<path d="M10.6456 9.534C10.5257 9.41101 10.3582 9.34607 10.1871 9.35544L8.11552 9.47075L9.25555 8.17236C9.41796 7.98741 9.46436 7.74086 9.40157 7.52055C9.36843 7.36958 9.27701 7.23222 9.13656 7.14446C9.13224 7.14139 6.4115 5.56084 6.4115 5.56084C6.18934 5.43179 5.90939 5.46022 5.71766 5.63123L4.38862 6.81676C4.14376 7.03517 4.12231 7.41073 4.34074 7.65561C4.55918 7.90046 4.93475 7.92196 5.1796 7.70348L6.1872 6.80468L7.02018 7.2884L5.54985 8.96296C4.94015 9.06239 4.39157 9.34335 3.96094 9.74842L4.72876 10.5162C5.07586 10.2006 5.53672 10.008 6.04172 10.008C7.11889 10.008 7.99523 10.8844 7.99523 11.9615C7.99523 12.4666 7.8026 12.9274 7.48702 13.2745L8.2548 14.0423C8.76627 13.4986 9.08017 12.767 9.08017 11.9615C9.08017 11.4817 8.96877 11.0279 8.77069 10.6244L9.57254 10.5797L9.37748 12.9724C9.35081 13.2994 9.59436 13.5862 9.92142 13.6129C9.93779 13.6142 9.95413 13.6148 9.97032 13.6148C10.2766 13.6148 10.5365 13.3795 10.5618 13.0689L10.8122 9.99695C10.8262 9.82578 10.7654 9.65697 10.6456 9.534Z" fill="white"/>
<path d="M9.54141 6.98905C10.0907 6.98905 10.5359 6.54381 10.5359 5.99453C10.5359 5.44529 10.0907 5 9.54141 5C8.99211 5 8.54688 5.44529 8.54688 5.99453C8.54688 6.54381 8.99209 6.98905 9.54141 6.98905Z" fill="white"/>
<path d="M6.03848 13.9155C4.9613 13.9155 4.08494 13.0391 4.08494 11.962C4.08494 11.556 4.2095 11.1787 4.42226 10.8659L3.64615 10.0898C3.24176 10.6059 3 11.2555 3 11.962C3 13.6401 4.36035 15.0004 6.03848 15.0004C6.74493 15.0004 7.3945 14.7587 7.91055 14.3543L7.13445 13.5782C6.82173 13.7909 6.4444 13.9155 6.03848 13.9155Z" fill="white"/>
<path d="M9.70833 22C8.94097 22 8.29774 21.7305 7.77865 21.1914C7.25955 20.6523 7 19.9844 7 19.1875C7 18.3906 7.26406 17.7227 7.79219 17.1836C8.32031 16.6445 8.95903 16.375 9.70833 16.375C10.4035 16.375 10.988 16.5906 11.462 17.0219C11.9359 17.4531 12.2361 17.9875 12.3625 18.625H12.7146L11.7396 15.8125H10.7917V14.6875H13.5V15.8125H12.9042L13.0938 16.375H15.6938L14.9083 14.125H13.5V13H14.9083C15.1431 13 15.353 13.0656 15.538 13.1969C15.7231 13.3281 15.8563 13.5062 15.9375 13.7312L16.8583 16.3469H17.2917C18.041 16.3469 18.6797 16.6211 19.2078 17.1695C19.7359 17.718 20 18.3812 20 19.1594C20 19.9469 19.7382 20.6172 19.2146 21.1703C18.691 21.7234 18.05 22 17.2917 22C16.6417 22 16.0707 21.7891 15.5786 21.3672C15.0866 20.9453 14.7729 20.4062 14.6375 19.75H12.3625C12.2361 20.3969 11.9292 20.9336 11.4417 21.3602C10.9542 21.7867 10.3764 22 9.70833 22ZM9.70833 20.875C10.0785 20.875 10.3967 20.7695 10.663 20.5586C10.9293 20.3477 11.1167 20.0781 11.225 19.75H9.70833V18.625H11.225C11.1167 18.2875 10.9293 18.0156 10.663 17.8094C10.3967 17.6031 10.0785 17.5 9.70833 17.5C9.24792 17.5 8.86198 17.6617 8.55052 17.9852C8.23906 18.3086 8.08333 18.7094 8.08333 19.1875C8.08333 19.6562 8.23906 20.0547 8.55052 20.3828C8.86198 20.7109 9.24792 20.875 9.70833 20.875ZM13.8792 18.625H14.6375C14.6826 18.4094 14.7436 18.2078 14.8203 18.0203C14.897 17.8328 14.9986 17.6594 15.125 17.5H13.4729L13.8792 18.625ZM17.2917 20.875C17.7521 20.875 18.138 20.7109 18.4495 20.3828C18.7609 20.0547 18.9167 19.6562 18.9167 19.1875C18.9167 18.7094 18.7609 18.3086 18.4495 17.9852C18.138 17.6617 17.7521 17.5 17.2917 17.5H17.2375L17.7792 18.9906L16.75 19.3844L16.2354 17.8937C16.0549 18.0531 15.9149 18.2406 15.8156 18.4562C15.7163 18.6719 15.6667 18.9156 15.6667 19.1875C15.6667 19.6562 15.8224 20.0547 16.1339 20.3828C16.4453 20.7109 16.8313 20.875 17.2917 20.875Z" fill="#E8EAED"/>
<rect x="18" width="6" height="6" rx="3" fill="#0CA724"/>
</svg>
