<svg width="34" height="34" viewBox="0 0 34 34" fill="none" xmlns="http://www.w3.org/2000/svg">
<g clip-path="url(#clip0_495_79)">
<circle cx="17" cy="17" r="17" fill="#02094A"/>
<path fill-rule="evenodd" clip-rule="evenodd" d="M9 32.0038C14.3558 29.1421 18 23.4966 18 17C18 10.5034 14.3558 4.85786 9 1.9962C11.3843 0.722241 14.1078 0 17 0C26.3888 0 34 7.61116 34 17C34 26.3888 26.3888 34 17 34C14.1078 34 11.3843 33.2778 9 32.0038Z" fill="#5162F6"/>
<path d="M9.5 7L10.799 9.25H8.20096L9.5 7Z" fill="white"/>
<path d="M9.5 10L8.20096 7.75L10.799 7.75L9.5 10Z" fill="white"/>
<path d="M5.5 14L6.79904 16.25H4.20096L5.5 14Z" fill="white"/>
<path d="M5.5 17L4.20096 14.75L6.79904 14.75L5.5 17Z" fill="white"/>
<path d="M13.5 18L14.799 20.25H12.201L13.5 18Z" fill="white"/>
<path d="M13.5 21L12.201 18.75L14.799 18.75L13.5 21Z" fill="white"/>
<path d="M7.5 23L8.79904 25.25H6.20096L7.5 23Z" fill="white"/>
<path d="M7.5 26L6.20096 23.75L8.79904 23.75L7.5 26Z" fill="white"/>
</g>
<defs>
<clipPath id="clip0_495_79">
<rect width="34" height="34" fill="white"/>
</clipPath>
</defs>
</svg>
