<svg width="34" height="34" viewBox="0 0 34 34" fill="none" xmlns="http://www.w3.org/2000/svg">
<g clip-path="url(#clip0_495_89)">
<path fill-rule="evenodd" clip-rule="evenodd" d="M25.5 25.5H31.7222L29.5576 21.7508C28.925 21.7151 28.2683 21.8252 27.6303 22.1088L27.1951 22.3022C25.6284 22.9985 23.7879 22.4912 22.7992 21.0905C21.0636 18.6317 17.2553 19.2675 16.4126 22.1568L16.2299 22.7832C15.5751 25.0283 13.1085 26.1997 10.9546 25.2885L9.6556 24.7389C7.85287 23.9762 5.97023 24.3938 4.6611 25.5H8.49978V31.7224L13.8886 28.6112L16.9998 34L20.1109 28.6113L25.5 31.7227V25.5ZM3.26206 25.5C4.80766 23.6178 7.49279 22.7381 10.0452 23.8179L11.3443 24.3675C12.9471 25.0456 14.7826 24.1739 15.2699 22.5032L15.4526 21.8768C16.5298 18.1836 21.3976 17.3709 23.6161 20.5138C24.3298 21.5248 25.6582 21.8909 26.789 21.3884L27.2241 21.195C27.8048 20.9369 28.398 20.7947 28.9826 20.7549L28.611 20.1112L33.9998 17L28.611 13.8888L31.7222 8.5L25.5 8.5V2.2778L20.1111 5.38905L16.9998 0L13.8886 5.38878L8.49978 2.27757V8.5L2.27734 8.5L5.38871 13.8891L0 17.0002L5.38852 20.1113L2.27734 25.5H3.26206Z" fill="#FFCC00"/>
<path d="M7.77712 34H27.7886C30.9429 34 33.5 31.4429 33.5 28.2886V25.9234C33.5 22.9025 30.3907 20.8819 27.6303 22.1088L27.1951 22.3022C25.6284 22.9985 23.7879 22.4912 22.7992 21.0905C21.0636 18.6317 17.2553 19.2675 16.4126 22.1568L16.2299 22.7832C15.5751 25.0283 13.1085 26.1997 10.9546 25.2885L9.6556 24.7389C6.2454 23.2961 2.54923 26.0769 2.9904 29.7533C3.28117 32.1764 5.33669 34 7.77712 34Z" fill="#9C9C9C"/>
</g>
<defs>
<clipPath id="clip0_495_89">
<rect width="34" height="34" fill="white"/>
</clipPath>
</defs>
</svg>
