<svg width="34" height="34" viewBox="0 0 34 34" fill="none" xmlns="http://www.w3.org/2000/svg">
<g clip-path="url(#clip0_498_212)">
<path fill-rule="evenodd" clip-rule="evenodd" d="M33.1225 22.4057C33.6917 20.7075 34 18.8898 34 17C34 7.61116 26.3888 0 17 0C7.61116 0 0 7.61116 0 17C0 20.4125 1.00546 23.5901 2.7363 26.2528C3.68385 24.6341 5.38981 23.5307 7.28659 23.3696L7.5 23L7.70185 23.3496C8.47082 23.3407 9.26375 23.4877 10.0443 23.8179L11.3433 24.3675C12.9461 25.0456 14.7817 24.1739 15.269 22.5032L15.4516 21.8768C16.5288 18.1836 21.3967 17.3709 23.6152 20.5138C24.3288 21.5248 25.6572 21.8909 26.788 21.3883L27.2232 21.1949C29.3735 20.2393 31.6945 20.8733 33.1225 22.4057ZM32.7185 23.487C31.621 21.9673 29.5415 21.2589 27.6293 22.1088L27.1942 22.3022C25.6274 22.9985 23.787 22.4912 22.7982 21.0905C21.0626 18.6317 17.2543 19.2675 16.4116 22.1568L16.229 22.7832C15.5741 25.0283 13.1075 26.1997 10.9537 25.2885L9.65464 24.7389C9.24656 24.5662 8.83438 24.4541 8.42568 24.3967L8.36602 24.5L8.79904 25.25H7.93301L7.5 26L7.06699 25.25H6.20096L6.63397 24.5L6.62859 24.4907C5.20887 24.8435 3.99605 25.8376 3.38233 27.1781C6.47853 31.314 11.4148 33.9926 16.977 34H17.023C24.1048 33.9906 30.1718 29.651 32.7185 23.487ZM10.799 9.25L10.366 8.5L10.799 7.75H9.93301L9.5 7L9.06699 7.75H8.20096L8.63398 8.5L8.20096 9.25H9.06699L9.5 10L9.93301 9.25H10.799ZM6.79904 16.25L6.36603 15.5L6.79904 14.75H5.93301L5.5 14L5.06699 14.75H4.20096L4.63397 15.5L4.20096 16.25H5.06699L5.5 17L5.93301 16.25H6.79904ZM14.799 20.25L14.366 19.5L14.799 18.75H13.933L13.5 18L13.067 18.75H12.201L12.634 19.5L12.201 20.25H13.067L13.5 21L13.933 20.25H14.799Z" fill="#02094A"/>
<path fill-rule="evenodd" clip-rule="evenodd" d="M17.6804 20.2978C16.6826 25.3736 13.4256 29.6391 9 32.0038C11.378 33.2744 14.0934 33.9962 16.977 34H17.023C24.1048 33.9906 30.1718 29.651 32.7185 23.487C31.621 21.9673 29.5415 21.2589 27.6293 22.1088L27.1942 22.3022C25.6274 22.9985 23.787 22.4912 22.7982 21.0905C21.5414 19.31 19.1978 19.1522 17.6804 20.2978ZM33.1225 22.4057C33.6917 20.7075 34 18.8898 34 17C34 7.61116 26.3888 0 17 0C14.1078 0 11.3843 0.722241 9 1.9962C14.3558 4.85786 18 10.5034 18 17C18 17.6811 17.9599 18.3528 17.8821 19.0129C19.7719 18.1243 22.2185 18.5352 23.6152 20.5138C24.3288 21.5248 25.6572 21.8909 26.788 21.3883L27.2232 21.1949C29.3735 20.2393 31.6945 20.8733 33.1225 22.4057Z" fill="#5162F6"/>
<path d="M7.77712 34H27.7886C30.9429 34 33.5 31.4429 33.5 28.2886V25.9234C33.5 22.9025 30.3907 20.8819 27.6303 22.1088L27.1951 22.3022C25.6284 22.9985 23.7879 22.4912 22.7992 21.0905C21.0636 18.6317 17.2553 19.2675 16.4126 22.1568L16.2299 22.7832C15.5751 25.0283 13.1085 26.1997 10.9546 25.2885L9.6556 24.7389C6.2454 23.2961 2.54923 26.0769 2.9904 29.7533C3.28117 32.1764 5.33669 34 7.77712 34Z" fill="#9C9C9C"/>
</g>
<defs>
<clipPath id="clip0_498_212">
<rect width="34" height="34" fill="white"/>
</clipPath>
</defs>
</svg>
