<svg width="34" height="34" viewBox="0 0 34 34" fill="none" xmlns="http://www.w3.org/2000/svg">
<g clip-path="url(#clip0_498_229)">
<path fill-rule="evenodd" clip-rule="evenodd" d="M25.5 25.5H31.7222L29.5574 21.7505C28.9246 21.7147 28.2676 21.8247 27.6293 22.1084L27.1942 22.3018C25.6274 22.9981 23.787 22.4909 22.7982 21.0901C21.0626 18.6314 17.2543 19.2672 16.4116 22.1565L16.229 22.7828C15.5741 25.0279 13.1075 26.1994 10.9537 25.2881L9.65464 24.7386C7.85173 23.9758 5.96888 24.3935 4.65973 25.5H8.49978V31.7224L13.8886 28.6112L16.9996 33.9996H17L20.1109 28.6113L25.5 31.7227V25.5ZM3.26082 25.5C4.80637 23.6175 7.49168 22.7376 10.0443 23.8176L11.3433 24.3672C12.9461 25.0453 14.7817 24.1735 15.269 22.5028L15.4516 21.8764C15.854 20.497 16.7852 19.5193 17.9097 18.9996H9.2417C6.64994 18.9996 4.49743 17.119 4.07443 14.6479L0 17.0002L5.38852 20.1113L2.27734 25.5H3.26082ZM5.01319 14.1059L5.38871 13.8891L4.99905 13.2141V12.2092C4.99905 9.89373 7.36779 8.33358 9.49506 9.24793L9.83267 9.39305C11.0166 9.90191 12.395 9.52461 13.1547 8.48376C14.4996 6.64116 17.3719 7.13066 18.0306 9.31471L18.1508 9.71344C18.6567 11.3907 20.497 12.2678 22.1184 11.6044L23.337 11.1058C25.8705 10.0692 28.5828 12.1437 28.2457 14.8603C28.0232 16.6534 26.4996 17.9996 24.6927 17.9996H9.2417C7.01601 17.9996 5.19061 16.2858 5.01319 14.1059ZM8.49978 7.99087V2.27757L13.8886 5.38878L16.9998 0L20.1111 5.38905L25.5 2.2778V8.5L31.7222 8.5L29.0792 13.0779C28.3326 10.6287 25.5711 9.11124 22.9583 10.1803L21.7397 10.6789C20.6643 11.1189 19.4437 10.5371 19.1082 9.4247L18.988 9.02597C18.0908 6.05126 14.1787 5.38456 12.347 7.89421C11.8623 8.55826 10.9829 8.79897 10.2276 8.47432L9.83267 9.39305L10.2276 8.47432L9.88995 8.32921C9.43005 8.13153 8.96154 8.02212 8.49978 7.99087ZM6.20249 8.5C5.08852 9.10848 4.2507 10.2086 4.04683 11.5648L2.27734 8.5L6.20249 8.5ZM29.2729 14.2709L33.9998 17L28.611 20.1112L28.9824 20.7545C28.3975 20.7943 27.8041 20.9364 27.2232 21.1946L26.788 21.388C25.6572 21.8906 24.3288 21.5244 23.6152 20.5135C23.1259 19.8203 22.5077 19.3195 21.8298 18.9996H24.6927C27.0042 18.9996 28.9535 17.2773 29.2381 14.9834C29.2681 14.7416 29.2792 14.5037 29.2729 14.2709Z" fill="#FFCC00"/>
<path fill-rule="evenodd" clip-rule="evenodd" d="M9.24136 18.0003H24.6924C26.4992 18.0003 28.0229 16.654 28.2454 14.8609C28.5825 12.1444 25.8701 10.0698 23.3366 11.1064L22.1181 11.605C20.4967 12.2684 18.6563 11.3913 18.1505 9.71406L18.0302 9.31533C17.3716 7.13127 14.4993 6.64178 13.1544 8.48438C12.3947 9.52523 11.0162 9.90253 9.83233 9.39367L9.49472 9.24855C7.36745 8.3342 4.99871 9.89434 4.99871 12.2098V13.7576C4.99871 16.1008 6.8982 18.0003 9.24136 18.0003ZM27.7873 34.0003H7.77583C5.3354 34.0003 3.27987 32.1767 2.98911 29.7536C2.54793 26.0772 6.24411 23.2964 9.6543 24.7392L10.9533 25.2888C13.1072 26.2 15.5738 25.0286 16.2286 22.7834L16.4113 22.1571C17.254 19.2678 21.0623 18.632 22.7979 21.0908C23.7866 22.4915 25.6271 22.9988 27.1938 22.3024L27.629 22.109C30.3894 20.8822 33.4987 22.9028 33.4987 25.9236V28.2888C33.4987 31.4432 30.9416 34.0003 27.7873 34.0003Z" fill="#9C9C9C"/>
</g>
<defs>
<clipPath id="clip0_498_229">
<rect width="34" height="34" fill="white"/>
</clipPath>
</defs>
</svg>
