<svg width="34" height="34" viewBox="0 0 34 34" fill="none" xmlns="http://www.w3.org/2000/svg">
<g clip-path="url(#clip0_498_236)">
<path fill-rule="evenodd" clip-rule="evenodd" d="M33.1226 22.4054C33.6917 20.7073 34 18.8897 34 17C34 7.61116 26.3888 0 17 0C7.61116 0 0 7.61116 0 17C0 20.4124 1.00542 23.59 2.7362 26.2527C3.68376 24.6338 5.38987 23.5303 7.28679 23.3693L7.5 23L7.70166 23.3493C8.47069 23.3404 9.26369 23.4873 10.0443 23.8176L11.3433 24.3672C12.9461 25.0453 14.7817 24.1735 15.269 22.5028L15.4516 21.8764C16.5288 18.1833 21.3967 17.3706 23.6152 20.5135C24.3288 21.5244 25.6572 21.8906 26.788 21.388L27.2232 21.1946C29.3735 20.2389 31.6946 20.873 33.1226 22.4054ZM32.7186 23.4867C31.6211 21.967 29.5415 21.2586 27.6293 22.1084L27.1942 22.3018C25.6274 22.9981 23.787 22.4909 22.7982 21.0901C21.0626 18.6314 17.2543 19.2672 16.4116 22.1565L16.229 22.7828C15.5741 25.0279 13.1075 26.1994 10.9537 25.2881L9.65464 24.7386C9.24662 24.5659 8.8345 24.4538 8.42586 24.3964L8.36602 24.5L8.79904 25.25H7.93301L7.5 26L7.06699 25.25H6.20096L6.63397 24.5L6.62842 24.4904C5.2087 24.8432 3.9959 25.8375 3.38223 27.178C6.46221 31.2922 11.363 33.9645 16.8896 33.9996H17.1104C24.1547 33.9548 30.1824 29.6256 32.7186 23.4867ZM10.1091 7.75L10.2276 7.47432C10.9829 7.79897 11.8623 7.55826 12.347 6.89421C14.1787 4.38456 18.0908 5.05126 18.988 8.02597L19.1082 8.4247C19.4437 9.53713 20.6643 10.1189 21.7397 9.67887L22.9583 9.1803C26.1994 7.85416 29.6693 10.5081 29.2381 13.9834C28.9535 16.2773 27.0042 17.9996 24.6927 17.9996H9.2417C7.88208 17.9996 6.64334 17.4821 5.71175 16.6332L5.5 17L5.06699 16.25H4.20096L4.63397 15.5L4.20096 14.75H4.39116C4.13843 14.1356 3.99905 13.4626 3.99905 12.757V11.2092C3.99905 8.34849 6.75856 6.36771 9.41031 7.15536L9.5 7L9.6314 7.22759C9.71782 7.25843 9.80403 7.29228 9.88995 7.32921L10.2276 7.47432L10.1091 7.75ZM10.4058 8.56887L10.799 9.25H9.93301L9.5 10L9.06699 9.25H8.20096L8.63398 8.5L8.33642 7.98462C6.59078 7.92059 4.99905 9.31111 4.99905 11.2092V12.757C4.99905 13.3164 5.1073 13.8505 5.30401 14.3395L5.5 14L5.93301 14.75H6.79904L6.36603 15.5L6.7759 16.2099C7.47083 16.7071 8.32209 16.9996 9.2417 16.9996H24.6927C26.4996 16.9996 28.0232 15.6534 28.2457 13.8603C28.5828 11.1437 25.8705 9.06922 23.337 10.1058L22.1184 10.6044C20.497 11.2678 18.6567 10.3907 18.1508 8.71344L18.0306 8.31471C17.3719 6.13066 14.4996 5.64116 13.1547 7.48376C12.5151 8.35999 11.4371 8.76596 10.4058 8.56887ZM14.799 20.25L14.366 19.5L14.799 18.75H13.933L13.5 18L13.067 18.75H12.201L12.634 19.5L12.201 20.25H13.067L13.5 21L13.933 20.25H14.799Z" fill="#02094A"/>
<path fill-rule="evenodd" clip-rule="evenodd" d="M17.6804 20.2974C16.6827 25.3734 13.4257 29.6391 9 32.0038C11.3539 33.2615 14.0385 33.9815 16.8896 33.9996H17.1104C24.1547 33.9548 30.1824 29.6256 32.7186 23.4867C31.6211 21.967 29.5415 21.2586 27.6293 22.1084L27.1942 22.3018C25.6274 22.9981 23.787 22.4909 22.7982 21.0901C21.5414 19.3097 19.1979 19.1519 17.6804 20.2974ZM33.1226 22.4054C33.6917 20.7073 34 18.8897 34 17C34 7.61116 26.3888 0 17 0C14.1078 0 11.3843 0.722241 9 1.9962C10.7904 2.95284 12.3895 4.22057 13.7252 5.7272C15.6855 4.76517 18.2788 5.67441 18.988 8.02597L19.1082 8.4247C19.4437 9.53713 20.6643 10.1189 21.7397 9.67887L22.9583 9.1803C26.1994 7.85416 29.6693 10.5081 29.2381 13.9834C28.9535 16.2773 27.0042 17.9996 24.6927 17.9996H17.9711C17.9514 18.3401 17.9216 18.6778 17.8821 19.0125C19.7719 18.124 22.2186 18.5349 23.6152 20.5135C24.3288 21.5244 25.6572 21.8906 26.788 21.388L27.2232 21.1946C29.3735 20.2389 31.6946 20.873 33.1226 22.4054ZM18 16.9996H24.6927C26.4996 16.9996 28.0232 15.6534 28.2457 13.8603C28.5828 11.1437 25.8705 9.06922 23.337 10.1058L22.1184 10.6044C20.497 11.2678 18.6567 10.3907 18.1508 8.71344L18.0306 8.31471C17.5368 6.67733 15.7988 5.99237 14.393 6.52847C16.6528 9.41468 17.9999 13.0498 18 16.9996Z" fill="#5162F6"/>
<path fill-rule="evenodd" clip-rule="evenodd" d="M9.24136 17.0003H24.6924C26.4992 17.0003 28.0229 15.654 28.2454 13.8609C28.5825 11.1444 25.8701 9.06983 23.3366 10.1064L22.1181 10.605C20.4967 11.2684 18.6563 10.3913 18.1505 8.71406L18.0302 8.31533C17.3716 6.13127 14.4993 5.64178 13.1544 7.48438C12.3947 8.52523 11.0162 8.90253 9.83233 8.39367L9.49472 8.24855C7.36745 7.3342 4.99871 8.89434 4.99871 11.2098V12.7576C4.99871 15.1008 6.8982 17.0003 9.24136 17.0003ZM27.7873 34.0003H7.77583C5.3354 34.0003 3.27987 32.1767 2.98911 29.7536C2.54793 26.0772 6.24411 23.2964 9.6543 24.7392L10.9533 25.2888C13.1072 26.2 15.5738 25.0286 16.2286 22.7834L16.4113 22.1571C17.254 19.2678 21.0623 18.632 22.7979 21.0908C23.7866 22.4915 25.6271 22.9988 27.1938 22.3024L27.629 22.109C30.3894 20.8822 33.4987 22.9028 33.4987 25.9236V28.2888C33.4987 31.4432 30.9416 34.0003 27.7873 34.0003Z" fill="#9C9C9C"/>
</g>
<defs>
<clipPath id="clip0_498_236">
<rect width="34" height="34" fill="white"/>
</clipPath>
</defs>
</svg>
