<svg width="34" height="34" viewBox="0 0 34 34" fill="none" xmlns="http://www.w3.org/2000/svg">
<path fill-rule="evenodd" clip-rule="evenodd" d="M27.3346 14.9996H7.77583C6.81296 14.9996 5.91001 14.7157 5.15173 14.2232C5.70604 12.4808 7.68849 11.4704 9.49651 12.2476L9.83413 12.3927C11.018 12.9015 12.3964 12.5242 13.1562 11.4834C14.5011 9.64079 17.3733 10.1303 18.032 12.3143L18.1523 12.7131C18.6581 14.3903 20.4985 15.2674 22.1199 14.604L23.3384 14.1054C24.827 13.4964 26.3774 13.9614 27.3346 14.9996ZM28.556 14.9483C27.4265 13.1979 25.1413 12.2873 22.9597 13.1799L21.7412 13.6785C20.6658 14.1185 19.4452 13.5368 19.1097 12.4243L18.9894 12.0256C18.0923 9.05088 14.1802 8.38418 12.3484 10.8938C11.8637 11.5579 10.9843 11.7986 10.229 11.4739L9.8914 11.3288C7.65121 10.3659 5.20665 11.4974 4.33333 13.5538C3.61058 12.8171 3.12028 11.846 2.98911 10.753C2.54793 7.07651 6.24411 4.29576 9.6543 5.73853L10.9533 6.28812C13.1072 7.19936 15.5738 6.02792 16.2286 3.78281L16.4113 3.15643C17.254 0.267163 21.0623 -0.368665 22.7979 2.09012C23.7866 3.49083 25.6271 3.99813 27.1938 3.30179L27.629 3.1084C30.3894 1.88153 33.4987 3.90216 33.4987 6.92298V9.28818C33.4987 12.1818 31.3468 14.5729 28.556 14.9483Z" fill="#9C9C9C"/>
<path fill-rule="evenodd" clip-rule="evenodd" d="M14.5539 21.0003H24.6937C26.4907 21.0003 28.0076 19.6685 28.2429 17.8901C28.0374 17.9461 27.8324 18.0188 27.6293 18.109L27.1942 18.3024C25.6274 18.9988 23.787 18.4915 22.7982 17.0907C21.0626 14.632 17.2543 15.2678 16.4116 18.1571L16.229 18.7834C15.9481 19.7465 15.3338 20.512 14.5539 21.0003ZM10.2718 21.0003L9.65464 20.7392C8.78765 20.3724 7.90217 20.2785 7.07089 20.403C7.70619 20.7823 8.44897 21.0003 9.24265 21.0003H10.2718ZM6.09355 19.6008C7.3239 19.2244 8.70243 19.2505 10.0443 19.8182L11.3433 20.3678C12.9461 21.0459 14.7817 20.1741 15.269 18.5034L15.4516 17.8771C16.0645 15.7759 17.9043 14.6071 19.7852 14.5686C19.0279 14.2307 18.4125 13.5787 18.1518 12.7141L18.0315 12.3153C17.3728 10.1313 14.5006 9.64178 13.1557 11.4844C12.3959 12.5252 11.0175 12.9025 9.83362 12.3937L9.49601 12.2486C7.36874 11.3342 5 12.8943 5 15.2098V16.7576C5 17.8514 5.41387 18.8484 6.09355 19.6008ZM28.2342 16.8622C27.8978 14.6677 25.5497 13.2015 23.3379 14.1064L22.1194 14.605C21.8655 14.7089 21.6063 14.775 21.3476 14.8062C22.213 15.0975 23.012 15.6596 23.6152 16.5141C24.3288 17.5251 25.6572 17.8912 26.788 17.3886L27.2232 17.1952C27.5574 17.0467 27.8957 16.9365 28.2342 16.8622Z" fill="#585858"/>
<path d="M7.77712 30H27.7886C30.9429 30 33.5 27.4429 33.5 24.2886V21.9234C33.5 18.9025 30.3907 16.8819 27.6303 18.1088L27.1951 18.3022C25.6284 18.9985 23.7879 18.4912 22.7992 17.0905C21.0636 14.6317 17.2553 15.2675 16.4126 18.1568L16.2299 18.7832C15.5751 21.0283 13.1085 22.1997 10.9546 21.2885L9.6556 20.7389C6.2454 19.2961 2.54923 22.0769 2.9904 25.7533C3.28117 28.1764 5.33669 30 7.77712 30Z" fill="#9C9C9C"/>
</svg>
