<svg width="34" height="34" viewBox="0 0 34 34" fill="none" xmlns="http://www.w3.org/2000/svg">
<path d="M24.6937 19H9.24265C6.8995 19 5 17.1005 5 14.7573V13.2095C5 10.8941 7.36874 9.33393 9.49601 10.2483L9.83362 10.3934C11.0175 10.9023 12.3959 10.525 13.1557 9.48412C14.5006 7.64151 17.3728 8.13101 18.0315 10.3151L18.1518 10.7138C18.6576 12.391 20.498 13.2682 22.1194 12.6047L23.3379 12.1062C25.8714 11.0696 28.5838 13.1441 28.2467 15.8606C28.0242 17.6537 26.5005 19 24.6937 19Z" fill="#585858"/>
<path d="M7.77712 30H27.7886C30.9429 30 33.5 27.4429 33.5 24.2886V21.9234C33.5 18.9025 30.3907 16.8819 27.6303 18.1088L27.1951 18.3022C25.6284 18.9985 23.7879 18.4912 22.7992 17.0905C21.0636 14.6317 17.2553 15.2675 16.4126 18.1568L16.2299 18.7832C15.5751 21.0283 13.1085 22.1997 10.9546 21.2885L9.6556 20.7389C6.2454 19.2961 2.54923 22.0769 2.9904 25.7533C3.28117 28.1764 5.33669 30 7.77712 30Z" fill="#9C9C9C"/>
</svg>
