<svg width="34" height="34" viewBox="0 0 34 34" fill="none" xmlns="http://www.w3.org/2000/svg">
<g clip-path="url(#clip0_495_124)">
<path d="M10.043 13.7275L27.0885 20L17.5885 36.4545L2 27.4545L10.043 13.7275Z" fill="url(#paint0_linear_495_124)"/>
<path fill-rule="evenodd" clip-rule="evenodd" d="M13.649 11.6471H16.5236L15.0862 9.15747L17.5718 7.72241L16.2383 6.95249C15.4019 7.36943 14.7148 8.11726 14.4116 9.15679L14.229 9.78317C13.5741 12.0283 11.1075 13.1997 8.95368 12.2885L7.65464 11.7389C6.4472 11.2281 5.20391 11.2467 4.12111 11.6471H5.79775V14.5202L8.28569 13.0838L9.72243 15.5723L11.1596 13.0831L13.649 14.5204V11.6471ZM3.37476 10.8735L4.36416 9.15976L1.875 7.72264L4.36159 6.28701L2.92468 3.79822L5.79775 3.79822V0.924662L8.28846 2.36268L9.72585 -0.126953L11.1621 2.36072L13.649 0.924888V3.79822L16.5202 3.79822L15.0839 6.286L15.2435 6.37817C14.4246 6.93871 13.7713 7.78095 13.4516 8.87679L13.269 9.50317C12.7817 11.1739 10.9461 12.0456 9.34332 11.3675L8.04428 10.8179C6.43412 10.1367 4.77115 10.2353 3.37476 10.8735Z" fill="#FFCC00"/>
<path d="M5.77712 21H25.7886C28.9429 21 31.5 18.4429 31.5 15.2886V12.9234C31.5 9.90254 28.3907 7.8819 25.6303 9.10877L25.1951 9.30217C23.6284 9.9985 21.7879 9.49121 20.7992 8.0905C19.0636 5.63171 15.2553 6.26754 14.4126 9.1568L14.2299 9.78318C13.5751 12.0283 11.1085 13.1997 8.95464 12.2885L7.6556 11.7389C4.2454 10.2961 0.549226 13.0769 0.990402 16.7533C1.28117 19.1764 3.33669 21 5.77712 21Z" fill="#9C9C9C"/>
</g>
<defs>
<linearGradient id="paint0_linear_495_124" x1="19.2942" y1="15.5" x2="9.79423" y2="31.9545" gradientUnits="userSpaceOnUse">
<stop stop-color="#0094FF"/>
<stop offset="0.886808" stop-color="#0094FF" stop-opacity="0"/>
</linearGradient>
<clipPath id="clip0_495_124">
<rect width="34" height="34" fill="white"/>
</clipPath>
</defs>
</svg>
