<svg width="34" height="34" viewBox="0 0 34 34" fill="none" xmlns="http://www.w3.org/2000/svg">
<g clip-path="url(#clip0_496_133)">
<path d="M10.043 13.7275L27.0885 20L17.5885 36.4545L2 27.4545L10.043 13.7275Z" fill="url(#paint0_linear_496_133)"/>
<path fill-rule="evenodd" clip-rule="evenodd" d="M6.81011 11.4668C6.11783 12.5637 5.14832 13.4681 4 14.0817C5.04909 14.6422 6.24743 14.96 7.52 14.96C11.4761 14.96 14.7149 11.8888 14.9822 8.00059C14.7355 8.3322 14.5395 8.71857 14.4116 9.15679L14.229 9.78317C13.5741 12.0283 11.1075 13.1997 8.95368 12.2885L7.65464 11.7389C7.37424 11.6203 7.09191 11.5302 6.81011 11.4668ZM7.29928 10.5582C7.72372 9.6194 7.96 8.57729 7.96 7.48C7.96 4.62148 6.35654 2.13746 4 0.878329C5.04909 0.317786 6.24743 0 7.52 0C11.3528 0 14.5122 2.88269 14.9486 6.59822C14.2686 7.15019 13.7319 7.91602 13.4516 8.87679L13.269 9.50317C12.7817 11.1739 10.9461 12.0456 9.34332 11.3675L8.04428 10.8179C7.79681 10.7132 7.54809 10.6269 7.29928 10.5582Z" fill="#5162F6"/>
<path d="M5.77712 21H25.7886C28.9429 21 31.5 18.4429 31.5 15.2886V12.9234C31.5 9.90254 28.3907 7.8819 25.6303 9.10877L25.1951 9.30217C23.6284 9.9985 21.7879 9.49121 20.7992 8.0905C19.0636 5.63171 15.2553 6.26754 14.4126 9.1568L14.2299 9.78318C13.5751 12.0283 11.1085 13.1997 8.95464 12.2885L7.6556 11.7389C4.2454 10.2961 0.549226 13.0769 0.990402 16.7533C1.28117 19.1764 3.33669 21 5.77712 21Z" fill="#9C9C9C"/>
</g>
<defs>
<linearGradient id="paint0_linear_496_133" x1="19.2942" y1="15.5" x2="9.79423" y2="31.9545" gradientUnits="userSpaceOnUse">
<stop stop-color="#0094FF"/>
<stop offset="0.886808" stop-color="#0094FF" stop-opacity="0"/>
</linearGradient>
<clipPath id="clip0_496_133">
<rect width="34" height="34" fill="white"/>
</clipPath>
</defs>
</svg>
