<svg width="34" height="34" viewBox="0 0 34 34" fill="none" xmlns="http://www.w3.org/2000/svg">
<path d="M5.77712 19H25.7886C28.9429 19 31.5 16.4429 31.5 13.2886V10.9234C31.5 7.90254 28.3907 5.8819 25.6303 7.10877L25.1951 7.30217C23.6284 7.9985 21.7879 7.49121 20.7992 6.0905C19.0636 3.63171 15.2553 4.26754 14.4126 7.1568L14.2299 7.78318C13.5751 10.0283 11.1085 11.1997 8.95464 10.2885L7.6556 9.73891C4.2454 8.29613 0.549226 11.0769 0.990402 14.7533C1.28117 17.1764 3.33669 19 5.77712 19Z" fill="#9C9C9C"/>
<path d="M7.71268 25.1083L9.69231 20L9.15385 24.0526H12.2033C12.9872 24.0526 13.4663 24.9134 13.0532 25.5796L9.69231 31L11.3077 25.7895L8.9047 26.4354C8.11387 26.648 7.41678 25.8719 7.71268 25.1083Z" fill="#FF0000"/>
<path d="M15.643 22.5734L16.5385 20L16.2308 22.5789H17.2987C18.0616 22.5789 18.5435 23.3989 18.1724 24.0654L16.5385 27L17.4615 23.6842L16.8742 23.86C16.0926 24.094 15.3748 23.3439 15.643 22.5734Z" fill="#FF0000"/>
</svg>
