<svg width="34" height="34" viewBox="0 0 34 34" fill="none" xmlns="http://www.w3.org/2000/svg">
<g clip-path="url(#clip0_496_154)">
<path d="M10.043 11.7275L27.0885 18L17.5885 34.4545L2 25.4545L10.043 11.7275Z" fill="url(#paint0_linear_496_154)"/>
<path d="M7.5 21L8.79904 23.25H6.20096L7.5 21Z" fill="white"/>
<path d="M7.5 24L6.20096 21.75L8.79904 21.75L7.5 24Z" fill="white"/>
<path d="M13.5 19L14.799 21.25H12.201L13.5 19Z" fill="white"/>
<path d="M13.5 22L12.201 19.75L14.799 19.75L13.5 22Z" fill="white"/>
<path d="M12.5 24L13.799 26.25H11.201L12.5 24Z" fill="white"/>
<path d="M12.5 27L11.201 24.75L13.799 24.75L12.5 27Z" fill="white"/>
<path d="M16.5 27L17.799 29.25H15.201L16.5 27Z" fill="white"/>
<path d="M16.5 30L15.201 27.75L17.799 27.75L16.5 30Z" fill="white"/>
<path d="M17.5 22L18.799 24.25H16.201L17.5 22Z" fill="white"/>
<path d="M17.5 25L16.201 22.75L18.799 22.75L17.5 25Z" fill="white"/>
<path d="M22.5 20L23.799 22.25H21.201L22.5 20Z" fill="white"/>
<path d="M22.5 23L21.201 20.75L23.799 20.75L22.5 23Z" fill="white"/>
<path d="M18.5 17L19.799 19.25H17.201L18.5 17Z" fill="white"/>
<path d="M18.5 20L17.201 17.75L19.799 17.75L18.5 20Z" fill="white"/>
<path d="M4.5 23L5.79904 25.25H3.20096L4.5 23Z" fill="white"/>
<path d="M4.5 26L3.20096 23.75L5.79904 23.75L4.5 26Z" fill="white"/>
<path d="M5.77712 19H25.7886C28.9429 19 31.5 16.4429 31.5 13.2886V10.9234C31.5 7.90254 28.3907 5.8819 25.6303 7.10877L25.1951 7.30217C23.6284 7.9985 21.7879 7.49121 20.7992 6.0905C19.0636 3.63171 15.2553 4.26754 14.4126 7.1568L14.2299 7.78318C13.5751 10.0283 11.1085 11.1997 8.95464 10.2885L7.6556 9.73891C4.2454 8.29613 0.549226 11.0769 0.990402 14.7533C1.28117 17.1764 3.33669 19 5.77712 19Z" fill="#9C9C9C"/>
</g>
<defs>
<linearGradient id="paint0_linear_496_154" x1="19.2942" y1="13.5" x2="9.79423" y2="29.9545" gradientUnits="userSpaceOnUse">
<stop/>
<stop offset="0.886808" stop-opacity="0"/>
</linearGradient>
<clipPath id="clip0_496_154">
<rect width="34" height="34" fill="white"/>
</clipPath>
</defs>
</svg>
