<svg width="34" height="34" viewBox="0 0 34 34" fill="none" xmlns="http://www.w3.org/2000/svg">
<path d="M2.48468 7H30.2016C31.1948 7 32 6.19482 32 5.20157C32 4.12683 31.0636 3.29202 29.9959 3.41495L24.4546 4.05292C23.4043 4.17385 22.3401 4.04711 21.3475 3.68284L19.3245 2.94042C17.7464 2.36131 15.9778 2.69642 14.721 3.81268C13.7566 4.66921 12.4748 5.07772 11.1927 4.9372L2.64854 4.0008C1.48469 3.87324 0.627795 5.06576 1.11993 6.12813C1.3662 6.65976 1.89878 7 2.48468 7Z" fill="#9C9C9C"/>
<path d="M2.48468 12H30.2016C31.1948 12 32 11.1948 32 10.2016C32 9.12683 31.0636 8.29202 29.9959 8.41495L24.4546 9.05292C23.4043 9.17385 22.3401 9.04711 21.3475 8.68284L19.3245 7.94042C17.7464 7.36131 15.9778 7.69642 14.721 8.81268C13.7566 9.66921 12.4748 10.0777 11.1927 9.9372L2.64854 9.0008C1.48469 8.87324 0.627795 10.0658 1.11993 11.1281C1.3662 11.6598 1.89878 12 2.48468 12Z" fill="#9C9C9C"/>
<path d="M2.48468 17H30.2016C31.1948 17 32 16.1948 32 15.2016C32 14.1268 31.0636 13.292 29.9959 13.4149L24.4546 14.0529C23.4043 14.1739 22.3401 14.0471 21.3475 13.6828L19.3245 12.9404C17.7464 12.3613 15.9778 12.6964 14.721 13.8127C13.7566 14.6692 12.4748 15.0777 11.1927 14.9372L2.64854 14.0008C1.48469 13.8732 0.627795 15.0658 1.11993 16.1281C1.3662 16.6598 1.89878 17 2.48468 17Z" fill="#9C9C9C"/>
<path d="M2.48468 22H30.2016C31.1948 22 32 21.1948 32 20.2016C32 19.1268 31.0636 18.292 29.9959 18.4149L24.4546 19.0529C23.4043 19.1739 22.3401 19.0471 21.3475 18.6828L19.3245 17.9404C17.7464 17.3613 15.9778 17.6964 14.721 18.8127C13.7566 19.6692 12.4748 20.0777 11.1927 19.9372L2.64854 19.0008C1.48469 18.8732 0.627795 20.0658 1.11993 21.1281C1.3662 21.6598 1.89878 22 2.48468 22Z" fill="#9C9C9C"/>
<path d="M2.48468 27H30.2016C31.1948 27 32 26.1948 32 25.2016C32 24.1268 31.0636 23.292 29.9959 23.4149L24.4546 24.0529C23.4043 24.1739 22.3401 24.0471 21.3475 23.6828L19.3245 22.9404C17.7464 22.3613 15.9778 22.6964 14.721 23.8127C13.7566 24.6692 12.4748 25.0777 11.1927 24.9372L2.64854 24.0008C1.48469 23.8732 0.627795 25.0658 1.11993 26.1281C1.3662 26.6598 1.89878 27 2.48468 27Z" fill="#9C9C9C"/>
<path d="M2.48468 32H30.2016C31.1948 32 32 31.1948 32 30.2016C32 29.1268 31.0636 28.292 29.9959 28.4149L24.4546 29.0529C23.4043 29.1739 22.3401 29.0471 21.3475 28.6828L19.3245 27.9404C17.7464 27.3613 15.9778 27.6964 14.721 28.8127C13.7566 29.6692 12.4748 30.0777 11.1927 29.9372L2.64854 29.0008C1.48469 28.8732 0.627795 30.0658 1.11993 31.1281C1.3662 31.6598 1.89878 32 2.48468 32Z" fill="#9C9C9C"/>
</svg>
